<?xml version="1.0" encoding="utf-8"?>
<!-- Generator: Adobe Illustrator 24.0.1, SVG Export Plug-In . SVG Version: 6.00 Build 0)  -->
<svg version="1.1" id="Layer_1" xmlns="http://www.w3.org/2000/svg" xmlns:xlink="http://www.w3.org/1999/xlink" x="0px" y="0px"
	 viewBox="0 0 20.3 20.3" style="enable-background:new 0 0 20.3 20.3;" xml:space="preserve">
<path fill="#33BAB3" d="M9,0c5,0,9,4,9,9s-4,9-9,9s-9-4-9-9S4,0,9,0z M9,16c3.9,0,7-3.1,7-7c0-3.9-3.1-7-7-7C5.1,2,2,5.1,2,9
	C2,12.9,5.1,16,9,16z M17.5,16.1l2.8,2.8l-1.4,1.4l-2.8-2.8L17.5,16.1L17.5,16.1z"/>
</svg>
