<?xml version="1.0" encoding="UTF-8"?>
<svg width="59px" height="59px" viewBox="0 0 59 59" version="1.1" xmlns="http://www.w3.org/2000/svg" xmlns:xlink="http://www.w3.org/1999/xlink">
    <!-- Generator: Sketch 63.1 (92452) - https://sketch.com -->
    <title>Icons/App/icon-top</title>
    <desc>Created with Sketch.</desc>
    <g id="Icons/App/icon-top" stroke="none" stroke-width="1" fill="none" fill-rule="evenodd">
        <path d="M5.0725,53.8025 L13.9275,53.8025 L13.9275,31.1975 L5.0725,31.1975 L5.0725,53.8025 Z M32.43,8.69376235 C31.605,6.98876235 30.45,5.77876235 28.91,5.61376235 C27.92,5.44876235 27.48,5.55876235 27.37,5.83376235 C26.985,6.60376235 26.985,8.19876235 27.04,9.84876235 C27.15,14.0287623 26.49,18.5387623 24.95,22.3337623 C23.74,25.3037623 21.98,27.8887623 19.615,29.6487623 L19.615,53.4637623 L41.395,53.4637623 C45.025,53.4637623 47.885,51.8687623 49.865,49.2837623 C52.175,46.2037623 53.385,41.8037623 53.385,36.8537623 L53.385,28.2187623 C53.385,25.8537623 52.67,23.7637623 51.46,22.3337623 C50.36,21.0687623 48.875,20.2437623 47.17,20.2437623 L36.5,20.2437623 L36.28,20.2437623 C34.795,20.1337623 33.75,18.8137623 33.86,17.3837623 C34.08,14.5237623 33.64,11.1687623 32.43,8.69376235 L32.43,8.69376235 Z M2.65915493,25.4797296 L16.2319249,25.4797296 C17.8384977,24.3716215 19.1126761,22.4878377 19.999061,20.2162161 C21.2732394,17.1135133 21.82723,13.3459458 21.771831,9.85540521 C21.6610329,7.47297277 21.7164319,5.20135114 22.6028169,3.31756735 C23.7661972,0.935134907 25.8159624,-0.394594828 29.6938967,0.104053823 C33.2394366,0.547297068 35.7323944,2.92972951 37.3389671,6.14324304 C38.5577465,8.69189169 39.2225352,11.8499998 39.3333333,14.7864863 L47.3661972,14.7864863 C50.800939,14.7864863 53.6816901,16.3378377 55.7868545,18.8310809 C57.8366197,21.2135134 59,24.5378377 59,28.1945945 L59,36.8932432 C59,42.9878378 57.3934272,48.5837837 54.3464789,52.6283784 C51.2995305,56.5621622 47.0338028,59 41.5492958,59 L16.9521127,59 L2.65915493,59 C1.21877934,59 0,57.7810811 0,56.3405405 L0,28.1945945 C0,26.6986485 1.21877934,25.4797296 2.65915493,25.4797296 L2.65915493,25.4797296 Z" id="Fill-1-Copy-3" fill="#F35E3E"></path>
    </g>
</svg>