<?xml version="1.0" encoding="UTF-8"?>
<svg width="20px" height="20px" viewBox="0 0 20 20" version="1.1" xmlns="http://www.w3.org/2000/svg" xmlns:xlink="http://www.w3.org/1999/xlink">
    <!-- Generator: Sketch 64 (93537) - https://sketch.com -->
    <title>Icons/Desktop/icon-calendar</title>
    <desc>Created with Sketch.</desc>
    <g id="Symbols" stroke="none" stroke-width="1" fill="none" fill-rule="evenodd">
        <g id="Forms-Desktop/field-text-active" transform="translate(-324.000000, -29.000000)" fill="#E24524" fill-rule="nonzero">
            <g id="Icons/Desktop/icon-calendar" transform="translate(324.000000, 29.000000)">
                <path d="M0,10 L20,10 L20,19 C20,19.5522847 19.5522847,20 19,20 L1,20 C0.44771525,20 0,19.5522847 0,19 L0,10 Z M15,2 L19,2 C19.5522847,2 20,2.44771525 20,3 L20,8 L0,8 L0,3 C0,2.44771525 0.44771525,2 1,2 L5,2 L5,0 L7,0 L7,2 L13,2 L13,0 L15,0 L15,2 Z" id="Shape"></path>
            </g>
        </g>
    </g>
</svg>