<?xml version="1.0" encoding="UTF-8"?>
<svg width="17px" height="15px" viewBox="0 0 17 15" version="1.1" xmlns="http://www.w3.org/2000/svg" xmlns:xlink="http://www.w3.org/1999/xlink">
    <!-- Generator: Sketch 64 (93537) - https://sketch.com -->
    <title>Icons/Desktop/icon-alert</title>
    <desc>Created with Sketch.</desc>
    <g id="Icons/Desktop/icon-alert" stroke="none" stroke-width="1" fill="none" fill-rule="evenodd">
        <path d="M9.19931767,0.405370695 L16.891812,13.7837809 C17.0360608,14.034644 17.0360628,14.3437197 16.8918171,14.5945847 C16.7475715,14.8454497 16.480992,15 16.1924943,15 L0.807505661,15 C0.51900801,15 0.252428516,14.8454497 0.108182865,14.5945847 C-0.0360627872,14.3437197 -0.0360608321,14.034644 0.108187993,13.7837809 L7.80068233,0.405370695 C7.94493835,0.154524465 8.21151334,0 8.5,0 C8.78848666,0 9.05506165,0.154524465 9.19931767,0.405370695 Z M7.69247383,10.9459363 L7.69247383,12.5675618 L9.30752617,12.5675618 L9.30752617,10.9459363 L7.69247383,10.9459363 Z M7.69247383,5.27024713 L7.69247383,9.32431083 L9.30752617,9.32431083 L9.30752617,5.27024713 L7.69247383,5.27024713 Z" id="Shape" fill="#FF0000" fill-rule="nonzero"></path>
    </g>
</svg>