<?xml version="1.0" encoding="UTF-8"?>
<svg width="118px" height="144px" viewBox="0 0 118 144" version="1.1" xmlns="http://www.w3.org/2000/svg" xmlns:xlink="http://www.w3.org/1999/xlink">
    <!-- Generator: Sketch 61.2 (89653) - https://sketch.com -->
    <title>Logos/logo-batilex</title>
    <desc>Created with Sketch.</desc>
    <g id="Design-System" stroke="none" stroke-width="1" fill="none" fill-rule="evenodd">
        <g transform="translate(-768.000000, -991.000000)" id="Logos">
            <g transform="translate(768.000000, 928.000000)">
                <g id="Logos/logo-batilex" transform="translate(0.000000, 63.000000)">
                    <polygon id="Container" fill="#3A4049" points="0 144 118 144 118 0 0 0"></polygon>
                    <polygon id="02" fill="#FFFFFF" points="63 49 63 95 88 95 88 61.3259518"></polygon>
                    <polygon id="01" fill="#33BAB3" points="56 23 31 35.3451592 31 95 56 95"></polygon>
                    <g id="batilex" transform="translate(16.000000, 115.000000)">
                        <path d="M11.2570978,9.5111807 C11.2570978,8.48431793 10.9281257,7.68221911 10.272353,7.1015789 C9.63829459,6.54958507 8.73172139,6.27303726 7.55480481,6.27303726 C6.46800269,6.27303726 5.61897246,6.56280648 5.0066284,7.14234491 C4.44097016,7.68221911 4.15759817,8.4655876 4.15759817,9.49134859 C4.15759817,10.50499 4.41817011,11.2696281 4.93931399,11.7830595 C5.57337237,12.4011604 6.45605981,12.7107617 7.58846202,12.7107617 C8.90217887,12.7107617 9.85326644,12.3945497 10.4417247,11.7632274 C10.9856687,11.2101318 11.2570978,10.458715 11.2570978,9.5111807 M15.3339629,9.47261826 C15.3339629,10.3804884 15.1298482,11.2035211 14.7216188,11.9406146 C14.223275,12.7967009 13.407902,13.4709927 12.2765855,13.964592 C11.1441832,14.4581913 9.78595202,14.7060927 8.20080607,14.7060927 C6.59177436,14.7060927 5.30194327,14.3634378 4.32696993,13.6781281 C4.28136984,13.6252425 4.23034117,13.6065122 4.17496964,13.6197336 C4.11851238,13.6318532 4.08919804,13.6660085 4.08919804,13.7177924 L4.08919804,14.2312238 C4.08919804,14.4427663 3.9078834,14.5474358 3.54633984,14.5474358 L0.693077121,14.5474358 C0.330447841,14.5474358 0.150218918,14.4427663 0.150218918,14.2312238 L0.150218918,1.04066461 C0.150218918,0.829122068 0.330447841,0.723350795 0.693077121,0.723350795 L3.54633984,0.723350795 C3.9078834,0.723350795 4.08919804,0.829122068 4.08919804,1.04066461 L4.08919804,5.22634238 C4.08919804,5.27922801 4.11851238,5.30897618 4.17496964,5.3144851 C4.23034117,5.32219759 4.28136984,5.30567083 4.32696993,5.26490482 C5.32365759,4.62146291 6.61566012,4.29864017 8.20080607,4.29864017 C9.85326644,4.29864017 11.2342977,4.54213445 12.3449856,5.02912302 C13.453502,5.51611159 14.2580179,6.19370881 14.7563617,7.06301645 C15.1407053,7.73510475 15.3339629,8.53720357 15.3339629,9.47261826" id="Fill-3" fill="#FFFFFF"></path>
                        <path d="M25.4911656,12.3754888 C26.2826528,12.032834 26.680025,11.598731 26.680025,11.0709764 L26.680025,10.1631064 C26.680025,10.0848797 26.6116249,10.0452155 26.4759103,10.0452155 L23.6563048,10.0452155 C22.4555025,10.0452155 21.5044149,10.1763278 20.8030421,10.4396542 C20.1005836,10.7029806 19.7498972,11.0786889 19.7498972,11.5656775 C19.7498972,11.986559 20.0213263,12.3126871 20.5652702,12.54296 C21.1092141,12.7732329 21.7997298,12.8889202 22.6368171,12.8889202 C23.747505,12.8889202 24.6985926,12.7181437 25.4911656,12.3754888 M27.2065975,4.73241257 C28.3042568,5.02218178 29.1478584,5.42102762 29.7363167,5.92674652 C30.3258607,6.4335672 30.6200899,7.01090207 30.6200899,7.65544576 L30.6200899,14.231995 C30.6200899,14.4424358 30.4387752,14.548207 30.0772317,14.548207 L27.2239689,14.548207 C26.8613397,14.548207 26.680025,14.4424358 26.680025,14.231995 L26.680025,13.7372939 C26.680025,13.6844083 26.6561393,13.6557619 26.6116249,13.6491512 C26.5660248,13.6425405 26.5095675,13.6524566 26.4422531,13.6788994 C25.2186507,14.3642091 23.5879047,14.7057622 21.550015,14.7057622 C19.8736689,14.7057622 18.4991519,14.4556572 17.4221212,13.9554472 C16.347262,13.4541354 15.8098324,12.711533 15.8098324,11.7232326 C15.8098324,10.6974716 16.4254336,9.8964746 17.6609788,9.32354687 C18.8954384,8.75172093 20.6325846,8.46525707 22.8756747,8.46525707 L26.4759103,8.46525707 C26.6116249,8.46525707 26.680025,8.42559284 26.680025,8.34736617 L26.680025,7.89232934 C26.680025,7.37889795 26.4140245,6.9811539 25.8809377,6.69799539 C25.3489367,6.41483687 24.5617923,6.27270673 23.5205903,6.27270673 C22.7269316,6.27270673 22.0711589,6.35534053 21.550015,6.52060815 C21.0288711,6.68477398 20.6781847,6.9117415 20.4968701,7.20151071 C20.4056699,7.38661044 20.2026409,7.47144782 19.8856117,7.45822641 L16.8282343,7.24117494 C16.6469197,7.22795353 16.5112052,7.19820536 16.4210907,7.15193043 C16.3298905,7.1056555 16.2962333,7.05056629 16.3190334,6.98335746 C16.5220623,6.19448006 17.2755495,5.54993636 18.5784092,5.0486246 C19.8801832,4.54841462 21.4935577,4.29830964 23.4185329,4.29830964 C24.8451643,4.29830964 26.1067668,4.44374514 27.2065975,4.73241257" id="Fill-5" fill="#FFFFFF"></path>
                        <path d="M40.8789156,6.31237095 L37.5837663,6.31237095 C37.4480518,6.31237095 37.3796516,6.35203518 37.3796516,6.43026185 L37.3796516,11.0919103 C37.3796516,11.6053417 37.5663949,11.9744394 37.9398813,12.1981016 C38.3144535,12.4217637 38.9083403,12.5330439 39.7237134,12.5330439 L40.6064008,12.5330439 C40.9690301,12.5330439 41.1503447,12.6388152 41.1503447,12.849256 L41.1503447,14.1724987 C41.1503447,14.3829394 40.9690301,14.4953214 40.6064008,14.507441 L38.9756547,14.5272731 C37.1874798,14.5272731 35.8509629,14.3465805 34.9682755,13.9851954 C34.0845023,13.6227084 33.6306729,12.9473147 33.6089586,11.9601162 L33.6089586,6.43026185 C33.6089586,6.35203518 33.5405584,6.31237095 33.4048439,6.31237095 L31.6383833,6.31237095 C31.275754,6.31237095 31.0944394,6.20659968 31.0944394,5.99615892 L31.0944394,4.77317858 C31.0944394,4.56163603 31.275754,4.45586476 31.6383833,4.45586476 L33.4048439,4.45586476 C33.5405584,4.45586476 33.6089586,4.41620053 33.6089586,4.33797386 L33.6089586,2.12559141 C33.6089586,1.91625243 33.7902732,1.80937937 34.1529025,1.80937937 L36.8357077,1.80937937 C37.1972513,1.80937937 37.3796516,1.91625243 37.3796516,2.12559141 L37.3796516,4.33797386 C37.3796516,4.41620053 37.4480518,4.45586476 37.5837663,4.45586476 L40.8789156,4.45586476 C41.2404592,4.45586476 41.4217738,4.56163603 41.4217738,4.77317858 L41.4217738,5.99615892 C41.4217738,6.20659968 41.2404592,6.31237095 40.8789156,6.31237095" id="Fill-7" fill="#FFFFFF"></path>
                        <path d="M43.1542515,14.2314441 L43.1542515,4.77262769 C43.1542515,4.56218692 43.3355661,4.45641565 43.6981954,4.45641565 L46.5514581,4.45641565 C46.9130017,4.45641565 47.0943163,4.56218692 47.0943163,4.77262769 L47.0943163,14.2314441 C47.0943163,14.4418849 46.9130017,14.5476561 46.5514581,14.5476561 L43.6981954,14.5476561 C43.3355661,14.5476561 43.1542515,14.4418849 43.1542515,14.2314441 M43.289966,2.78721275 C42.815508,2.51727565 42.5766504,2.17241723 42.5766504,1.75043392 C42.5766504,1.3295524 42.815508,0.98689755 43.289966,0.723571152 C43.7655098,0.460244755 44.3767682,0.329132448 45.123741,0.329132448 C45.8717996,0.329132448 46.4776294,0.460244755 46.9412303,0.723571152 C47.4059169,0.98689755 47.6382602,1.3295524 47.6382602,1.75043392 C47.6382602,2.17241723 47.4059169,2.51727565 46.9412303,2.78721275 C46.4776294,3.05714986 45.8717996,3.19156752 45.123741,3.19156752 C44.3767682,3.19156752 43.7655098,3.05714986 43.289966,2.78721275" id="Fill-9" fill="#FFFFFF"></path>
                        <path d="M49.5402182,14.2314441 L49.5402182,1.03978319 C49.5402182,0.829342425 49.7215329,0.723571152 50.0841622,0.723571152 L52.9374249,0.723571152 C53.3000542,0.723571152 53.4802831,0.829342425 53.4802831,1.03978319 L53.4802831,14.2314441 C53.4802831,14.4418849 53.3000542,14.5476561 52.9374249,14.5476561 L50.0841622,14.5476561 C49.7215329,14.5476561 49.5402182,14.4418849 49.5402182,14.2314441" id="Fill-11" fill="#33BAB3"></path>
                        <path d="M60.6984515,6.63838887 C60.1425647,6.88298493 59.7647354,7.22013087 59.5606207,7.65533558 C59.4021061,7.91866198 59.3109059,8.19520979 59.2881058,8.484979 C59.2663915,8.56320567 59.3228488,8.6028699 59.4585633,8.6028699 L66.2855481,8.6028699 C66.4223484,8.6028699 66.4907485,8.56320567 66.4907485,8.484979 C66.3995483,8.08943851 66.3311482,7.85365672 66.2855481,7.77322648 C66.0825191,7.31268073 65.680804,6.9479902 65.0804029,6.67805309 C64.4800017,6.40811599 63.7276002,6.27259655 62.821027,6.27259655 C61.9611396,6.27259655 61.2532525,6.39489458 60.6984515,6.63838887 M65.6927469,12.4635214 C66.3148624,12.2729127 66.8186348,12.0128917 67.2029785,11.6834582 C67.3169787,11.5787887 67.4635504,11.5270049 67.644865,11.5270049 C67.7588653,11.5270049 67.8609226,11.5457352 67.9510371,11.5853994 L69.5817831,12.3357144 C69.739212,12.4282643 69.8184693,12.5131016 69.8184693,12.5924301 C69.8184693,12.6453157 69.7848121,12.7048121 69.7174976,12.7698173 C69.0606392,13.3757986 68.1660089,13.8495657 67.0336067,14.1911188 C65.9012045,14.5348754 64.5994305,14.705652 63.1271991,14.705652 C61.3379384,14.705652 59.8374784,14.4588523 58.6269046,13.9641513 C57.415245,13.470552 56.5369005,12.7830387 55.9940423,11.9005097 C55.5402128,11.1777393 55.3143838,10.3613173 55.3143838,9.45234543 C55.3143838,8.54337356 55.4381555,7.84704601 55.6878702,7.35895566 C56.1178139,6.42464275 56.9668442,5.68093849 58.2349609,5.12784288 C59.5030777,4.57474726 61.0426236,4.29819946 62.85577,4.29819946 C67.0900639,4.29819946 69.5698402,5.64788497 70.2950988,8.34725599 C70.4080133,8.78025714 70.4872706,9.32123313 70.5328707,9.9668786 C70.5328707,10.1762176 70.351556,10.2819889 69.9900125,10.2819889 L59.4585633,10.2819889 C59.3228488,10.2819889 59.2544486,10.3216531 59.2544486,10.3998798 C59.2544486,10.755756 59.3228488,11.0455252 59.4585633,11.2691874 C59.7071924,11.7429546 60.1827362,12.1120522 60.8851947,12.3753786 C61.5865675,12.638705 62.4594835,12.7698173 63.5006855,12.7698173 C64.3388586,12.7576977 65.06846,12.6552318 65.6927469,12.4635214" id="Fill-13" fill="#33BAB3"></path>
                        <path d="M70.2271329,14.3702689 C70.2271329,14.3173833 70.2607901,14.2512762 70.3291903,14.1719478 L75.6958865,9.57199919 C75.7642866,9.51911355 75.7642866,9.46622791 75.6958865,9.41334228 L70.3291903,4.83212403 C70.2607901,4.75279557 70.2271329,4.68668853 70.2271329,4.63380289 C70.2271329,4.51591199 70.3747904,4.45641565 70.6690195,4.45641565 L73.7263969,4.45641565 C73.997826,4.45641565 74.2127979,4.5225227 74.3713125,4.653635 L77.8369192,7.63616454 C77.8814336,7.66260736 77.9324623,7.67582877 77.9889195,7.67582877 C78.0453768,7.67582877 78.0844626,7.66260736 78.1083483,7.63616454 L81.5392122,4.653635 C81.6749267,4.5225227 81.8898986,4.45641565 82.1852134,4.45641565 L85.479277,4.45641565 C85.7735062,4.45641565 85.9211636,4.51591199 85.9211636,4.63380289 C85.9211636,4.68668853 85.8875064,4.75279557 85.8191062,4.83212403 L80.45241,9.41334228 C80.3840099,9.46622791 80.3840099,9.51911355 80.45241,9.57199919 L85.8191062,14.1719478 C85.8875064,14.2512762 85.9211636,14.3173833 85.9211636,14.3702689 C85.9211636,14.4881598 85.7735062,14.5476561 85.479277,14.5476561 L82.4218996,14.5476561 C82.1276705,14.5476561 81.9126986,14.4826509 81.7769841,14.349335 L78.3461202,11.3679073 C78.3233202,11.3414644 78.2831487,11.328243 78.2266914,11.328243 C78.1702342,11.328243 78.1202912,11.3414644 78.0746911,11.3679073 L74.6090843,14.349335 C74.4505697,14.4826509 74.2355979,14.5476561 73.9630831,14.5476561 L70.6690195,14.5476561 C70.3747904,14.5476561 70.2271329,14.4881598 70.2271329,14.3702689" id="Fill-15" fill="#33BAB3"></path>
                    </g>
                </g>
            </g>
        </g>
    </g>
</svg>