<?xml version="1.0" encoding="UTF-8"?>
<svg width="208px" height="64px" viewBox="0 0 208 64" version="1.1" xmlns="http://www.w3.org/2000/svg" xmlns:xlink="http://www.w3.org/1999/xlink">
    <title>Logo</title>
    <g id="Website" stroke="none" stroke-width="1" fill="none" fill-rule="evenodd">
        <g id="Batilex---Dashboard---Basic-User" transform="translate(-208.000000, 0.000000)">
            <g id="Header" transform="translate(72.000000, 0.000000)">
                <g id="Logo" transform="translate(136.000000, 0.000000)">
                    <polygon id="Container" fill="#3A4049" points="0 64 208 64 208 0 0 0"></polygon>
                    <g id="Icon" transform="translate(30.000000, 15.000000)">
                        <polygon id="02" fill="#FFFFFF" points="11.2993103 9.18068966 11.2993103 25.4234483 20.1268966 25.4234483 20.1268966 13.5330258"></polygon>
                        <polygon id="01" fill="#33BAB3" points="8.82758621 4.70428294e-15 0 4.3591183 0 25.4234483 8.82758621 25.4234483"></polygon>
                    </g>
                    <g id="batilex" transform="translate(65.000000, 21.000000)">
                        <path d="M14.859369,12.5547585 C14.859369,11.1992997 14.4251259,10.1405292 13.5595059,9.37408415 C12.7225489,8.64545229 11.5258722,8.28040919 9.97234235,8.28040919 C8.53776355,8.28040919 7.41704364,8.66290455 6.60874949,9.42789528 C5.8620806,10.1405292 5.48802959,11.1745756 5.48802959,12.5285801 C5.48802959,13.8665867 5.83198455,14.8759091 6.51989446,15.5536385 C7.35685152,16.3695317 8.52199894,16.7782055 10.0167699,16.7782055 C11.7508761,16.7782055 13.0063117,16.3608056 13.7830766,15.5274602 C14.5010826,14.7973739 14.859369,13.8055038 14.859369,12.5547585 M20.240831,12.5038561 C20.240831,13.7022446 19.9713996,14.7886478 19.4325368,15.7616113 C18.774723,16.8916451 17.6984306,17.7817104 16.2050928,18.4332614 C14.7103219,19.0848125 12.9174567,19.4120424 10.825064,19.4120424 C8.70114215,19.4120424 6.99856511,18.959738 5.71160031,18.0551291 C5.65140819,17.9853201 5.58405035,17.9605961 5.51095992,17.9780483 C5.43643635,17.9940462 5.39774141,18.0391312 5.39774141,18.1074859 L5.39774141,18.7852154 C5.39774141,19.0644515 5.15840609,19.2026152 4.68116858,19.2026152 L0.9148618,19.2026152 C0.43619115,19.2026152 0.198288971,19.0644515 0.198288971,18.7852154 L0.198288971,1.37367729 C0.198288971,1.09444113 0.43619115,0.95482305 0.9148618,0.95482305 L4.68116858,0.95482305 C5.15840609,0.95482305 5.39774141,1.09444113 5.39774141,1.37367729 L5.39774141,6.89877194 C5.39774141,6.96858098 5.43643635,7.00784856 5.51095992,7.01512034 C5.58405035,7.02530082 5.65140819,7.0034855 5.71160031,6.94967436 C7.02722802,6.10033104 8.73267135,5.67420503 10.825064,5.67420503 C13.0063117,5.67420503 14.829273,5.99561748 16.295381,6.63844239 C17.7586227,7.2812673 18.8205836,8.17569563 19.4783975,9.32318172 C19.985731,10.2103383 20.240831,11.2691087 20.240831,12.5038561" id="Fill-3" fill="#FFFFFF"></path>
                        <path d="M33.6483385,16.3356452 C34.6931017,15.8833408 35.217633,15.3103249 35.217633,14.6136889 L35.217633,13.4153004 C35.217633,13.3120412 35.1273448,13.2596844 34.9482016,13.2596844 L31.2263224,13.2596844 C29.6412633,13.2596844 28.3858277,13.4327526 27.4600156,13.7803435 C26.5327703,14.1279343 26.0698643,14.6238694 26.0698643,15.2666943 C26.0698643,15.8222579 26.4281507,16.252747 27.1461567,16.5567072 C27.8641627,16.8606674 28.7756433,17.0133747 29.8805986,17.0133747 C31.3467066,17.0133747 32.6021422,16.7879496 33.6483385,16.3356452 M35.9127087,6.24678459 C37.3616189,6.62927995 38.4751731,7.15575646 39.251938,7.82330541 C40.0301361,8.49230871 40.4185186,9.25439073 40.4185186,10.1051884 L40.4185186,18.7862334 C40.4185186,19.0640152 40.1791833,19.2036333 39.7019458,19.2036333 L35.935639,19.2036333 C35.4569684,19.2036333 35.217633,19.0640152 35.217633,18.7862334 L35.217633,18.133228 C35.217633,18.063419 35.1861038,18.0256057 35.1273448,18.0168796 C35.0671527,18.0081535 34.9926292,18.0212427 34.9037741,18.0561472 C33.288619,18.960756 31.1360342,19.411606 28.4460198,19.411606 C26.2332429,19.411606 24.4188805,19.0814675 22.9972,18.4211903 C21.5783858,17.7594588 20.8689787,16.7792235 20.8689787,15.4746671 C20.8689787,14.1206626 21.6815723,13.0633465 23.3124921,12.3070819 C24.9419787,11.5522716 27.2350117,11.1741393 30.1958906,11.1741393 L34.9482016,11.1741393 C35.1273448,11.1741393 35.217633,11.1217825 35.217633,11.0185233 L35.217633,10.4178747 C35.217633,9.7401453 34.8665123,9.21512314 34.1628378,8.84135391 C33.4605965,8.46758467 32.4215659,8.27997288 31.0471792,8.27997288 C29.9995497,8.27997288 29.1339297,8.3890495 28.4460198,8.60720275 C27.7581099,8.82390165 27.2952038,9.12349878 27.0558685,9.50599414 C26.9354843,9.75032578 26.667486,9.86231112 26.2490075,9.84485886 L22.2132693,9.55835092 C21.973934,9.54089866 21.7947908,9.50163108 21.6758397,9.44054817 C21.5554555,9.37946526 21.511028,9.30674751 21.541124,9.21803185 C21.8091223,8.17671367 22.8037254,7.325916 24.5235001,6.66418447 C26.2418418,6.0039073 28.3714962,5.67376872 30.9124635,5.67376872 C32.7956169,5.67376872 34.4609321,5.86574358 35.9127087,6.24678459" id="Fill-5" fill="#FFFFFF"></path>
                        <path d="M53.9601686,8.33232966 L49.6105715,8.33232966 C49.4314283,8.33232966 49.3411402,8.38468644 49.3411402,8.48794564 L49.3411402,14.6413216 C49.3411402,15.3190511 49.5876412,15.80626 50.0806433,16.1014941 C50.5750786,16.3967281 51.3590092,16.543618 52.4353016,16.543618 L53.600449,16.543618 C54.0791197,16.543618 54.318455,16.6832361 54.318455,16.9610179 L54.318455,18.7076982 C54.318455,18.98548 54.0791197,19.1338242 53.600449,19.1498221 L51.4478643,19.1760005 C49.0874734,19.1760005 47.3232711,18.9374863 46.1581237,18.4604579 C44.9915431,17.9819751 44.3924882,17.0904555 44.3638253,15.7873534 L44.3638253,8.48794564 C44.3638253,8.38468644 44.2735371,8.33232966 44.0943939,8.33232966 L41.7626659,8.33232966 C41.2839953,8.33232966 41.0446599,8.19271158 41.0446599,7.91492977 L41.0446599,6.30059572 C41.0446599,6.02135956 41.2839953,5.88174148 41.7626659,5.88174148 L44.0943939,5.88174148 C44.2735371,5.88174148 44.3638253,5.8293847 44.3638253,5.7261255 L44.3638253,2.80578066 C44.3638253,2.52945321 44.6031606,2.38838077 45.0818313,2.38838077 L48.6231342,2.38838077 C49.1003717,2.38838077 49.3411402,2.52945321 49.3411402,2.80578066 L49.3411402,5.7261255 C49.3411402,5.8293847 49.4314283,5.88174148 49.6105715,5.88174148 L53.9601686,5.88174148 C54.4374061,5.88174148 54.6767414,6.02135956 54.6767414,6.30059572 L54.6767414,7.91492977 C54.6767414,8.19271158 54.4374061,8.33232966 53.9601686,8.33232966" id="Fill-7" fill="#FFFFFF"></path>
                        <path d="M56.963612,18.7855062 L56.963612,6.29986855 C56.963612,6.02208674 57.2029473,5.88246866 57.6816179,5.88246866 L61.4479247,5.88246866 C61.9251622,5.88246866 62.1644975,6.02208674 62.1644975,6.29986855 L62.1644975,18.7855062 C62.1644975,19.063288 61.9251622,19.2029061 61.4479247,19.2029061 L57.6816179,19.2029061 C57.2029473,19.2029061 56.963612,19.063288 56.963612,18.7855062 M57.1427552,3.67912084 C56.5164705,3.32280386 56.2011785,2.86759075 56.2011785,2.31057278 C56.2011785,1.75500917 56.5164705,1.30270477 57.1427552,0.955113921 C57.770473,0.607523076 58.577334,0.434454831 59.5633382,0.434454831 C60.5507755,0.434454831 61.3504708,0.607523076 61.962424,0.955113921 C62.5758103,1.30270477 62.8825035,1.75500917 62.8825035,2.31057278 C62.8825035,2.86759075 62.5758103,3.32280386 61.962424,3.67912084 C61.3504708,4.03543781 60.5507755,4.21286912 59.5633382,4.21286912 C58.577334,4.21286912 57.770473,4.03543781 57.1427552,3.67912084" id="Fill-9" fill="#FFFFFF"></path>
                        <path d="M65.3930881,18.7855062 L65.3930881,1.37251381 C65.3930881,1.094732 65.6324234,0.955113921 66.111094,0.955113921 L69.8774008,0.955113921 C70.3560715,0.955113921 70.5939737,1.094732 70.5939737,1.37251381 L70.5939737,18.7855062 C70.5939737,19.063288 70.3560715,19.2029061 69.8774008,19.2029061 L66.111094,19.2029061 C65.6324234,19.2029061 65.3930881,19.063288 65.3930881,18.7855062" id="Fill-11" fill="#33BAB3"></path>
                        <path d="M80.1219559,8.7626733 C79.3881854,9.08554011 78.8894507,9.53057274 78.6200193,10.105043 C78.41078,10.4526338 78.2903958,10.8176769 78.2602997,11.2001723 C78.2316368,11.3034315 78.3061604,11.3557883 78.4853036,11.3557883 L87.4969235,11.3557883 C87.6774998,11.3557883 87.767788,11.3034315 87.767788,11.2001723 C87.6474038,10.6780588 87.5571156,10.3668269 87.4969235,10.260659 C87.2289252,9.65273856 86.6986613,9.17134706 85.9061318,8.81503008 C85.1136022,8.45871311 84.1204323,8.27982744 82.9237557,8.27982744 C81.7887043,8.27982744 80.8542934,8.44126085 80.1219559,8.7626733 M86.7144259,16.4518482 C87.5356184,16.2002448 88.200598,15.857017 88.7079316,15.4221648 C88.8584118,15.2840011 89.0518865,15.2156464 89.2912218,15.2156464 C89.4417021,15.2156464 89.5764178,15.2403705 89.6953689,15.2927273 L91.8479537,16.283143 C92.0557598,16.4053088 92.1603794,16.5172942 92.1603794,16.6220077 C92.1603794,16.6918168 92.1159519,16.7703519 92.0270969,16.8561589 C91.1600438,17.6560541 89.9791318,18.2814268 88.4843608,18.7322768 C86.9895899,19.1860356 85.2712483,19.4114606 83.3279028,19.4114606 C80.9660787,19.4114606 78.9854714,19.0856851 77.387514,18.4326797 C75.7881235,17.7811287 74.6287086,16.8736111 73.9121358,15.7086728 C73.3130809,14.7546159 73.0149866,13.6769388 73.0149866,12.477096 C73.0149866,11.2772531 73.1783652,10.3581007 73.5079887,9.71382147 C74.0755144,8.48052843 75.1962343,7.49883881 76.8701484,6.7687526 C78.5440626,6.03866639 80.5762631,5.67362328 82.9696163,5.67362328 C88.5588844,5.67362328 91.8321891,7.45520816 92.7895304,11.0183779 C92.9385775,11.5899394 93.0431972,12.3040277 93.1033893,13.1562798 C93.1033893,13.4326072 92.864054,13.5722253 92.3868165,13.5722253 L78.4853036,13.5722253 C78.3061604,13.5722253 78.2158722,13.6245821 78.2158722,13.7278413 C78.2158722,14.1975979 78.3061604,14.5800933 78.4853036,14.8753274 C78.8134939,15.5007 79.4412117,15.9879089 80.368457,16.3354998 C81.2942691,16.6830906 82.4465182,16.8561589 83.8209049,16.8561589 C84.9272933,16.840161 85.8903672,16.704906 86.7144259,16.4518482" id="Fill-13" fill="#33BAB3"></path>
                        <path d="M92.6998155,18.968755 C92.6998155,18.8989459 92.744243,18.8116846 92.8345312,18.7069711 L99.9185701,12.6350389 C100.008858,12.5652299 100.008858,12.4954208 99.9185701,12.4256118 L92.8345312,6.37840372 C92.744243,6.27369016 92.6998155,6.18642886 92.6998155,6.11661982 C92.6998155,5.96100383 92.8947233,5.88246866 93.2831057,5.88246866 L97.3188439,5.88246866 C97.6771303,5.88246866 97.9608932,5.96972996 98.1701324,6.14279821 L102.744733,10.0797372 C102.803492,10.1146417 102.87085,10.132094 102.945374,10.132094 C103.019897,10.132094 103.071491,10.1146417 103.10302,10.0797372 L107.63176,6.14279821 C107.810903,5.96972996 108.094666,5.88246866 108.484482,5.88246866 L112.832646,5.88246866 C113.221028,5.88246866 113.415936,5.96100383 113.415936,6.11661982 C113.415936,6.18642886 113.371508,6.27369016 113.28122,6.37840372 L106.197181,12.4256118 C106.106893,12.4954208 106.106893,12.5652299 106.197181,12.6350389 L113.28122,18.7069711 C113.371508,18.8116846 113.415936,18.8989459 113.415936,18.968755 C113.415936,19.1243709 113.221028,19.2029061 112.832646,19.2029061 L108.796907,19.2029061 C108.408525,19.2029061 108.124762,19.1170992 107.945619,18.9411222 L103.416879,15.0056376 C103.386783,14.9707331 103.333756,14.9532808 103.259233,14.9532808 C103.184709,14.9532808 103.118784,14.9707331 103.058592,15.0056376 L98.4839913,18.9411222 C98.2747521,19.1170992 97.9909892,19.2029061 97.6312697,19.2029061 L93.2831057,19.2029061 C92.8947233,19.2029061 92.6998155,19.1243709 92.6998155,18.968755" id="Fill-15" fill="#33BAB3"></path>
                    </g>
                </g>
            </g>
        </g>
    </g>
</svg>