<?xml version="1.0" standalone="no"?>
<!DOCTYPE svg PUBLIC "-//W3C//DTD SVG 20010904//EN"
 "http://www.w3.org/TR/2001/REC-SVG-20010904/DTD/svg10.dtd">
<svg version="1.0" xmlns="http://www.w3.org/2000/svg"
 width="1152.000000pt" height="1152.000000pt" viewBox="0 0 1152.000000 1152.000000"
 preserveAspectRatio="xMidYMid meet">
<metadata>
Created by potrace 1.11, written by Peter Selinger 2001-2013
</metadata>
<g transform="translate(0.000000,1152.000000) scale(0.100000,-0.100000)"
fill="#000000" stroke="none">
<path d="M1040 5760 l0 -5760 4720 0 4720 0 0 5760 0 5760 -4720 0 -4720 0 0
-5760z m4470 1035 l0 -2865 -990 0 -990 0 0 2378 0 2378 458 226 c1107 549
1507 747 1515 747 4 1 7 -1288 7 -2864z m1580 308 l990 -488 0 -1347 0 -1348
-1000 0 -1000 0 0 1835 c0 1261 3 1835 10 1835 6 0 456 -219 1000 -487z
m-1034 -4832 c102 -46 98 -143 -8 -186 -57 -23 -179 -23 -233 -1 -60 26 -85
53 -85 96 0 41 24 70 80 94 52 23 194 21 246 -3z m-3412 -27 c3 -9 6 -90 6
-180 0 -106 4 -164 10 -164 6 0 21 6 33 14 75 48 234 71 386 56 241 -25 393
-118 448 -275 25 -73 22 -203 -6 -277 -26 -66 -95 -148 -156 -183 -186 -110
-516 -122 -673 -25 -18 11 -34 20 -37 20 -2 0 -5 -15 -7 -32 l-3 -33 -155 0
-155 0 -3 535 c-1 294 0 541 3 548 3 9 43 12 154 12 126 0 150 -2 155 -16z
m3941 -534 l0 -535 -147 -3 -148 -3 0 534 c0 294 3 537 7 541 4 3 70 5 147 4
l141 -3 0 -535z m-1301 460 c24 -9 25 -13 28 -107 l3 -98 155 -5 155 -5 3 -67
3 -67 -158 -3 -158 -3 -3 -205 c-2 -187 0 -208 17 -236 23 -38 77 -54 183 -54
40 0 79 -4 86 -9 9 -5 12 -28 10 -77 l-3 -69 -185 0 c-195 1 -265 12 -336 56
-67 41 -68 47 -74 334 l-5 260 -98 3 -98 3 3 67 3 67 95 5 95 5 3 102 c3 96 4
102 25 106 44 9 226 7 251 -3z m-879 -211 c171 -26 299 -93 343 -179 22 -44
22 -51 20 -330 l-3 -285 -152 -3 -152 -3 -7 28 c-3 16 -6 31 -7 35 -1 4 -22
-2 -47 -13 -98 -45 -188 -61 -340 -62 -305 -3 -472 80 -472 233 0 127 106 206
330 246 50 8 157 13 305 14 l227 0 0 46 c0 90 -73 128 -250 128 -126 0 -178
-14 -230 -60 l-38 -35 -139 11 c-76 6 -144 13 -150 15 -21 7 -15 39 16 76 103
124 432 185 746 138z m3185 -14 c95 -23 202 -80 251 -132 56 -61 98 -154 106
-236 l6 -67 -449 -2 c-426 -3 -449 -4 -452 -21 -10 -51 35 -115 107 -151 73
-37 146 -49 267 -44 116 6 182 24 255 73 21 14 44 25 52 25 19 0 157 -68 157
-78 0 -13 -83 -70 -137 -93 -193 -83 -582 -81 -765 4 -95 43 -152 98 -195 183
-36 73 -38 82 -37 169 0 80 4 100 27 148 60 121 205 204 412 237 84 13 317 4
395 -15z m-1505 -385 l0 -395 -155 0 -155 0 -3 385 c-1 212 0 391 3 398 3 10
40 12 157 10 l153 -3 0 -395z m2157 391 c13 -6 86 -64 162 -130 77 -67 146
-121 154 -121 7 0 79 57 160 128 l146 127 149 3 c87 2 154 -1 159 -6 6 -6 -70
-78 -211 -198 -122 -104 -220 -192 -219 -196 2 -4 26 -27 54 -50 28 -24 127
-108 219 -188 l169 -145 -148 -3 c-117 -2 -153 1 -170 12 -11 8 -77 64 -146
125 -69 61 -133 111 -142 111 -9 0 -74 -50 -144 -111 -70 -61 -137 -117 -149
-125 -18 -11 -56 -14 -181 -12 l-159 3 223 189 c122 104 222 193 222 196 0 4
-99 92 -220 195 -120 104 -217 192 -214 197 7 11 257 10 286 -1z"/>
<path d="M2855 1814 c-92 -24 -142 -59 -178 -128 -17 -33 -21 -58 -21 -126 0
-123 37 -186 134 -229 119 -51 296 -27 366 51 46 50 59 89 59 178 0 69 -5 93
-23 127 -24 46 -68 84 -126 108 -38 16 -175 28 -211 19z"/>
<path d="M4113 1510 c-165 -18 -243 -76 -202 -152 44 -81 344 -90 475 -13 55
32 66 53 62 118 l-3 52 -130 1 c-71 1 -162 -2 -202 -6z"/>
<path d="M7260 1821 c-98 -18 -157 -56 -191 -123 -23 -45 -24 -64 -3 -72 25
-10 558 -7 573 3 22 14 -1 79 -42 119 -61 59 -221 94 -337 73z"/>
</g>
</svg>
