<?xml version="1.0" standalone="no"?>
<!DOCTYPE svg PUBLIC "-//W3C//DTD SVG 1.1//EN" "http://www.w3.org/Graphics/SVG/1.1/DTD/svg11.dtd" >
<svg xmlns="http://www.w3.org/2000/svg" xmlns:xlink="http://www.w3.org/1999/xlink" version="1.1">
<metadata>
Created by FontForge 20170731 at Wed Sep 23 07:29:55 2020
 By Aleksey,,,
2013 Matthew Anderson
</metadata>
<defs>
<font id="Klima-Black" horiz-adv-x="1105" >
  <font-face 
    font-family="Klima"
    font-weight="900"
    font-style="italic"
    font-stretch="normal"
    units-per-em="2048"
    panose-1="0 11 10 4 0 0 0 0 0 4"
    ascent="1565"
    descent="-483"
    x-height="1008"
    cap-height="1454"
    bbox="-786 -682 3434 2394"
    underline-thickness="327"
    underline-position="-828"
    slope="8"
    unicode-range="U+0008-F8FF"
  />
<missing-glyph horiz-adv-x="1239" 
d="M102 -246v1721h1024v-1721h-1024zM205 -143h819v1515h-819v-1515z" />
    <glyph glyph-name="tflogo" unicode="&#x3c;&#x2d;&#x33;&#x35;&#x30;" horiz-adv-x="3604" 
d="M1149 737q122 -118 133 -285t-92 -300q-102 -128 -272.5 -168t-319.5 28q-81 38 -162 123q-49 59 -108 154q-11 20 6 37q177 124 201 131q27 15 43 6q7 -10 35 -42t38 -46q89 -93 172 -86q49 6 87 38.5t44 80.5q6 53 -17 98.5t-67 60.5q-12 5 -27.5 8.5t-27 5t-30 3.5
t-29.5 4q-82 10 -90 59q-8 68 6 166v5q0 12 1 18t6.5 14t19 12t36.5 6q114 19 156 47q35 25 47 73.5t-4 84.5q-15 41 -51.5 63.5t-87.5 22.5q-68 0 -115 -39q-35 -26 -84 -92q-29 -20 -53 -6q-18 14 -88 75t-80 68q-7 7 -9 17.5t3 17.5q21 40 82.5 113t132.5 112
q85 42 209 43.5t223 -43.5q96 -46 161 -129t85 -186q15 -100 -13.5 -199t-99.5 -174zM2939 1466q132 0 246 -63.5t181.5 -174.5t67.5 -241v-545q0 -131 -67.5 -243t-181.5 -177t-246 -65q-99 0 -190 38.5t-157.5 103.5t-106.5 155t-40 188v545q0 98 40 187t106.5 152.5
t157.5 101.5t190 38zM2781 1001v-591q0 -62 46 -107t112 -45t112 45t46 107v591q0 62 -46.5 108t-111.5 46t-111.5 -46t-46.5 -108zM2329 676q16 -42 24 -82.5t9 -62.5t1 -68q0 -180 -96 -301q-58 -73 -143 -123.5t-180 -65.5q-115 -21 -231 2t-202 88q-91 62 -157 127
q-21 31 6 58t143 160q23 23 33 25.5t31 -11.5q28 -28 82 -68q53 -38 120 -55t113 -10q68 18 98.5 52.5t44.5 80.5q13 48 2 110.5t-49 96.5q-36 36 -88.5 50t-105.5 3q-35 -10 -64.5 -34.5t-79.5 -80.5q-10 -10 -19 -12.5t-14 -1.5t-16.5 5.5t-17.5 6.5q-8 3 -79.5 34
t-98.5 42q-21 21 -21 35q4 14 54 330t63 405q0 2 2 9.5t2.5 9.5t2.5 8t3.5 8t5 5.5t7.5 5t10 2.5t14 1h672q31 0 31 -28v-240q-12 -27 -31 -27h-1h-1h-1h-1h-1h-1h-1h-1h-1h-1h-1h-1h-1h-1h-1h-1h-1h-1h-1h-1h-1h-1h-1h-1h-1h-1h-1h-1h-1h-1h-1h-1h-1h-1h-1h-1h-1h-1h-1h-1
h-1h-1h-1h-1h-1h-1h-1h-1h-1h-1h-1h-1h-1h-1h-1h-1h-1h-1h-1h-1h-1h-1h-1h-1h-1h-1h-1h-1h-1h-1h-1h-1h-1h-1h-1h-1h-1h-1h-1h-1h-2h-1h-1h-1h-1h-1h-1h-1h-1h-2h-1h-1h-1h-1h-1h-2h-1h-1h-1h-1h-1h-2h-1h-1h-1h-1h-2h-1h-1h-1h-2h-1h-1h-1h-2h-1h-1h-1h-2h-1h-1h-1h-2h-1
h-1h-2h-1h-1h-2h-1h-1h-1h-2h-1h-1h-2h-1h-1h-2h-1h-2h-1h-1h-2h-1h-1h-2h-1h-2h-1h-1h-2h-1h-2h-1h-1h-2h-1h-2h-1h-1h-2h-1h-2h-1h-2h-1h-2h-1h-1h-2h-1h-2h-1h-2h-1h-2h-1h-2h-1h-2h-1h-2h-1h-2h-1h-2h-1h-2h-2h-1h-2h-1h-2h-1h-2h-1h-2h-1h-2h-2h-1h-2h-1h-2h-2h-1h-2
h-1h-2h-1h-2h-2h-1h-2h-2h-1h-2h-1h-2h-2h-1h-2h-2h-1h-2h-2h-1h-2h-2h-1h-2h-2h-1h-2h-2h-1h-2h-2h-1h-2h-2h-2h-1h-2h-2h-1h-2h-2h-2h-1h-2h-2h-2h-1h-2h-2h-2h-1h-2h-2h-2h-2h-1h-2h-2h-2h-2h-1h-2h-2h-2h-2h-1h-2h-2h-2h-2h-2h-1h-2h-2h-2h-2h-2h-2h-1h-2h-2h-2h-2h-2
h-2h-2h-2h-2h-1h-2h-2h-2h-2h-2h-2h-2h-2h-2h-2h-2h-2h-2h-2h-9q-3 -17 -19.5 -128t-19.5 -128q52 36 137.5 41.5t174.5 -18.5t171.5 -91.5t121.5 -164.5zM453 655q0 -21 -11 -34t-32 -13h-164v-186q0 -24 -25 -35h-10q-21 0 -35 14l-246 322q-6 6 -6 20.5t6 20.5l246 319
q6 11 20.5 16t24.5 1t17.5 -15t7.5 -22v-195h180q10 0 18.5 -13t8.5 -28v-172z" />
    <glyph glyph-name="C_O_2" unicode="CO&#x32;" horiz-adv-x="3477" 
d="M2570 369q11 42 25 76t39 70t57.5 59.5t82 39t110.5 15.5q125 0 209 -71t102 -173q11 -60 -2 -118t-44.5 -104t-66.5 -81.5t-76 -63.5q-71 -49 -87.5 -68t-16.5 -46h299v-211h-625q0 157 25 230t117 161q42 40 111.5 93t96.5 85t27 74q0 26 -23 44.5t-61 18.5
q-34 0 -54.5 -23.5t-25.5 -60.5q0 -2 -54.5 11.5t-109.5 27.5zM750 510h411q-13 -107 -52 -196t-95.5 -150.5t-127.5 -104t-148.5 -62.5t-159.5 -20q-87 0 -170.5 24t-160 76t-134 126t-91.5 182t-34 236v206q0 306 172 484q78 81 186 124.5t232 43.5q123 0 231 -44.5
t186 -127.5q137 -143 164 -361h-409q-18 66 -59.5 111t-112.5 45q-39 0 -70 -12t-50.5 -33.5t-33.5 -47t-20.5 -56.5t-9.5 -56.5t-3 -52.5v-242q0 -23 2.5 -48.5t14 -63.5t30 -67t55 -50t85.5 -21q127 0 172 158zM2300 1309q170 -182 170 -480v-208q0 -129 -33 -237
t-89.5 -182t-132.5 -125.5t-160.5 -75.5t-174.5 -24q-87 0 -170.5 24t-160 76t-134 126t-91.5 182t-34 236v208q0 306 172 484q78 81 186 124.5t232 43.5q123 0 232 -44.5t188 -127.5zM1694 840v-236q0 -19 2 -39.5t8 -51.5t19 -57.5t32 -51t51.5 -38.5t73.5 -14
q48 0 83.5 19.5t54.5 47t30.5 64.5t14.5 65t3 56v236q0 44 -7 83t-25 82.5t-57.5 69t-96.5 25.5t-96.5 -25.5t-57.5 -69t-25 -82.5t-7 -83z" />
    <glyph glyph-name=".notdef" horiz-adv-x="1239" 
d="M102 -246v1721h1024v-1721h-1024zM205 -143h819v1515h-819v-1515z" />
    <glyph glyph-name=".null" horiz-adv-x="0" 
 />
    <glyph glyph-name="nonmarkingreturn" horiz-adv-x="682" 
 />
    <glyph glyph-name="controlBS" horiz-adv-x="0" 
 />
    <glyph glyph-name="CR" unicode="&#xd;" horiz-adv-x="430" 
 />
    <glyph glyph-name="space" unicode=" " horiz-adv-x="430" 
 />
    <glyph glyph-name="exclam" unicode="!" horiz-adv-x="555" 
d="M0 1454h428v-500l-123 -536h-182l-123 536v500zM215 317q64 0 115 -49.5t51 -115.5t-51 -116t-115 -50t-115 50t-51 116t51 115.5t115 49.5z" />
    <glyph glyph-name="quotedbl" unicode="&#x22;" horiz-adv-x="940" 
d="M850 1290q0 -51 -33 -100l-178 -240h-164v340q0 77 55.5 132t133.5 55q76 0 131 -55t55 -132zM375 1290q0 -51 -33 -100l-178 -240h-164v340q0 77 55 132t133 55q76 0 131.5 -55.5t55.5 -131.5z" />
    <glyph glyph-name="numbersign" unicode="#" horiz-adv-x="1236" 
d="M1071 989h-188l-33 -158h188l-43 -225h-190l-57 -268h-285l57 268h-188l-56 -268h-282l57 268h-147l51 225h141l33 158h-149l51 228h145l47 237h285l-47 -237h184l49 237h283l-47 -237h182zM567 831l31 158h-186l-33 -158h188z" />
    <glyph glyph-name="dollar" unicode="$" horiz-adv-x="1239" 
d="M1044 668q54 -70 72 -152t6 -155t-47 -146q-31 -70 -115 -132.5t-206 -88.5v-180h-385v184q-256 49 -406 227l287 256q74 -76 149 -115.5t189 -39.5q63 0 96 24t33 80q0 48 -49 81.5t-113 50.5t-157.5 44.5t-151.5 57.5q-113 56 -180 164.5t-60 244.5q8 135 99 240.5
t264 140.5v203h385v-219q107 -29 187.5 -85t150.5 -139l-293 -208q-27 55 -106 97t-161 42q-65 0 -106 -23t-41 -71q0 -49 48 -77t183 -69q64 -20 99 -31.5t89 -33.5t90 -43.5t76.5 -55t73.5 -73.5z" />
    <glyph glyph-name="percent" unicode="%" horiz-adv-x="1662" 
d="M-25 1114q0 167 95 266t252 99q159 0 253.5 -96.5t94.5 -264.5q0 -187 -87 -285t-259 -98q-169 0 -259 103.5t-90 275.5zM326 1280q-119 0 -119 -182q0 -176 119 -176q61 0 89.5 43.5t28.5 136.5q0 178 -118 178zM874 358q0 167 95 266t252 99q159 0 253.5 -96.5
t94.5 -264.5q0 -187 -87 -284.5t-259 -97.5q-169 0 -259 103t-90 275zM1225 524q-117 0 -117 -182q0 -89 28 -132.5t89 -43.5t89.5 43.5t28.5 136.5q0 178 -118 178zM1063 1454h305l-879 -1454h-305z" />
    <glyph glyph-name="ampersand" unicode="&#x26;" horiz-adv-x="1310" 
d="M180 63q-84 51 -137 136.5t-61 181.5q-8 114 37.5 214.5t168.5 192.5q-82 86 -115.5 177t-23 169.5t56.5 149.5q61 95 179 148t245 38q135 -14 220.5 -83.5t123.5 -172.5q22 -57 24.5 -115.5t-16 -118.5t-69.5 -117t-131 -101l186 -176l121 133l232 -213l-131 -137
l131 -125l-195 -193l-119 111q-49 -57 -129.5 -100.5t-177.5 -66.5t-209.5 -7t-210.5 75zM426 610q-57 -44 -76.5 -110t15.5 -138q25 -44 80 -59.5t119.5 3t115.5 67.5q-4 -3 -115.5 103.5t-138.5 133.5zM406 1151q-23 -24 -27 -50.5t10.5 -55.5t32 -51t47.5 -54
q41 24 68 55.5t35.5 69.5t-15.5 76q-26 40 -71 42.5t-80 -32.5z" />
    <glyph glyph-name="quotesingle" unicode="'" horiz-adv-x="444" 
d="M375 1300q0 -51 -33 -100l-178 -239h-164v339q0 77 55 132t133 55q76 0 131.5 -55.5t55.5 -131.5z" />
    <glyph glyph-name="parenleft" unicode="(" horiz-adv-x="778" 
d="M317 -305q-157 214 -246 498t-89 557q0 264 72.5 520.5t211.5 455.5l307 -186q-117 -167 -181 -373t-64 -417q0 -224 70.5 -439.5t203.5 -394.5z" />
    <glyph glyph-name="parenright" unicode=")" horiz-adv-x="696" 
d="M244 -305l-285 221q133 179 203.5 394.5t70.5 439.5q0 211 -64 417t-181 373l307 186q139 -199 212 -456t73 -520q0 -272 -89 -556.5t-247 -498.5z" />
    <glyph glyph-name="asterisk" unicode="*" horiz-adv-x="692" 
d="M565 1147l-168 -51l103 -146l-168 -121l-107 144l-104 -144l-168 123l102 144l-168 51l70 199l164 -56v178h209v-178l170 56z" />
    <glyph glyph-name="plus" unicode="+" horiz-adv-x="1239" 
d="M1090 877v-365h-363v-362h-365v362h-362v365h362v362h365v-362h363z" />
    <glyph glyph-name="comma" unicode="," horiz-adv-x="514" 
d="M375 154q0 -52 -33 -101l-178 -239h-164v340q0 77 55 131.5t133 54.5q77 0 132 -55t55 -131z" />
    <glyph glyph-name="hyphen" unicode="-" horiz-adv-x="1073" 
d="M0 831h889v-323h-889v323z" />
    <glyph glyph-name="period" unicode="." horiz-adv-x="514" 
d="M170 346q71 0 127.5 -54t56.5 -128t-57 -129t-127 -55t-126 55t-56 129t56 128t126 54zM-786 1618zM-786 1612v0v0zM-782 1604v0v0zM-727 1407v0v0zM-641 1804q-1 0 -3.5 -2t-2.5 -4t6 -2q2 0 2 2q0 6 -2 6z" />
    <glyph glyph-name="slash" unicode="/" horiz-adv-x="983" 
d="M571 1452h371l-614 -1452h-371z" />
    <glyph glyph-name="zero" unicode="0" horiz-adv-x="1228" 
d="M1069 410q-10 -59 -34.5 -116.5t-69 -114.5t-103 -99.5t-143.5 -69t-184 -26.5q-98 0 -183 29.5t-141.5 74.5t-101 103.5t-68 109.5t-35.5 100q-30 135 -29.5 326.5t27.5 333.5q33 176 182 297t349 121q207 0 359 -115.5t175 -298.5q22 -169 23.5 -335.5t-23.5 -319.5z
M711 958q-3 49 -19 88t-55.5 68t-97.5 29q-44 0 -77.5 -16t-52.5 -43.5t-29.5 -55.5t-14.5 -59q-7 -60 -7 -210t9 -237q27 -200 174 -200q51 0 86 18.5t52.5 52.5t25 65.5t10.5 73.5q5 93 2.5 220t-6.5 206z" />
    <glyph glyph-name="one" unicode="1" horiz-adv-x="735" 
d="M0 1366l172 88h369v-1454h-385v1069l-156 -70v367z" />
    <glyph glyph-name="two" unicode="2" horiz-adv-x="1132" 
d="M-14 1085q21 81 61 148.5t101 122.5t150.5 86t197.5 31q204 0 327 -99.5t152 -263.5q8 -44 8.5 -86t-5.5 -77.5t-19 -69.5t-28.5 -62t-38 -56.5t-44 -50.5t-49.5 -45.5t-51.5 -41t-53.5 -37.5q-235 -162 -235 -252h549v-332h-1012q0 94 7.5 164.5t30 153t70.5 158.5
t123 147q54 51 120.5 100t112 80t86.5 66t62 74t21 87q0 57 -44.5 92t-111.5 25q-56 -9 -89.5 -49.5t-41.5 -100.5q0 -3 -89 19t-178 46z" />
    <glyph glyph-name="three" unicode="3" horiz-adv-x="1120" 
d="M754 776q16 0 45 -10.5t67 -39t70 -68.5t51.5 -108.5t13.5 -150.5q-12 -163 -128 -280.5t-302 -134.5q-101 -10 -190.5 1t-171.5 45t-147 102t-103 165l348 154q29 -62 66.5 -95.5t111.5 -33.5q69 0 106.5 38.5t37.5 106.5q0 53 -34.5 86.5t-92.5 44.5q-27 6 -58 6h-75
v291h63q73 0 109.5 36t36.5 93q0 52 -37 88.5t-90 36.5q-68 0 -103 -35q-38 -30 -59 -98l-297 153q15 34 35.5 67t62 78t91 78.5t125 57t161.5 23.5q5 0 13.5 0.5t34.5 -1t52.5 -5t63.5 -13t70.5 -22.5t70 -36t66 -52t55 -71t39.5 -93q26 -100 12 -176t-54 -126.5t-78 -76
t-58 -25.5z" />
    <glyph glyph-name="four" unicode="4" horiz-adv-x="1179" 
d="M1059 588v-338h-133v-250h-351v250h-606v338l545 866h412v-866h133zM582 590v424l-271 -424h271z" />
    <glyph glyph-name="five" unicode="5" horiz-adv-x="1144" 
d="M596 979q96 0 172 -27.5t133.5 -85t88.5 -152t32 -222.5q0 -127 -37 -227t-103.5 -162.5t-155.5 -95t-196 -32.5q-108 0 -196.5 24.5t-145.5 61t-100.5 88t-65.5 97.5t-36 96l376 111q8 -49 45.5 -92.5t102.5 -43.5q73 0 114.5 47.5t41.5 129.5q0 80 -41.5 127t-114.5 47
q-57 0 -99.5 -34.5t-50.5 -80.5l-344 70l25 831h903v-301h-563l-10 -266q0 3 7.5 12.5t25.5 23.5t42.5 26t64 21t85.5 9z" />
    <glyph glyph-name="six" unicode="6" horiz-adv-x="1091" 
d="M471 -23q-180 0 -315.5 104t-176.5 288t68 436q50 108 133 270t141 271l58 108h440l-346 -567q9 15 38 24.5t70 8.5t89 -10t97.5 -33t92 -58.5t76 -89t47.5 -121.5q20 -85 15 -165t-26 -150t-66.5 -128.5t-106 -100.5t-145 -64.5t-183.5 -22.5zM629 473q0 81 -37.5 127.5
t-108.5 46.5q-68 0 -106.5 -51t-38.5 -121q0 -72 37 -123.5t108 -50.5q146 6 146 172z" />
    <glyph glyph-name="seven" unicode="7" horiz-adv-x="1056" 
d="M-18 1454h960v-301l-457 -1153h-419l458 1106h-542v348z" />
    <glyph glyph-name="eight" unicode="8" horiz-adv-x="1120" 
d="M1008 362q-8 -63 -28 -117t-59 -104.5t-94 -86t-137.5 -56.5t-185.5 -21q-128 0 -225.5 28t-158.5 78.5t-95 112.5t-45 138q-20 135 45.5 249.5t187.5 164.5q-92 58 -145 158t-35 212q6 49 26 97t57.5 95.5t88.5 83.5t126 58.5t163 22.5q189 0 314 -95.5t150 -232.5
q9 -49 10 -92t-7 -77t-16.5 -61.5t-27 -51.5t-31 -39t-36 -32t-34 -24t-32.5 -20q24 -8 54 -28t63.5 -55.5t60 -78.5t40.5 -103t6 -123zM352 1030q6 -56 54 -96.5t106 -52.5q151 65 117 209q-8 32 -42.5 60.5t-92.5 25.5q-67 -3 -107 -46.5t-35 -99.5zM645 430
q-3 34 -15.5 61.5t-27.5 44t-37.5 31t-37.5 20.5t-35 13t-23 8q-147 -69 -129 -202q5 -49 43.5 -87t112.5 -38q73 0 113.5 46t35.5 103z" />
    <glyph glyph-name="nine" unicode="9" horiz-adv-x="1128" 
d="M489 1477q206 0 349.5 -102t180.5 -283.5t-73 -432.5q-50 -108 -132 -273t-139 -276l-57 -110h-378l260 528q-20 -10 -60.5 -12t-95 3.5t-112.5 30t-109.5 63.5t-90.5 108.5t-52 159.5q-19 138 13 252.5t103.5 188.5t172.5 114.5t220 40.5zM344 991q0 -80 37.5 -127
t114.5 -47q70 0 106.5 50t36.5 120q0 77 -34.5 130.5t-110.5 53.5q-150 0 -150 -180z" />
    <glyph glyph-name="colon" unicode=":" horiz-adv-x="471" 
d="M178 987q71 0 127.5 -54.5t56.5 -127.5q0 -74 -57 -129t-127 -55t-126 55t-56 129t56 128t126 54zM176 352q71 0 127.5 -54t56.5 -128t-57 -129t-127 -55t-126 55t-56 129t56 128t126 54z" />
    <glyph glyph-name="semicolon" unicode=";" horiz-adv-x="471" 
d="M375 143q0 -51 -33 -100l-178 -240h-164v340q0 77 55 132t133 55q76 0 131.5 -55t55.5 -132zM178 987q71 0 127.5 -54.5t56.5 -127.5q0 -74 -57 -129t-127 -55t-126 55t-56 129t56 128t126 54z" />
    <glyph glyph-name="less" unicode="&#x3c;" horiz-adv-x="948" 
d="M614 49l-616 367v264l616 367l160 -261l-393 -239l393 -230z" />
    <glyph glyph-name="equal" unicode="=" horiz-adv-x="1239" 
d="M0 530h1104v-309h-1104v309zM0 1083h1104v-309h-1104v309z" />
    <glyph glyph-name="greater" unicode="&#x3e;" horiz-adv-x="899" 
d="M137 49l-160 268l394 230l-394 239l160 261l617 -367v-264z" />
    <glyph glyph-name="question" unicode="?" horiz-adv-x="1087" 
d="M594 410h-305q0 253 217 409q66 45 94.5 87t28.5 98q0 51 -45.5 90t-98.5 39q-60 0 -105.5 -28.5t-53.5 -96.5h-336q0 106 41.5 193.5t111.5 144t160 87.5t189 31q194 0 324 -116.5t155 -298.5q9 -64 -3.5 -123.5t-33 -100t-60.5 -85t-65 -66.5t-69 -57q-21 -17 -31 -25
q-64 -50 -89.5 -92.5t-25.5 -89.5zM440 311q64 0 115 -50t51 -116t-51 -115.5t-115 -49.5t-115 49.5t-51 115.5t51 116t115 50z" />
    <glyph glyph-name="at" unicode="@" horiz-adv-x="1748" 
d="M786 1466q375 0 577 -210.5t202 -589.5q0 -227 -88 -371q-50 -75 -120.5 -117.5t-148.5 -42.5q-73 0 -131 36.5t-110 107.5q-16 22 -32.5 62.5t-16.5 41.5q-2 -13 -10 -29t-26 -36t-53.5 -32.5t-83.5 -11.5q-87 1 -155.5 31.5t-111 83t-64 120.5t-21.5 146
q0 157 95.5 263t250.5 106q63 0 116 -33.5t56 -70.5l4 77l181 -12l-27 -330v-34q1 -134 19 -183q25 -68 94 -76q58 -4 84 70.5t26 235.5q0 108 -22.5 195.5t-56 144t-82 98.5t-93 63.5t-97.5 34.5t-86.5 16t-68.5 3q-94 0 -172 -21t-132.5 -55t-96.5 -82.5t-67 -98.5
t-41 -107.5t-21.5 -105.5t-5.5 -96q0 -82 16 -158t54.5 -148t95.5 -125t145.5 -85t198.5 -32q63 0 109.5 5.5t61.5 11.5l15 5l16 -40t31.5 -78t35.5 -88t13 -34q-60 -15 -129.5 -22.5t-108.5 -7.5h-40q-186 0 -339.5 62t-258.5 183q-193 217 -193 551q0 342 187 553
q105 120 269.5 188t356.5 68zM866 651q6 176 -98 176q-51 2 -85.5 -44.5t-37.5 -129.5q-3 -85 27.5 -128.5t79.5 -45.5q49 0 81 43.5t33 128.5z" />
    <glyph glyph-name="A" unicode="A" horiz-adv-x="1325" 
d="M848 0l-47 176h-408l-55 -176h-397l454 1454h396l454 -1454h-397zM473 492h248l-129 450z" />
    <glyph glyph-name="B" unicode="B" horiz-adv-x="1249" 
d="M891 762q57 -18 101.5 -54.5t70 -81.5t38.5 -92.5t13 -93.5q0 -67 -17.5 -128t-59 -118.5t-103.5 -100t-158 -68t-215 -25.5h-561v1454h508q118 0 212 -24.5t154.5 -64.5t100.5 -96t57 -115.5t17 -125.5q0 -58 -13 -108t-50 -96t-95 -62zM492 1153h-130v-274h130
q37 0 65.5 5t57 18t44 42t15.5 72q0 137 -182 137zM532 309q30 0 54 2.5t52 11.5t47 24.5t31.5 44t12.5 67.5q0 46 -19 78.5t-51 47.5t-62.5 21t-64.5 6h-170v-303h170z" />
    <glyph glyph-name="C" unicode="C" horiz-adv-x="1298" 
d="M750 510h411q-13 -107 -52 -196t-95.5 -150.5t-127.5 -104t-148.5 -62.5t-159.5 -20q-87 0 -170.5 24t-160 76t-134 126t-91.5 182t-34 236v206q0 306 172 484q78 81 186 124.5t232 43.5q123 0 231 -44.5t186 -127.5q137 -143 164 -361h-409q-18 66 -59.5 111t-112.5 45
q-39 0 -70 -12t-50.5 -33.5t-33.5 -47t-20.5 -56.5t-9.5 -56.5t-3 -52.5v-242q0 -23 2.5 -48.5t14 -63.5t30 -67t55 -50t85.5 -21q127 0 172 158z" />
    <glyph glyph-name="D" unicode="D" horiz-adv-x="1308" 
d="M997 1288q170 -173 170 -463v-207q0 -124 -33 -228t-88.5 -175t-130.5 -120.5t-157.5 -72t-171.5 -22.5h-586v1454h586q253 0 411 -166zM768 618v207q0 32 -4.5 62.5t-17.5 65.5t-33.5 61t-56 43.5t-81.5 17.5h-178v-698h178q47 0 83.5 18.5t56.5 45t32.5 61t16.5 62.5
t4 54z" />
    <glyph glyph-name="E" unicode="E" horiz-adv-x="1153" 
d="M977 1100h-580v-207h437v-330h-437v-207h580v-356h-977v1454h977v-354z" />
    <glyph glyph-name="F" unicode="F" horiz-adv-x="1136" 
d="M977 1092h-578v-222h435v-329h-435v-541h-399v1452h977v-360z" />
    <glyph glyph-name="G" unicode="G" horiz-adv-x="1298" 
d="M1157 807v-240q0 -121 -35 -222t-93 -168t-134.5 -113t-157.5 -66.5t-164 -20.5q-87 0 -170 24t-159.5 75.5t-134 125t-91.5 181t-34 235.5v209q0 304 172 482q78 81 186 124.5t231 43.5t230.5 -44.5t187.5 -127.5q137 -143 164 -361h-410q-18 67 -59.5 113.5
t-112.5 46.5q-46 0 -81 -18t-54 -44.5t-30.5 -63.5t-15 -67.5t-3.5 -64.5v-248q0 -19 2 -38.5t7.5 -50.5t18.5 -57t32 -50t51 -38t73 -14q85 0 128.5 50t43.5 122h-149v285h561z" />
    <glyph glyph-name="H" unicode="H" horiz-adv-x="1300" 
d="M725 1454h399v-1454h-399v553h-326v-553h-399v1454h399v-547h326v547z" />
    <glyph glyph-name="I" unicode="I" horiz-adv-x="585" 
d="M0 1454h397v-1454h-397v1454z" />
    <glyph glyph-name="J" unicode="J" horiz-adv-x="1146" 
d="M969 1454v-854q0 -130 -34 -236t-91 -176.5t-135 -118t-162.5 -68.5t-177.5 -21q-114 0 -222 41.5t-192 123.5l287 287q57 -65 127 -65q48 0 84.5 16t55.5 39t30.5 55.5t14.5 57.5t3 53v866h412z" />
    <glyph glyph-name="K" unicode="K" horiz-adv-x="1347" 
d="M399 438v-438h-399v1454h399v-424l318 424h512l-490 -608l549 -846h-475l-338 532z" />
    <glyph glyph-name="L" unicode="L" horiz-adv-x="1185" 
d="M397 1454v-1092h647v-362h-1044v1454h397z" />
    <glyph glyph-name="M" unicode="M" horiz-adv-x="1576" 
d="M995 1454h432v-1454h-397v629l-207 -504h-229l-195 463v-588h-399v1454h430l279 -637z" />
    <glyph glyph-name="N" unicode="N" horiz-adv-x="1404" 
d="M1206 1454v-1454h-422l-387 690v-690h-397v1454h422l387 -692v692h397z" />
    <glyph glyph-name="O" unicode="O" horiz-adv-x="1318" 
d="M989 1309q170 -182 170 -480v-208q0 -129 -33 -237t-89.5 -182t-132.5 -125.5t-160.5 -75.5t-174.5 -24q-87 0 -170.5 24t-160 76t-133.5 126t-91 182t-34 236v208q0 306 172 484q78 81 186 124.5t231 43.5t232 -44.5t188 -127.5zM383 840v-236q0 -19 2 -39.5t8 -51.5
t19 -57.5t32 -51t51.5 -38.5t73.5 -14q48 0 84 19.5t55 47t30.5 64.5t14.5 65t3 56v236q0 34 -3.5 65t-15.5 68t-31.5 64t-55 45t-81.5 18q-57 0 -96.5 -25.5t-57.5 -69t-25 -82.5t-7 -83z" />
    <glyph glyph-name="P" unicode="P" horiz-adv-x="1228" 
d="M522 1454q123 0 222 -29.5t163 -78.5t107 -116t61.5 -139.5t18.5 -152.5q0 -77 -18.5 -148.5t-62 -139t-107.5 -117t-163 -79.5t-221 -30h-123v-424h-399v1454h522zM522 766q193 0 193 176q0 42 -12.5 73.5t-32 50t-46.5 29.5t-51 15t-51 4h-123v-348h123z" />
    <glyph glyph-name="Q" unicode="Q" horiz-adv-x="1361" 
d="M1190 49l-295 -242l-160 195q-83 -22 -166 -22q-87 0 -170 24t-159 75.5t-133 125t-91 181t-34 235.5v206q0 304 172 482q78 82 185 125t230 43t230.5 -44.5t187.5 -127.5q172 -178 172 -478v-206q0 -240 -115 -404zM385 600q0 -24 2.5 -49.5t13.5 -63.5t29.5 -66.5
t54.5 -49.5t84 -21q40 0 72 13t51.5 35.5t33 47.5t19.5 55.5t8.5 53t2.5 45.5v244q0 27 -3 52.5t-9.5 56.5t-20.5 56.5t-33.5 47t-50.5 33.5t-70 12q-46 0 -80.5 -18t-53.5 -44.5t-31 -63.5t-15.5 -68t-3.5 -64v-244z" />
    <glyph glyph-name="R" unicode="R" horiz-adv-x="1257" 
d="M1126 0h-432l-194 442h-101v-442h-399v1454h516q123 0 221.5 -29.5t164 -78.5t109 -116t62.5 -139.5t19 -152.5q0 -121 -58.5 -231.5t-171.5 -182.5zM399 1106v-332h115q195 0 195 166q0 49 -19 83.5t-50 51.5t-62 24t-64 7h-115z" />
    <glyph glyph-name="S" unicode="S" horiz-adv-x="1179" 
d="M569 918q116 -24 159 -38q316 -109 300 -466q-9 -202 -160 -322q-148 -117 -387 -117q-141 0 -301 53.5t-248 153.5l-16 21l262 260l23 -21q39 -45 123.5 -71.5t148.5 -26.5q61 0 104.5 21t43.5 71q0 23 -4.5 36.5t-20.5 30.5t-53 31t-97 27q-76 16 -139.5 38.5
t-124.5 60.5t-103 87.5t-67.5 121.5t-25.5 159q0 132 74.5 236t191.5 157.5t252 53.5q167 0 298 -48.5t208 -132.5l18 -20l-256 -244l-18 19q-93 77 -242 77q-41 0 -74.5 -7.5t-58.5 -29.5t-25 -57q0 -38 48 -63.5t167 -50.5z" />
    <glyph glyph-name="T" unicode="T" horiz-adv-x="1269" 
d="M1169 1452v-360h-385v-1092h-399v1092h-385v360h1169z" />
    <glyph glyph-name="U" unicode="U" horiz-adv-x="1320" 
d="M762 1454h399v-844q0 -127 -33 -232.5t-88.5 -178t-130.5 -123t-157.5 -73.5t-171.5 -23q-86 0 -167.5 23.5t-157 74t-132 123t-90 178t-33.5 231.5v844h397v-879q0 -23 2.5 -48t13.5 -62.5t29 -65.5t54 -48.5t84 -20.5q47 0 82.5 19t53.5 45.5t29.5 63t14 63t2.5 54.5
v879z" />
    <glyph glyph-name="V" unicode="V" horiz-adv-x="1390" 
d="M1292 1452l-469 -1452h-415l-469 1452h415l260 -864l263 864h415z" />
    <glyph glyph-name="W" unicode="W" horiz-adv-x="1851" 
d="M735 0h-405l-359 1454h408l160 -688l139 651h387l143 -651l160 688h406l-375 -1454h-387l-138 600z" />
    <glyph glyph-name="X" unicode="X" horiz-adv-x="1402" 
d="M-47 0l436 750l-416 704h463l185 -311l182 311h465l-416 -704l440 -750h-461l-210 358l-213 -358h-455z" />
    <glyph glyph-name="Y" unicode="Y" horiz-adv-x="1341" 
d="M1251 1454l-465 -924v-530h-405v530l-449 924h443l217 -481l215 481h444z" />
    <glyph glyph-name="Z" unicode="Z" horiz-adv-x="1284" 
d="M1145 1094l-647 -734h647v-360h-1145v360l662 734h-662v360h1145v-360z" />
    <glyph glyph-name="bracketleft" unicode="[" horiz-adv-x="747" 
d="M549 -217h-549v1853h549v-305h-248v-1243h248v-305z" />
    <glyph glyph-name="backslash" unicode="\" horiz-adv-x="983" 
d="M328 1452l614 -1452h-371l-614 1452h371z" />
    <glyph glyph-name="bracketright" unicode="]" horiz-adv-x="688" 
d="M0 -217v305h248v1243h-248v305h549v-1853h-549z" />
    <glyph glyph-name="asciicircum" unicode="^" horiz-adv-x="802" 
d="M588 1030l-234 160l-231 -158l-146 154l246 268h269l239 -283z" />
    <glyph glyph-name="underscore" unicode="_" horiz-adv-x="1239" 
d="M0 0h1155v-219h-1155v219z" />
    <glyph glyph-name="grave" unicode="`" horiz-adv-x="759" 
d="M442 1614l176 -432h-286l-250 223z" />
    <glyph glyph-name="a" unicode="a" horiz-adv-x="1095" 
d="M932 0h-357v80q-2 -4 -5.5 -10.5t-22 -23t-43 -29t-71.5 -23t-105 -10.5q-95 0 -174.5 32.5t-130 99t-50.5 156.5v23q0 330 508 330h84q1 5 2 13t-2 28.5t-11.5 36.5t-32 29t-58.5 13h-68q-109 0 -194 -75l-172 221q151 139 409 139h49q32 0 64.5 -3t78 -13t85.5 -26.5
t81 -46.5t70 -69.5t47.5 -99t18.5 -131.5v-336v-305zM563 412h-76q-172 0 -172 -93q0 -41 34.5 -59t78.5 -18q64 0 99.5 38.5t35.5 86.5v45z" />
    <glyph glyph-name="b" unicode="b" horiz-adv-x="1163" 
d="M0 1454h393v-522q23 43 84.5 70.5t132.5 27.5q78 0 151 -28.5t134 -84.5t98 -150.5t37 -213.5v-90q0 -111 -36 -203.5t-95.5 -151t-134.5 -90.5t-154 -32q-69 0 -140.5 21.5t-104.5 66.5v-74h-365v1454zM385 573v-141q0 -61 35 -95t86 -34q49 0 84 34t35 95v141
q0 64 -33 103t-86 39q-57 0 -89 -39.5t-32 -102.5z" />
    <glyph glyph-name="c" unicode="c" horiz-adv-x="1019" 
d="M578 385l344 -106q-35 -96 -105 -164t-160 -100.5t-194 -32.5q-91 0 -176 32t-153 90.5t-109 151t-41 203.5v90q0 97 28 178t74.5 136t109 93t129.5 55t138 17q94 0 179 -32.5t156 -103t107 -171.5l-327 -98q-27 88 -115 88q-53 0 -86 -39t-33 -103v-141q0 -62 35 -96.5
t84 -34.5q42 0 73.5 22.5t41.5 65.5z" />
    <glyph glyph-name="d" unicode="d" horiz-adv-x="1171" 
d="M1008 1454v-1454h-365v74q-33 -45 -105 -66.5t-141 -21.5q-79 0 -154 32t-134.5 90.5t-95.5 151t-36 203.5v90q0 119 37 213.5t98 150.5t134 84.5t151 28.5q71 0 132.5 -27.5t84.5 -70.5v522h394zM623 573q0 63 -32 102.5t-89 39.5q-53 0 -86 -39t-33 -103v-141
q0 -61 35 -95t84 -34q51 0 86 34t35 95v141z" />
    <glyph glyph-name="e" unicode="e" horiz-adv-x="1071" 
d="M928 510v-119h-615q0 -42 49 -77t119 -35q38 0 63 2.5t62.5 17t69.5 41.5q22 -23 121 -113t104 -96q-163 -149 -455 -149q-90 0 -175 32t-153.5 90.5t-110.5 151t-42 203.5v90q0 97 28 178t74.5 136t109 93t130.5 55t139 17q72 0 137.5 -14.5t130 -52t111 -94.5
t75 -148.5t28.5 -208.5zM440 750q-65 0 -96 -36.5t-31 -92.5h265q0 55 -36 92t-102 37z" />
    <glyph glyph-name="f" unicode="f" horiz-adv-x="757" 
d="M467 1014v-6h137v-263h-137v-745h-397v745h-103v263h103v6q0 227 104 333t324 111h106v-311q-137 9 -137 -133z" />
    <glyph glyph-name="g" unicode="g" horiz-adv-x="1196" 
d="M1022 1008v-1008q0 -148 -80.5 -258.5t-206 -164.5t-274.5 -54q-272 0 -453 151q5 5 47.5 58t91.5 115t56 71q81 -68 215 -68q209 0 209 160v60q-23 -42 -85.5 -69.5t-133.5 -27.5q-62 0 -121 17.5t-114 55.5t-96.5 92.5t-66 136t-24.5 178.5v100q0 111 36.5 202
t96.5 147.5t134.5 87t154.5 30.5q65 0 125 -21t94 -67v76h395zM514 287q57 0 88 39.5t31 103.5v141q0 63 -34.5 97t-84.5 34q-51 0 -86 -34t-35 -97v-141q0 -64 34 -103.5t87 -39.5z" />
    <glyph glyph-name="h" unicode="h" horiz-adv-x="1189" 
d="M393 578v-578h-393v1454h393v-518q23 42 88 70t137 28q87 0 159 -24t131 -75t91.5 -140.5t32.5 -210.5q0 -576 -2 -584h-403v578q0 64 -34 102.5t-87 38.5q-56 0 -84.5 -38.5t-28.5 -102.5z" />
    <glyph glyph-name="i" unicode="i" horiz-adv-x="573" 
d="M0 1008h399v-1008h-399v1008zM0 1454h399v-301h-399v301z" />
    <glyph glyph-name="j" unicode="j" horiz-adv-x="659" 
d="M88 1454h397v-301h-397v301zM88 1008h397v-1012q0 -148 -77 -261.5t-202 -169t-272 -48.5v331q69 -4 111.5 40.5t42.5 117.5v1002z" />
    <glyph glyph-name="k" unicode="k" horiz-adv-x="1138" 
d="M1063 0h-453l-192 317l-25 -30v-287h-393v1454h393v-690l154 244h473l-385 -451z" />
    <glyph glyph-name="l" unicode="l" horiz-adv-x="569" 
d="M0 1454h395v-1454h-395v1454z" />
    <glyph glyph-name="m" unicode="m" horiz-adv-x="1789" 
d="M1192 1042q61 0 120 -15t116.5 -49t101 -84t70 -126.5t26.5 -169.5v-598h-395v604q0 53 -30 87t-79 34q-52 0 -85 -36t-33 -97q0 -23 0.5 -169t1 -284t0.5 -139h-396v582q0 67 -27.5 105t-76.5 38q-56 0 -89.5 -39.5t-33.5 -103.5v-582h-383v1008h365v-62q23 42 89 69
t142 27q77 0 151 -35t127 -112q102 147 318 147z" />
    <glyph glyph-name="n" unicode="n" horiz-adv-x="1171" 
d="M385 584v-584h-385v1008h365v-60q23 42 92 70.5t141 28.5q84 0 155.5 -25t129.5 -78t91.5 -144.5t33.5 -213.5v-586h-396v584q0 65 -33 105t-85 40q-55 0 -82 -39.5t-27 -105.5z" />
    <glyph glyph-name="o" unicode="o" horiz-adv-x="1097" 
d="M467 1030q71 0 138 -15.5t130 -51t110.5 -88t76 -132t28.5 -176.5v-123q0 -91 -27 -167.5t-73.5 -130.5t-108 -92t-131 -56t-143.5 -18q-73 0 -142 18t-131 56.5t-108 92.5t-73 130.5t-27 166.5v123q0 97 28 176.5t75 132t110 88t130 51t138 15.5zM467 713q-53 0 -87 -39
t-34 -103v-143q0 -63 35 -97t86 -34t86 34t35 97v143q0 63 -32 102.5t-89 39.5z" />
    <glyph glyph-name="p" unicode="p" horiz-adv-x="1161" 
d="M389 -418h-389v1426h365v-74q29 42 92 64t147 22q80 0 153.5 -29t132.5 -84t94.5 -143.5t35.5 -198.5v-104q0 -119 -36.5 -212t-97.5 -148t-133 -83t-149 -28q-70 0 -131 27t-84 69v-504zM381 580v-142q0 -62 31.5 -100.5t87.5 -38.5q53 0 85.5 38t32.5 101v142
q0 60 -34 93.5t-84 33.5t-84.5 -33.5t-34.5 -93.5z" />
    <glyph glyph-name="q" unicode="q" horiz-adv-x="1175" 
d="M610 -418v504q-23 -42 -84 -69t-131 -27q-77 0 -149 28t-132.5 83t-97 148t-36.5 212v104q0 88 23 163t63 128t93 90.5t113 55.5t123 18q84 0 147.5 -22t92.5 -64v74h364v-1426h-389zM618 580q0 60 -34 93.5t-84 33.5t-84.5 -33.5t-34.5 -93.5v-142q0 -63 33 -101t86 -38
q56 0 87 38.5t31 100.5v142z" />
    <glyph glyph-name="r" unicode="r" horiz-adv-x="888" 
d="M653 655q-48 39 -127 39q-60 0 -100.5 -37.5t-40.5 -105.5v-551h-385v1008h367v-93q18 47 88 79t141 32q118 0 215 -63z" />
    <glyph glyph-name="s" unicode="s" horiz-adv-x="1044" 
d="M160 358l12 -8q12 -9 16.5 -12t18.5 -12.5t22.5 -14.5t24.5 -13.5t27.5 -13t28.5 -11t31.5 -9.5t32 -5.5t34.5 -2.5h41q36 0 56.5 13t20.5 30q0 30 -27 41.5t-153 38.5q-91 19 -157.5 55.5t-100 80.5t-48.5 84t-15 79v41q0 142 124 222.5t322 80.5q139 0 241.5 -38.5
t161.5 -92.5l-176 -219q-6 6 -17.5 15t-51.5 28t-84 26q-66 11 -119 1t-53 -42q0 -16 10 -25.5t35 -16.5t53.5 -12t79 -15.5t98.5 -24.5q130 -38 196 -115t66 -172v-40q0 -129 -129 -216.5t-329 -87.5q-155 0 -267.5 30t-228.5 126z" />
    <glyph glyph-name="t" unicode="t" horiz-adv-x="722" 
d="M573 737h-124v-299q0 -73 28.5 -103.5t89.5 -27.5v-311h-118q-181 0 -280 80t-99 233v428h-101v271h101v307h379v-307h124v-271z" />
    <glyph glyph-name="u" unicode="u" horiz-adv-x="1212" 
d="M645 424v584h399v-1008h-380v61q-22 -41 -92.5 -65.5t-145.5 -24.5q-64 0 -123 14.5t-115 48.5t-97 85t-66 130t-25 177v582h410v-584q0 -64 33.5 -103.5t86.5 -39.5q56 0 85.5 39.5t29.5 103.5z" />
    <glyph glyph-name="v" unicode="v" horiz-adv-x="1167" 
d="M729 0h-428l-340 1008h418l137 -598l139 598h416z" />
    <glyph glyph-name="w" unicode="w" horiz-adv-x="1638" 
d="M655 0h-440l-258 1008h401l125 -502l119 502h330l115 -502l118 502h385l-278 -1008h-406l-104 340z" />
    <glyph glyph-name="x" unicode="x" horiz-adv-x="1161" 
d="M-35 0l342 502l-346 506h469l88 -185l90 185h469l-348 -506l344 -502h-469l-86 172l-84 -172h-469z" />
    <glyph glyph-name="y" unicode="y" horiz-adv-x="1142" 
d="M1047 1008l-422 -1192q-39 -104 -110.5 -173t-156.5 -95t-176 -20.5t-176 42.5l80 280q122 -46 185 13.5t34 152.5l-348 992h410l135 -568l135 568h410z" />
    <glyph glyph-name="z" unicode="z" horiz-adv-x="1028" 
d="M868 1008v-303l-356 -379h371v-326h-883v291l385 393h-369v324h852z" />
    <glyph glyph-name="braceleft" unicode="{" horiz-adv-x="798" 
d="M657 -213l-149 6q-110 0 -196 63t-130 161t-45 210q-1 142 -15 207t-44 96q-43 45 -141 45v293q110 0 143 41q41 52 41 168q-3 56 -0.5 123t10 127.5t33 120.5t67.5 102q52 54 128.5 87.5t162.5 33.5h135v-276h-28q-116 0 -180 -64q-12 -11 -19 -31t-9.5 -53.5t-3.5 -55
t0 -67.5t1 -59q1 -53 -6 -102.5t-24.5 -100.5t-53.5 -88t-88 -51q52 -15 87.5 -50t52.5 -83t23.5 -95.5t4.5 -101.5v-95t9.5 -94t29.5 -79q23 -35 74 -49.5t91 -11.5l39 2v-279z" />
    <glyph glyph-name="bar" unicode="|" horiz-adv-x="430" 
d="M0 1618h313v-1823h-313v1823z" />
    <glyph glyph-name="braceright" unicode="}" horiz-adv-x="839" 
d="M0 -213v279q6 -1 15.5 -1.5t36 0.5t50 5t51 16.5t44.5 32.5q23 27 35 99.5t10 146.5q-2 54 5 105.5t24 105t53 93t88 54.5q-52 14 -88 51t-53.5 88t-24.5 100.5t-6 102.5q0 58 -0.5 80.5t-3.5 69t-11.5 72.5t-23.5 40q-68 68 -172 68h-29v276h135q86 0 162.5 -33.5
t128.5 -87.5q19 -19 34.5 -41t26.5 -49.5t19 -49t12.5 -56.5t7 -54t3 -58.5t1 -54.5t-0.5 -58t-1 -52q0 -105 50 -168q33 -41 143 -41v-295q-104 0 -143 -41q-30 -31 -41.5 -92.5t-10.5 -210.5q1 -209 -102.5 -325.5t-278.5 -116.5h-145z" />
    <glyph glyph-name="asciitilde" unicode="~" horiz-adv-x="1392" 
d="M862 569q-60 0 -119.5 20t-100.5 44t-100 43t-118 18q-47 0 -110 -31t-105 -81q1 0 -4 -5t-10 -11l-5 -5l-235 223q95 111 208.5 179.5t231.5 68.5q83 0 154 -19t110.5 -42.5t84.5 -42.5t81 -19q37 1 68 10.5t54 26t36.5 30t30.5 34.5t22 26l254 -219
q-111 -120 -212.5 -184t-215.5 -64z" />
    <glyph glyph-name="nbspace" unicode="&#xa0;" horiz-adv-x="614" 
 />
    <glyph glyph-name="exclamdown" unicode="&#xa1;" horiz-adv-x="593" 
d="M0 -430v500l123 536h182l123 -536v-500h-428zM215 707q-64 0 -115 49.5t-51 115.5t51 116t115 50t115 -50t51 -116t-51 -115.5t-115 -49.5z" />
    <glyph glyph-name="cent" unicode="&#xa2;" horiz-adv-x="1085" 
d="M678 356l209 -59q-8 -34 -20.5 -65t-35.5 -70.5t-58.5 -71t-83 -59t-117.5 -43t-154 -15.5q-25 0 -37 2l-51 -211h-193l62 261q-117 64 -182.5 191.5t-65.5 289.5q0 231 130 378.5t351 147.5h8l49 213h211l-63 -256q42 -20 78 -48t64 -64t45.5 -64t39.5 -68l-213 -90
l-15 31q-15 32 -27.5 48.5t-30.5 25.5l-136 -547h4q180 0 232 143zM193 485q0 -122 71 -196l119 487q-85 -6 -137.5 -96.5t-52.5 -194.5z" />
    <glyph glyph-name="sterling" unicode="&#xa3;" horiz-adv-x="1175" 
d="M750 461l301 -156l-15 -55q-15 -38 -31 -69.5t-45 -68.5t-62 -62.5t-83 -42.5t-108 -17q-32 0 -64.5 9.5t-49 18t-45.5 27t-34 21.5q-16 11 -33.5 16t-29 5.5t-41.5 0.5h-4q-15 0 -45 -18t-50 -43l-92 -103l-219 297l100 64q1 0 10 8t17.5 15t22 21t24.5 27.5t23.5 32.5
t21 38t15 43t7.5 48t-4.5 52.5t-17.5 56.5q-3 0 -4.5 1t-3 3.5t-2.5 3.5h-217v334h98q-18 118 19 217q14 44 48.5 90.5t86.5 91t130 72.5t165 28q156 0 333 -94l62 -31v-368l-172 92q-75 43 -124.5 62t-94.5 16t-80 -35q-42 -40 -8 -141h270v-334l-160 -4q60 -152 -26 -250
q35 9 88 -14q32 -12 54.5 -7t36 21.5t20.5 34t10 31.5z" />
    <glyph glyph-name="yen" unicode="&#xa5;" horiz-adv-x="1363" 
d="M1262 1454l-396 -817h269v-164h-332v-131h332v-172h-332v-170h-434v170h-314v172h314v131h-314v164h254l-381 817h523l149 -504l154 504h508z" />
    <glyph glyph-name="brokenbar" unicode="&#xa6;" horiz-adv-x="593" 
d="M18 887v731h402v-731h-402zM20 -178l-2 731h402v-731h-400z" />
    <glyph glyph-name="dieresis" unicode="&#xa8;" horiz-adv-x="974" 
d="M688 1497q59 0 106.5 -47t47.5 -109t-47 -106.5t-107 -44.5t-108 44.5t-48 106.5t48 109t108 47zM248 1497q59 0 106 -47t47 -109t-46.5 -106.5t-106.5 -44.5t-108 44.5t-48 106.5t48 109t108 47z" />
    <glyph glyph-name="guillemotleft" unicode="&#xab;" horiz-adv-x="1353" 
d="M948 68l-383 381v194l383 383l211 -213l-268 -266l268 -266zM573 281l-211 -213l-382 381v194l382 383l211 -213l-268 -266z" />
    <glyph glyph-name="macron" unicode="&#xaf;" horiz-adv-x="878" 
d="M41 1475h795v-250h-795v250z" />
    <glyph glyph-name="degree" unicode="&#xb0;" horiz-adv-x="587" 
d="M252 1481q109 0 197 -83.5t88 -197.5t-88 -198t-197 -84q-108 0 -194.5 83.5t-86.5 198.5q0 114 86.5 197.5t194.5 83.5zM254 1294q-37 0 -66.5 -28.5t-29.5 -67.5t29.5 -67.5t66.5 -28.5t66.5 28.5t29.5 67.5t-29.5 67.5t-66.5 28.5z" />
    <glyph glyph-name="acute" unicode="&#xb4;" horiz-adv-x="770" 
d="M35 1169l176 433l360 -209l-249 -224h-287z" />
    <glyph glyph-name="periodcentered" unicode="&#xb7;" horiz-adv-x="385" 
d="M190 930q73 0 132 -58.5t59 -136.5t-58.5 -134t-132.5 -56t-134 56t-60 134t60 136.5t134 58.5z" />
    <glyph glyph-name="cedilla" unicode="&#xb8;" horiz-adv-x="628" 
d="M305 -66q46 -12 82 -38t56.5 -57.5t33 -68.5t11 -72t-8.5 -67q-36 -106 -123.5 -150t-197.5 -20l-135 37l55 203q124 -35 147 -39q46 -13 62 19q8 39 -43 55l-148 39l60 225h118z" />
    <glyph glyph-name="guillemotright" unicode="&#xbb;" horiz-adv-x="1185" 
d="M-20 813l210 213l383 -381v-194l-383 -383l-210 213l268 266zM565 813l211 213l383 -381v-194l-383 -383l-211 213l269 266z" />
    <glyph glyph-name="questiondown" unicode="&#xbf;" horiz-adv-x="1101" 
d="M365 598h305q0 -254 -217 -410q-66 -45 -94.5 -86.5t-28.5 -97.5q0 -51 45 -90t98 -39q60 0 106 28.5t54 96.5h336q0 -140 -71.5 -246t-184.5 -158.5t-246 -52.5q-194 0 -323 116.5t-156 299.5q-13 79 1.5 146t58.5 122.5t74 83.5t88 73l15 12t12 9.5t13 10.5
q64 50 89.5 92.5t25.5 89.5zM518 702q-64 0 -115 50t-51 116t51 116t115 50t115 -50t51 -116t-51 -116t-115 -50z" />
    <glyph glyph-name="Agrave" unicode="&#xc0;" horiz-adv-x="1345" 
d="M848 0l-47 176h-408l-55 -176h-397l454 1454h396l454 -1454h-397zM473 492h248l-129 450zM590 1978l176 -432h-287l-250 223z" />
    <glyph glyph-name="Aacute" unicode="&#xc1;" horiz-adv-x="1345" 
d="M848 0l-47 176h-408l-55 -176h-397l454 1454h396l454 -1454h-397zM473 492h248l-129 450zM459 1534l176 432l360 -209l-250 -223h-286z" />
    <glyph glyph-name="Acircumflex" unicode="&#xc2;" horiz-adv-x="1345" 
d="M848 0l-47 176h-408l-55 -176h-397l454 1454h396l454 -1454h-397zM473 492h248l-129 450zM850 1530l-234 160l-231 -158l-145 133l245 289h269l239 -303z" />
    <glyph glyph-name="Atilde" unicode="&#xc3;" horiz-adv-x="1345" 
d="M848 0l-47 176h-408l-55 -176h-397l454 1454h396l454 -1454h-397zM473 492h248l-129 450zM838 1536q-60 0 -106.5 14.5t-73 33t-70.5 37.5t-96 26q-104 13 -170 -76q1 0 -36.5 15.5t-75.5 30.5l-38 15q13 113 93.5 199t193.5 86q60 0 114 -15t87.5 -34t76 -38t80.5 -24
q51 -7 83 18t54 79l176 -74q-13 -109 -97 -201t-195 -92z" />
    <glyph glyph-name="Adieresis" unicode="&#xc4;" horiz-adv-x="1345" 
d="M848 0l-47 176h-408l-55 -176h-397l454 1454h396l454 -1454h-397zM473 492h248l-129 450zM817 1874q59 0 106.5 -47t47.5 -109t-47 -106.5t-107 -44.5t-107.5 44.5t-47.5 106.5t48 109t107 47zM377 1874q59 0 106 -47t47 -109t-46.5 -106.5t-106.5 -44.5t-108 44.5
t-48 106.5t48 109t108 47z" />
    <glyph glyph-name="Aring" unicode="&#xc5;" horiz-adv-x="1345" 
d="M848 0l-47 176h-408l-55 -176h-397l454 1454h396l454 -1454h-397zM473 492h248l-129 450zM596 1903q87 0 156 -67t69 -157q0 -91 -69.5 -158t-155.5 -67t-154.5 67t-68.5 158t68.5 157.5t154.5 66.5zM528 1681q0 -28 21 -48.5t49 -20.5t48 20.5t20 48.5t-20 48t-48 20
t-49 -20t-21 -48z" />
    <glyph glyph-name="AE" unicode="&#xc6;" horiz-adv-x="1636" 
d="M1087 354h420v-354h-671l-37 174h-434l-66 -174h-397l557 1454h983v-354h-506l43 -211h434v-326h-369zM465 492h248l-95 448z" />
    <glyph glyph-name="Ccedilla" unicode="&#xc7;" horiz-adv-x="1298" 
d="M1149 502q-28 -230 -165 -363.5t-329 -161.5l7 -10q102 -36 141.5 -128.5t15.5 -178.5q-33 -108 -121.5 -152.5t-201.5 -17.5l-136 35l56 203q124 -33 147 -39q47 -12 64 22l1 5v8t-1.5 10t-5.5 11t-12.5 9.5t-20.5 7.5l-150 39l41 176q-99 14 -187.5 59t-161 120.5
t-115 193.5t-42.5 264v205q0 311 170 484q164 170 420 170q123 0 230.5 -44.5t185.5 -125.5q140 -149 164 -365h-408q-50 160 -172 160q-47 0 -82 -18.5t-54.5 -45.5t-31 -65t-15 -68.5t-3.5 -64.5v-238q0 -26 2.5 -51t13.5 -63.5t29.5 -66.5t55 -48.5t85.5 -20.5
q39 0 69 13.5t49.5 38t31.5 48t22 54.5h414z" />
    <glyph glyph-name="Egrave" unicode="&#xc8;" horiz-adv-x="1153" 
d="M977 1100h-580v-207h437v-330h-437v-207h580v-356h-977v1454h977v-354zM553 1978l176 -432h-287l-249 223z" />
    <glyph glyph-name="Eacute" unicode="&#xc9;" horiz-adv-x="1153" 
d="M977 1100h-580v-207h437v-330h-437v-207h580v-356h-977v1454h977v-354zM262 1534l176 432l361 -209l-250 -223h-287z" />
    <glyph glyph-name="Ecircumflex" unicode="&#xca;" horiz-adv-x="1153" 
d="M977 1100h-580v-207h437v-330h-437v-207h580v-356h-977v1454h977v-354zM713 1522l-234 159l-231 -157l-146 133l246 289h268l240 -304z" />
    <glyph glyph-name="Edieresis" unicode="&#xcb;" horiz-adv-x="1153" 
d="M977 1100h-580v-207h437v-330h-437v-207h580v-356h-977v1454h977v-354zM707 1862q59 0 106 -47t47 -109t-46.5 -107t-106.5 -45t-108 45t-48 107t48 109t108 47zM266 1862q59 0 106.5 -47t47.5 -109t-47 -107t-107 -45t-107.5 45t-47.5 107t48 109t107 47z" />
    <glyph glyph-name="Igrave" unicode="&#xcc;" horiz-adv-x="585" 
d="M0 1454h397v-1454h-397v1454zM174 1978l176 -432h-287l-249 223z" />
    <glyph glyph-name="Iacute" unicode="&#xcd;" horiz-adv-x="585" 
d="M0 1454h397v-1454h-397v1454zM43 1534l176 432l361 -209l-250 -223h-287z" />
    <glyph glyph-name="Icircumflex" unicode="&#xce;" horiz-adv-x="585" 
d="M0 1454h397v-1454h-397v1454zM432 1526l-233 160l-232 -158l-145 133l246 289h268l239 -303z" />
    <glyph glyph-name="Idieresis" unicode="&#xcf;" horiz-adv-x="585" 
d="M0 1454h397v-1454h-397v1454zM426 1862q59 0 106.5 -47t47.5 -109t-47 -107t-107 -45t-108 45t-48 107t48 109t108 47zM-14 1862q59 0 106 -47t47 -109t-46.5 -107t-106.5 -45t-108 45t-48 107t48 109t108 47z" />
    <glyph glyph-name="Eth" unicode="&#xd0;" horiz-adv-x="1374" 
d="M1206 1180q103 -179 103 -469q0 -209 -37.5 -325.5t-122.5 -205.5q-89 -94 -205.5 -137t-322.5 -43h-498v578h-170v294h170v582h450q179 0 301.5 -31t198.5 -89t133 -154zM625 352q160 0 227.5 90.5t67.5 302.5q0 365 -273 365h-151v-238h209v-294h-209v-226h129z" />
    <glyph glyph-name="Ntilde" unicode="&#xd1;" horiz-adv-x="1404" 
d="M1206 1454v-1454h-422l-387 690v-690h-397v1454h422l387 -692v692h397zM801 1563q-60 0 -106.5 14.5t-73 33t-70.5 37t-96 25.5q-104 13 -170 -76q1 0 -36.5 15.5t-75.5 31.5l-38 15q13 113 93.5 199t193.5 86q60 0 114 -15t87.5 -34t76 -38t80.5 -24q52 -7 84.5 17.5
t53.5 78.5l176 -74q-13 -109 -97.5 -200.5t-195.5 -91.5z" />
    <glyph glyph-name="Ograve" unicode="&#xd2;" horiz-adv-x="1318" 
d="M989 1309q170 -182 170 -480v-208q0 -129 -33 -237t-89.5 -182t-132.5 -125.5t-160.5 -75.5t-174.5 -24q-87 0 -170.5 24t-160 76t-133.5 126t-91 182t-34 236v208q0 306 172 484q78 81 186 124.5t231 43.5t232 -44.5t188 -127.5zM383 840v-236q0 -19 2 -39.5t8 -51.5
t19 -57.5t32 -51t51.5 -38.5t73.5 -14q48 0 84 19.5t55 47t30.5 64.5t14.5 65t3 56v236q0 34 -3.5 65t-15.5 68t-31.5 64t-55 45t-81.5 18q-57 0 -96.5 -25.5t-57.5 -69t-25 -82.5t-7 -83zM588 1978l176 -432h-287l-250 223z" />
    <glyph glyph-name="Oacute" unicode="&#xd3;" horiz-adv-x="1316" 
d="M989 1309q170 -182 170 -480v-208q0 -129 -33 -237t-89.5 -182t-132.5 -125.5t-160.5 -75.5t-174.5 -24q-87 0 -170.5 24t-160 76t-133.5 126t-91 182t-34 236v208q0 306 172 484q78 81 186 124.5t231 43.5t232 -44.5t188 -127.5zM383 840v-236q0 -19 2 -39.5t8 -51.5
t19 -57.5t32 -51t51.5 -38.5t73.5 -14q48 0 84 19.5t55 47t30.5 64.5t14.5 65t3 56v236q0 34 -3.5 65t-15.5 68t-31.5 64t-55 45t-81.5 18q-57 0 -96.5 -25.5t-57.5 -69t-25 -82.5t-7 -83zM371 1534l176 432l360 -209l-250 -223h-286z" />
    <glyph glyph-name="Ocircumflex" unicode="&#xd4;" horiz-adv-x="1318" 
d="M989 1309q170 -182 170 -480v-208q0 -129 -33 -237t-89.5 -182t-132.5 -125.5t-160.5 -75.5t-174.5 -24q-87 0 -170.5 24t-160 76t-133.5 126t-91 182t-34 236v208q0 306 172 484q78 81 186 124.5t231 43.5t232 -44.5t188 -127.5zM383 840v-236q0 -19 2 -39.5t8 -51.5
t19 -57.5t32 -51t51.5 -38.5t73.5 -14q48 0 84 19.5t55 47t30.5 64.5t14.5 65t3 56v236q0 34 -3.5 65t-15.5 68t-31.5 64t-55 45t-81.5 18q-57 0 -96.5 -25.5t-57.5 -69t-25 -82.5t-7 -83zM799 1526l-234 160l-231 -158l-146 133l246 289h268l240 -303z" />
    <glyph glyph-name="Otilde" unicode="&#xd5;" horiz-adv-x="1318" 
d="M989 1309q170 -182 170 -480v-208q0 -129 -33 -237t-89.5 -182t-132.5 -125.5t-160.5 -75.5t-174.5 -24q-87 0 -170.5 24t-160 76t-133.5 126t-91 182t-34 236v208q0 306 172 484q78 81 186 124.5t231 43.5t232 -44.5t188 -127.5zM383 840v-236q0 -19 2 -39.5t8 -51.5
t19 -57.5t32 -51t51.5 -38.5t73.5 -14q48 0 84 19.5t55 47t30.5 64.5t14.5 65t3 56v236q0 34 -3.5 65t-15.5 68t-31.5 64t-55 45t-81.5 18q-57 0 -96.5 -25.5t-57.5 -69t-25 -82.5t-7 -83zM776 1548q-60 0 -106.5 14.5t-73 33t-70.5 37.5t-96 26q-104 13 -170 -76
q1 0 -36.5 15.5t-75.5 31.5l-37 15q13 113 93 198.5t193 85.5q60 0 114 -15t87.5 -34t76.5 -37.5t81 -23.5q52 -7 83.5 17.5t53.5 78.5l176 -74q-13 -109 -97.5 -201t-195.5 -92z" />
    <glyph glyph-name="Odieresis" unicode="&#xd6;" horiz-adv-x="1318" 
d="M989 1309q170 -182 170 -480v-208q0 -129 -33 -237t-89.5 -182t-132.5 -125.5t-160.5 -75.5t-174.5 -24q-87 0 -170.5 24t-160 76t-133.5 126t-91 182t-34 236v208q0 306 172 484q78 81 186 124.5t231 43.5t232 -44.5t188 -127.5zM383 840v-236q0 -19 2 -39.5t8 -51.5
t19 -57.5t32 -51t51.5 -38.5t73.5 -14q48 0 84 19.5t55 47t30.5 64.5t14.5 65t3 56v236q0 34 -3.5 65t-15.5 68t-31.5 64t-55 45t-81.5 18q-57 0 -96.5 -25.5t-57.5 -69t-25 -82.5t-7 -83zM766 1862q59 0 106.5 -47t47.5 -109t-47 -107t-107 -45t-108 45t-48 107t48 109
t108 47zM326 1862q59 0 106 -47t47 -109t-46.5 -107t-106.5 -45t-108 45t-48 107t48 109t108 47z" />
    <glyph glyph-name="multiply" unicode="&#xd7;" horiz-adv-x="1171" 
d="M778 1212l258 -258l-258 -256l258 -256l-258 -258l-258 256l-256 -256l-258 258l258 256l-258 256l258 258l256 -256z" />
    <glyph glyph-name="Oslash" unicode="&#xd8;" horiz-adv-x="1310" 
d="M1034 1477l135 -107l-114 -149q104 -157 104 -392v-208q0 -129 -33 -236.5t-89 -181.5t-131.5 -125t-160 -74.5t-174.5 -23.5q-209 0 -368 129l-101 -132l-137 105l119 158q-100 156 -100 381v208q0 304 172 482q77 81 184 123.5t231 42.5q213 0 367 -123zM387 840v-207
l313 411q-49 56 -129 56q-46 0 -81 -18.5t-54 -45.5t-30.5 -64.5t-15 -68t-3.5 -63.5zM758 604v227l-320 -415q49 -64 133 -64q48 0 84 19.5t55 47t30.5 64.5t14.5 65t3 56z" />
    <glyph glyph-name="Ugrave" unicode="&#xd9;" horiz-adv-x="1320" 
d="M762 1454h399v-844q0 -127 -33 -232.5t-88.5 -178t-130.5 -123t-157.5 -73.5t-171.5 -23q-86 0 -167.5 23.5t-157 74t-132 123t-90 178t-33.5 231.5v844h397v-879q0 -23 2.5 -48t13.5 -62.5t29 -65.5t54 -48.5t84 -20.5q47 0 82.5 19t53.5 45.5t29.5 63t14 63t2.5 54.5
v879zM606 1976l176 -432h-286l-250 223z" />
    <glyph glyph-name="Uacute" unicode="&#xda;" horiz-adv-x="1320" 
d="M762 1454h399v-844q0 -127 -33 -232.5t-88.5 -178t-130.5 -123t-157.5 -73.5t-171.5 -23q-86 0 -167.5 23.5t-157 74t-132 123t-90 178t-33.5 231.5v844h397v-879q0 -23 2.5 -48t13.5 -62.5t29 -65.5t54 -48.5t84 -20.5q47 0 82.5 19t53.5 45.5t29.5 63t14 63t2.5 54.5
v879zM338 1534l176 432l360 -209l-249 -223h-287z" />
    <glyph glyph-name="Ucircumflex" unicode="&#xdb;" horiz-adv-x="1320" 
d="M762 1454h399v-844q0 -127 -33 -232.5t-88.5 -178t-130.5 -123t-157.5 -73.5t-171.5 -23q-86 0 -167.5 23.5t-157 74t-132 123t-90 178t-33.5 231.5v844h397v-879q0 -23 2.5 -48t13.5 -62.5t29 -65.5t54 -48.5t84 -20.5q47 0 82.5 19t53.5 45.5t29.5 63t14 63t2.5 54.5
v879zM809 1526l-234 160l-231 -158l-145 133l245 289h269l239 -303z" />
    <glyph glyph-name="Udieresis" unicode="&#xdc;" horiz-adv-x="1320" 
d="M762 1454h399v-844q0 -127 -33 -232.5t-88.5 -178t-130.5 -123t-157.5 -73.5t-171.5 -23q-86 0 -167.5 23.5t-157 74t-132 123t-90 178t-33.5 231.5v844h397v-879q0 -23 2.5 -48t13.5 -62.5t29 -65.5t54 -48.5t84 -20.5q47 0 82.5 19t53.5 45.5t29.5 63t14 63t2.5 54.5
v879zM801 1866q59 0 106 -47t47 -109t-46.5 -106.5t-106.5 -44.5t-108 44.5t-48 106.5t48 109t108 47zM360 1866q59 0 106.5 -47t47.5 -109t-47 -106.5t-107 -44.5t-107.5 44.5t-47.5 106.5t48 109t107 47z" />
    <glyph glyph-name="Yacute" unicode="&#xdd;" horiz-adv-x="1341" 
d="M1251 1454l-465 -924v-530h-405v530l-449 924h443l217 -481l215 481h444zM399 1534l176 432l361 -209l-250 -223h-287z" />
    <glyph glyph-name="Thorn" unicode="&#xde;" 
d="M444 1202q283 0 435.5 -123t152.5 -370q0 -264 -126.5 -374t-438.5 -110h-84v-225h-383v1454h375v-252h69zM487 557q62 0 108 41.5t46 120.5q0 78 -53.5 123t-116.5 45h-86v-330h102z" />
    <glyph glyph-name="germandbls" unicode="&#xdf;" horiz-adv-x="1181" 
d="M1077 422q1 -74 -26.5 -142t-74 -117.5t-105.5 -87t-123 -56.5t-125 -19h-164v332q27 -4 84 0q94 7 123 30q25 20 30 51.5t-18.5 69.5t-75.5 68q-139 81 -139 184q0 40 11 72t23.5 50t39.5 50q37 43 49 64.5t12 42.5q0 46 -26 81t-83 35q-59 0 -93 -42.5t-34 -124.5
l3 -963h-365v946q0 258 124.5 387t346.5 129q108 0 200 -35t153.5 -94.5t95.5 -137t34 -161.5q0 -97 -31.5 -160.5t-115.5 -99.5q103 0 186.5 -97.5t83.5 -254.5z" />
    <glyph glyph-name="agrave" unicode="&#xe0;" 
d="M932 0h-357v80q-2 -4 -5.5 -10.5t-22 -23t-43 -29t-71.5 -23t-105 -10.5q-95 0 -174.5 32.5t-130 99t-50.5 156.5v23q0 330 508 330h84q1 5 2 13t-2 28.5t-11.5 36.5t-32 29t-58.5 13h-68q-109 0 -194 -75l-172 221q151 139 409 139h49q32 0 64.5 -3t78 -13t85.5 -26.5
t81 -46.5t70 -69.5t47.5 -99t18.5 -131.5v-336v-305zM563 412h-76q-172 0 -172 -93q0 -41 34.5 -59t78.5 -18q64 0 99.5 38.5t35.5 86.5v45zM532 1561l177 -433h-287l-250 224z" />
    <glyph glyph-name="aacute" unicode="&#xe1;" 
d="M932 0h-357v80q-2 -4 -5.5 -10.5t-22 -23t-43 -29t-71.5 -23t-105 -10.5q-95 0 -174.5 32.5t-130 99t-50.5 156.5v23q0 330 508 330h84q1 5 2 13t-2 28.5t-11.5 36.5t-32 29t-58.5 13h-68q-109 0 -194 -75l-172 221q151 139 409 139h49q32 0 64.5 -3t78 -13t85.5 -26.5
t81 -46.5t70 -69.5t47.5 -99t18.5 -131.5v-336v-305zM563 412h-76q-172 0 -172 -93q0 -41 34.5 -59t78.5 -18q64 0 99.5 38.5t35.5 86.5v45zM248 1116l176 432l360 -209l-249 -223h-287z" />
    <glyph glyph-name="acircumflex" unicode="&#xe2;" 
d="M932 0h-357v80q-2 -4 -5.5 -10.5t-22 -23t-43 -29t-71.5 -23t-105 -10.5q-95 0 -174.5 32.5t-130 99t-50.5 156.5v23q0 330 508 330h84q1 5 2 13t-2 28.5t-11.5 36.5t-32 29t-58.5 13h-68q-109 0 -194 -75l-172 221q151 139 409 139h49q32 0 64.5 -3t78 -13t85.5 -26.5
t81 -46.5t70 -69.5t47.5 -99t18.5 -131.5v-336v-305zM563 412h-76q-172 0 -172 -93q0 -41 34.5 -59t78.5 -18q64 0 99.5 38.5t35.5 86.5v45zM707 1108l-234 160l-231 -158l-146 133l246 289h268l240 -303z" />
    <glyph glyph-name="atilde" unicode="&#xe3;" 
d="M932 0h-357v80q-2 -4 -5.5 -10.5t-22 -23t-43 -29t-71.5 -23t-105 -10.5q-95 0 -174.5 32.5t-130 99t-50.5 156.5v23q0 330 508 330h84q1 5 2 13t-2 28.5t-11.5 36.5t-32 29t-58.5 13h-68q-109 0 -194 -75l-172 221q151 139 409 139h49q32 0 64.5 -3t78 -13t85.5 -26.5
t81 -46.5t70 -69.5t47.5 -99t18.5 -131.5v-336v-305zM563 412h-76q-172 0 -172 -93q0 -41 34.5 -59t78.5 -18q64 0 99.5 38.5t35.5 86.5v45zM690 1128q-60 0 -106.5 14.5t-73 33t-70.5 37.5t-96 26q-104 13 -170 -76q1 0 -36.5 15.5t-75.5 31.5l-37 15q13 113 93 198.5
t193 85.5q60 0 114 -15t87.5 -34t76.5 -37.5t81 -23.5q52 -7 83.5 17.5t53.5 78.5l176 -74q-13 -109 -97.5 -201t-195.5 -92z" />
    <glyph glyph-name="adieresis" unicode="&#xe4;" 
d="M932 0h-357v80q-2 -4 -5.5 -10.5t-22 -23t-43 -29t-71.5 -23t-105 -10.5q-95 0 -174.5 32.5t-130 99t-50.5 156.5v23q0 330 508 330h84q1 5 2 13t-2 28.5t-11.5 36.5t-32 29t-58.5 13h-68q-109 0 -194 -75l-172 221q151 139 409 139h49q32 0 64.5 -3t78 -13t85.5 -26.5
t81 -46.5t70 -69.5t47.5 -99t18.5 -131.5v-336v-305zM563 412h-76q-172 0 -172 -93q0 -41 34.5 -59t78.5 -18q64 0 99.5 38.5t35.5 86.5v45zM698 1479q59 0 106.5 -47t47.5 -109t-47 -107t-107 -45t-107.5 45t-47.5 107t48 109t107 47zM258 1479q59 0 106.5 -47t47.5 -109
t-47 -107t-107 -45t-108 45t-48 107t48 109t108 47z" />
    <glyph glyph-name="aring" unicode="&#xe5;" 
d="M932 0h-357v80q-2 -4 -5.5 -10.5t-22 -23t-43 -29t-71.5 -23t-105 -10.5q-95 0 -174.5 32.5t-130 99t-50.5 156.5v23q0 330 508 330h84q1 5 2 13t-2 28.5t-11.5 36.5t-32 29t-58.5 13h-68q-109 0 -194 -75l-172 221q151 139 409 139h49q32 0 64.5 -3t78 -13t85.5 -26.5
t81 -46.5t70 -69.5t47.5 -99t18.5 -131.5v-336v-305zM563 412h-76q-172 0 -172 -93q0 -41 34.5 -59t78.5 -18q64 0 99.5 38.5t35.5 86.5v45zM461 1479q87 0 156 -67t69 -157q0 -91 -69.5 -158t-155.5 -67t-154.5 67t-68.5 158t68.5 157.5t154.5 66.5zM393 1257
q0 -28 21 -48.5t49 -20.5t47.5 20.5t19.5 48.5t-19.5 48t-47.5 20t-49 -20t-21 -48z" />
    <glyph glyph-name="ae" unicode="&#xe6;" horiz-adv-x="1720" 
d="M940 389q-2 -8 -6 -14q5 -40 52.5 -70.5t115.5 -30.5q56 0 101 12t91 50q24 -24 124 -115.5t104 -95.5q-65 -57 -173.5 -103.5t-222.5 -46.5q-91 0 -207.5 43t-152.5 101q-39 -63 -140 -103.5t-247 -40.5q-181 0 -290 76t-109 213v25q0 332 509 332h82q-2 1 0.5 12.5
t-3 29.5t-14.5 35.5t-33.5 30t-59.5 12.5h-33q-59 0 -121 -21.5t-100 -55.5l-174 223q148 139 413 139h46q58 0 147.5 -31t126.5 -75q38 43 131 74.5t168 31.5q73 0 138.5 -14.5t129.5 -52t110 -94.5t74.5 -149.5t28.5 -209.5v-117h-606zM567 360v46h-75q-170 0 -170 -93
q0 -40 34 -58.5t80 -18.5q61 0 96 38t35 86zM1059 748q-49 0 -79.5 -22.5t-41.5 -59.5q0 -5 1 -14.5t1 -16.5v-19h258q0 57 -36.5 94.5t-102.5 37.5z" />
    <glyph glyph-name="ccedilla" unicode="&#xe7;" horiz-adv-x="1019" 
d="M926 274q-42 -116 -148 -190.5t-237 -101.5l4 -21q116 -33 158.5 -120.5t17.5 -176.5q-33 -109 -123 -154t-203 -22q-13 6 -47 16t-62 16l-28 7l53 209q129 -39 152 -43q50 -15 61 22q1 5 3 14t-9 21t-35 19l-151 36l47 172q-81 14 -153.5 52.5t-129.5 98t-90 145.5
t-33 186v90q0 122 43 218t114 152.5t156 85.5t177 29q145 0 268.5 -80.5t177.5 -232.5l-334 -96q-26 88 -112 88q-55 0 -91 -39t-36 -103v-147q0 -63 36 -96t91 -33q39 0 71 23t41 65z" />
    <glyph glyph-name="egrave" unicode="&#xe8;" horiz-adv-x="1085" 
d="M928 510v-119h-615q0 -42 49 -77t119 -35q38 0 63 2.5t62.5 17t69.5 41.5q22 -23 121 -113t104 -96q-163 -149 -455 -149q-90 0 -175 32t-153.5 90.5t-110.5 151t-42 203.5v90q0 97 28 178t74.5 136t109 93t130.5 55t139 17q72 0 137.5 -14.5t130 -52t111 -94.5
t75 -148.5t28.5 -208.5zM440 750q-65 0 -96 -36.5t-31 -92.5h265q0 55 -36 92t-102 37zM483 1554l176 -432h-286l-250 224z" />
    <glyph glyph-name="eacute" unicode="&#xe9;" horiz-adv-x="1085" 
d="M928 510v-119h-615q0 -42 49 -77t119 -35q38 0 63 2.5t62.5 17t69.5 41.5q22 -23 121 -113t104 -96q-163 -149 -455 -149q-90 0 -175 32t-153.5 90.5t-110.5 151t-42 203.5v90q0 97 28 178t74.5 136t109 93t130.5 55t139 17q72 0 137.5 -14.5t130 -52t111 -94.5
t75 -148.5t28.5 -208.5zM440 750q-65 0 -96 -36.5t-31 -92.5h265q0 55 -36 92t-102 37zM258 1112l176 432l361 -209l-250 -223h-287z" />
    <glyph glyph-name="ecircumflex" unicode="&#xea;" horiz-adv-x="1085" 
d="M928 510v-119h-615q0 -42 49 -77t119 -35q38 0 63 2.5t62.5 17t69.5 41.5q22 -23 121 -113t104 -96q-163 -149 -455 -149q-90 0 -175 32t-153.5 90.5t-110.5 151t-42 203.5v90q0 97 28 178t74.5 136t109 93t130.5 55t139 17q72 0 137.5 -14.5t130 -52t111 -94.5
t75 -148.5t28.5 -208.5zM440 750q-65 0 -96 -36.5t-31 -92.5h265q0 55 -36 92t-102 37zM702 1090l-233 159l-231 -157l-146 133l246 288h268l240 -303z" />
    <glyph glyph-name="edieresis" unicode="&#xeb;" horiz-adv-x="1085" 
d="M928 510v-119h-615q0 -42 49 -77t119 -35q38 0 63 2.5t62.5 17t69.5 41.5q22 -23 121 -113t104 -96q-163 -149 -455 -149q-90 0 -175 32t-153.5 90.5t-110.5 151t-42 203.5v90q0 97 28 178t74.5 136t109 93t130.5 55t139 17q72 0 137.5 -14.5t130 -52t111 -94.5
t75 -148.5t28.5 -208.5zM440 750q-65 0 -96 -36.5t-31 -92.5h265q0 55 -36 92t-102 37zM668 1477q59 0 106 -47t47 -109t-46.5 -107t-106.5 -45t-108 45t-48 107t48 109t108 47zM227 1477q59 0 106.5 -47t47.5 -109t-47 -107t-107 -45t-107.5 45t-47.5 107t48 109t107 47z
" />
    <glyph glyph-name="igrave" unicode="&#xec;" horiz-adv-x="673" 
d="M123 1008h362v-1008h-362v1008zM272 1548l177 -432h-287l-250 223z" />
    <glyph glyph-name="iacute" unicode="&#xed;" horiz-adv-x="593" 
d="M0 1008h362v-1008h-362v1008zM33 1100l176 432l360 -209l-250 -223h-286z" />
    <glyph glyph-name="icircumflex" unicode="&#xee;" horiz-adv-x="534" 
d="M0 1008h362v-1008h-362v1008zM426 1112l-233 160l-232 -158l-145 133l245 289h269l239 -303z" />
    <glyph glyph-name="idieresis" unicode="&#xef;" horiz-adv-x="534" 
d="M375 1444q59 0 106 -47t47 -109t-46.5 -106.5t-106.5 -44.5t-108 44.5t-48 106.5t48 109t108 47zM-25 1444q59 0 106.5 -47t47.5 -109t-47 -106.5t-107 -44.5t-107.5 44.5t-47.5 106.5t48 109t107 47zM0 1008h362v-1008h-362v1008z" />
    <glyph glyph-name="eth" unicode="&#xf0;" horiz-adv-x="1095" 
d="M956 532v-18q0 -262 -122 -398t-365 -136q-239 0 -364 144.5t-125 387.5q0 234 132 372t353 138q42 0 82 -6q-8 27 -35.5 72t-46.5 69l-180 -88l-43 72l168 96q-57 71 -119 133l219 211q103 -103 178 -205l199 103l61 -123l-188 -94q196 -335 196 -730zM473 244
q86 0 126 61t40 189q0 121 -38 185t-128 64q-168 0 -168 -256q0 -243 168 -243z" />
    <glyph glyph-name="ntilde" unicode="&#xf1;" horiz-adv-x="1177" 
d="M385 584v-584h-385v1008h365v-60q23 42 92 70.5t141 28.5q84 0 155.5 -25t129.5 -78t91.5 -144.5t33.5 -213.5v-586h-396v584q0 65 -33 105t-85 40q-55 0 -82 -39.5t-27 -105.5zM668 1161q-60 0 -106.5 14.5t-73 33t-70.5 37.5t-96 26q-104 13 -170 -76q1 0 -36.5 15
t-75.5 31l-38 15q13 113 93.5 199t193.5 86q60 0 114 -15t87.5 -34t76 -37.5t80.5 -23.5q52 -7 83.5 17.5t53.5 78.5l177 -74q-13 -109 -97.5 -201t-195.5 -92z" />
    <glyph glyph-name="ograve" unicode="&#xf2;" horiz-adv-x="1097" 
d="M467 1030q71 0 138 -15.5t130 -51t110.5 -88t76 -132t28.5 -176.5v-123q0 -91 -27 -167.5t-73.5 -130.5t-108 -92t-131 -56t-143.5 -18q-73 0 -142 18t-131 56.5t-108 92.5t-73 130.5t-27 166.5v123q0 97 28 176.5t75 132t110 88t130 51t138 15.5zM467 713q-53 0 -87 -39
t-34 -103v-143q0 -63 35 -97t86 -34t86 34t35 97v143q0 63 -32 102.5t-89 39.5zM514 1550l176 -432h-287l-249 223z" />
    <glyph glyph-name="oacute" unicode="&#xf3;" horiz-adv-x="1097" 
d="M467 1030q71 0 138 -15.5t130 -51t110.5 -88t76 -132t28.5 -176.5v-123q0 -91 -27 -167.5t-73.5 -130.5t-108 -92t-131 -56t-143.5 -18q-73 0 -142 18t-131 56.5t-108 92.5t-73 130.5t-27 166.5v123q0 97 28 176.5t75 132t110 88t130 51t138 15.5zM467 713q-53 0 -87 -39
t-34 -103v-143q0 -63 35 -97t86 -34t86 34t35 97v143q0 63 -32 102.5t-89 39.5zM276 1090l177 432l360 -209l-250 -223h-287z" />
    <glyph glyph-name="ocircumflex" unicode="&#xf4;" horiz-adv-x="1097" 
d="M467 1030q71 0 138 -15.5t130 -51t110.5 -88t76 -132t28.5 -176.5v-123q0 -91 -27 -167.5t-73.5 -130.5t-108 -92t-131 -56t-143.5 -18q-73 0 -142 18t-131 56.5t-108 92.5t-73 130.5t-27 166.5v123q0 97 28 176.5t75 132t110 88t130 51t138 15.5zM467 713q-53 0 -87 -39
t-34 -103v-143q0 -63 35 -97t86 -34t86 34t35 97v143q0 63 -32 102.5t-89 39.5zM709 1106l-234 160l-231 -158l-146 133l246 289h268l240 -303z" />
    <glyph glyph-name="otilde" unicode="&#xf5;" horiz-adv-x="1097" 
d="M467 1030q71 0 138 -15.5t130 -51t110.5 -88t76 -132t28.5 -176.5v-123q0 -91 -27 -167.5t-73.5 -130.5t-108 -92t-131 -56t-143.5 -18q-73 0 -142 18t-131 56.5t-108 92.5t-73 130.5t-27 166.5v123q0 97 28 176.5t75 132t110 88t130 51t138 15.5zM467 713q-53 0 -87 -39
t-34 -103v-143q0 -63 35 -97t86 -34t86 34t35 97v143q0 63 -32 102.5t-89 39.5zM678 1126q-60 0 -106.5 14.5t-73 33t-70.5 37.5t-96 26q-104 13 -170 -76q1 0 -36.5 15.5t-75.5 31.5l-38 15q13 113 93 198.5t194 85.5q60 0 114 -15t87.5 -34t76 -37.5t80.5 -23.5
q52 -7 84.5 17.5t53.5 78.5l176 -74q-13 -109 -97.5 -201t-195.5 -92z" />
    <glyph glyph-name="odieresis" unicode="&#xf6;" horiz-adv-x="1097" 
d="M467 1030q71 0 138 -15.5t130 -51t110.5 -88t76 -132t28.5 -176.5v-123q0 -91 -27 -167.5t-73.5 -130.5t-108 -92t-131 -56t-143.5 -18q-73 0 -142 18t-131 56.5t-108 92.5t-73 130.5t-27 166.5v123q0 97 28 176.5t75 132t110 88t130 51t138 15.5zM467 713q-53 0 -87 -39
t-34 -103v-143q0 -63 35 -97t86 -34t86 34t35 97v143q0 63 -32 102.5t-89 39.5zM670 1454q59 0 106 -47t47 -109t-46.5 -106.5t-106.5 -44.5t-108 44.5t-48 106.5t48 109t108 47zM229 1454q59 0 106.5 -47t47.5 -109t-47 -106.5t-107 -44.5t-107.5 44.5t-47.5 106.5t48 109
t107 47z" />
    <glyph glyph-name="divide" unicode="&#xf7;" horiz-adv-x="1189" 
d="M520 1180q58 0 104 -44t46 -104q0 -59 -46 -103t-104 -44q-57 0 -102 44t-45 103q0 60 45 104t102 44zM518 422q58 0 104 -44t46 -104t-46 -104.5t-104 -44.5q-57 0 -102 44.5t-45 104.5t45 104t102 44zM31 780h983v-241h-983v241z" />
    <glyph glyph-name="oslash" unicode="&#xf8;" horiz-adv-x="1081" 
d="M985 881l-88 -86q61 -113 61 -277q0 -536 -487 -536q-199 0 -321 104l-105 -96l-92 98l108 105q-79 128 -79 323q0 234 131.5 373t353.5 139q214 0 346 -123l80 76zM307 489q0 -25 4 -61l283 268q-43 52 -119 52q-168 0 -168 -259zM643 498q0 9 -1 28t-1 27l-279 -262
q39 -45 113 -45q87 0 127.5 61t40.5 191z" />
    <glyph glyph-name="ugrave" unicode="&#xf9;" horiz-adv-x="1212" 
d="M645 424v584h399v-1008h-380v61q-22 -41 -92.5 -65.5t-145.5 -24.5q-64 0 -123 14.5t-115 48.5t-97 85t-66 130t-25 177v582h410v-584q0 -64 33.5 -103.5t86.5 -39.5q56 0 85.5 39.5t29.5 103.5zM551 1565l176 -432h-287l-250 223z" />
    <glyph glyph-name="uacute" unicode="&#xfa;" horiz-adv-x="1212" 
d="M645 424v584h399v-1008h-380v61q-22 -41 -92.5 -65.5t-145.5 -24.5q-64 0 -123 14.5t-115 48.5t-97 85t-66 130t-25 177v582h410v-584q0 -64 33.5 -103.5t86.5 -39.5q56 0 85.5 39.5t29.5 103.5zM268 1106l176 432l361 -209l-250 -223h-287z" />
    <glyph glyph-name="ucircumflex" unicode="&#xfb;" horiz-adv-x="1212" 
d="M645 424v584h399v-1008h-380v61q-22 -41 -92.5 -65.5t-145.5 -24.5q-64 0 -123 14.5t-115 48.5t-97 85t-66 130t-25 177v582h410v-584q0 -64 33.5 -103.5t86.5 -39.5q56 0 85.5 39.5t29.5 103.5zM758 1124l-234 160l-231 -158l-146 134l246 288h269l239 -303z" />
    <glyph glyph-name="udieresis" unicode="&#xfc;" horiz-adv-x="1212" 
d="M645 424v584h399v-1008h-380v61q-22 -41 -92.5 -65.5t-145.5 -24.5q-64 0 -123 14.5t-115 48.5t-97 85t-66 130t-25 177v582h410v-584q0 -64 33.5 -103.5t86.5 -39.5q56 0 85.5 39.5t29.5 103.5zM748 1468q59 0 106 -46.5t47 -108.5t-46.5 -107t-106.5 -45t-108 45
t-48 107t48 108.5t108 46.5zM307 1468q59 0 106.5 -46.5t47.5 -108.5t-47 -107t-107 -45t-107.5 45t-47.5 107t47.5 108.5t107.5 46.5z" />
    <glyph glyph-name="yacute" unicode="&#xfd;" horiz-adv-x="1142" 
d="M1047 1008l-422 -1192q-39 -104 -110.5 -173t-156.5 -95t-176 -20.5t-176 42.5l80 280q122 -46 185 13.5t34 152.5l-348 992h410l135 -568l135 568h410zM272 1114l177 432l360 -209l-250 -223h-287z" />
    <glyph glyph-name="thorn" unicode="&#xfe;" horiz-adv-x="1056" 
d="M389 -418h-389v1872h365v-520q29 42 92 64t147 22q80 0 153.5 -29t132.5 -84t94.5 -143.5t35.5 -198.5v-104q0 -119 -36.5 -212t-97.5 -148t-133 -83t-149 -28q-70 0 -131 27t-84 69v-504zM381 580v-142q0 -62 31.5 -100.5t87.5 -38.5q53 0 85.5 38t32.5 101v142
q0 60 -34 93.5t-84 33.5t-84.5 -33.5t-34.5 -93.5z" />
    <glyph glyph-name="ydieresis" unicode="&#xff;" horiz-adv-x="1142" 
d="M1047 1008l-422 -1192q-39 -104 -110.5 -173t-156.5 -95t-176 -20.5t-176 42.5l80 280q122 -46 185 13.5t34 152.5l-348 992h410l135 -568l135 568h410zM719 1456q59 0 106 -47t47 -109t-46.5 -106.5t-106.5 -44.5t-108 44.5t-48 106.5t48 109t108 47zM279 1456
q59 0 106 -47t47 -109t-46.5 -106.5t-106.5 -44.5t-108 44.5t-48 106.5t48 109t108 47z" />
    <glyph glyph-name="Amacron" unicode="&#x100;" horiz-adv-x="1345" 
d="M848 0l-47 176h-408l-55 -176h-397l454 1454h396l454 -1454h-397zM473 492h248l-129 450zM227 1794h795v-250h-795v250z" />
    <glyph glyph-name="amacron" unicode="&#x101;" 
d="M932 0h-357v80q-2 -4 -5.5 -10.5t-22 -23t-43 -29t-71.5 -23t-105 -10.5q-95 0 -174.5 32.5t-130 99t-50.5 156.5v23q0 330 508 330h84q1 5 2 13t-2 28.5t-11.5 36.5t-32 29t-58.5 13h-68q-109 0 -194 -75l-172 221q151 139 409 139h49q32 0 64.5 -3t78 -13t85.5 -26.5
t81 -46.5t70 -69.5t47.5 -99t18.5 -131.5v-336v-305zM563 412h-76q-172 0 -172 -93q0 -41 34.5 -59t78.5 -18q64 0 99.5 38.5t35.5 86.5v45zM82 1427h795v-249h-795v249z" />
    <glyph glyph-name="Abreve" unicode="&#x102;" horiz-adv-x="1345" 
d="M848 0l-47 176h-408l-55 -176h-397l454 1454h396l454 -1454h-397zM473 492h248l-129 450zM618 1559q-99 0 -208.5 52.5t-190.5 139.5l178 166q49 -56 111.5 -87.5t109.5 -31.5q116 0 226 119l176 -168q-87 -92 -191.5 -141t-210.5 -49z" />
    <glyph glyph-name="abreve" unicode="&#x103;" 
d="M932 0h-357v80q-2 -4 -5.5 -10.5t-22 -23t-43 -29t-71.5 -23t-105 -10.5q-95 0 -174.5 32.5t-130 99t-50.5 156.5v23q0 330 508 330h84q1 5 2 13t-2 28.5t-11.5 36.5t-32 29t-58.5 13h-68q-109 0 -194 -75l-172 221q151 139 409 139h49q32 0 64.5 -3t78 -13t85.5 -26.5
t81 -46.5t70 -69.5t47.5 -99t18.5 -131.5v-336v-305zM563 412h-76q-172 0 -172 -93q0 -41 34.5 -59t78.5 -18q64 0 99.5 38.5t35.5 86.5v45zM467 1141q-99 0 -208.5 52.5t-190.5 139.5l178 166q49 -56 111.5 -87.5t109.5 -31.5q115 0 225 119l176 -168q-88 -92 -191.5 -141
t-209.5 -49z" />
    <glyph glyph-name="Aogonek" unicode="&#x104;" horiz-adv-x="1406" 
d="M1217 -160l75 -233l-6 -4q-61 -21 -138.5 -20.5t-137.5 24.5q-91 36 -140.5 102.5t-54.5 155.5q-9 118 59 194l-30 117h-410l-55 -176h-399l456 1460h395l459 -1460h-106q-65 0 -94 -38t-17 -77q11 -34 43.5 -50.5t67.5 -6.5zM514 494h248l-129 452z" />
    <glyph glyph-name="aogonek" unicode="&#x105;" 
d="M494 1024q31 0 63.5 -3t77.5 -13t85 -26.5t80.5 -46.5t69.5 -69.5t47.5 -99t18.5 -131.5v-336v-301h-55q-36 -2 -60 -27t-24 -61q0 -37 28 -61.5t76 -24.5h35v-244q-173 0 -268 74q-159 125 -117 297q3 11 7.5 22t11 23.5t8.5 17.5v64q-2 -4 -5.5 -10.5t-21.5 -23
t-42.5 -29t-71.5 -23t-105 -10.5q-95 0 -173.5 32t-128.5 98t-50 156v23q0 330 503 330h86q-2 1 0.5 12.5t-3 29t-14.5 34.5t-33.5 29.5t-59.5 12.5h-35q-58 0 -119 -20.5t-100 -54.5l-172 223q152 137 409 137h52zM565 362v48h-71q-172 0 -172 -93q0 -43 33.5 -61t78.5 -18
q63 0 97 38t34 86z" />
    <glyph glyph-name="Cacute" unicode="&#x106;" horiz-adv-x="1298" 
d="M750 510h411q-13 -107 -52 -196t-95.5 -150.5t-127.5 -104t-148.5 -62.5t-159.5 -20q-87 0 -170.5 24t-160 76t-134 126t-91.5 182t-34 236v206q0 306 172 484q78 81 186 124.5t232 43.5q123 0 231 -44.5t186 -127.5q137 -143 164 -361h-409q-18 66 -59.5 111t-112.5 45
q-39 0 -70 -12t-50.5 -33.5t-33.5 -47t-20.5 -56.5t-9.5 -56.5t-3 -52.5v-242q0 -23 2.5 -48.5t14 -63.5t30 -67t55 -50t85.5 -21q127 0 172 158zM389 1534l176 432l361 -209l-250 -223h-287z" />
    <glyph glyph-name="cacute" unicode="&#x107;" horiz-adv-x="1019" 
d="M578 385l344 -106q-35 -96 -105 -164t-160 -100.5t-194 -32.5q-91 0 -176 32t-153 90.5t-109 151t-41 203.5v90q0 97 28 178t74.5 136t109 93t129.5 55t138 17q94 0 179 -32.5t156 -103t107 -171.5l-327 -98q-27 88 -115 88q-53 0 -86 -39t-33 -103v-141q0 -62 35 -96.5
t84 -34.5q42 0 73.5 22.5t41.5 65.5zM215 1096l176 432l361 -209l-250 -223h-287z" />
    <glyph glyph-name="Ccircumflex" unicode="&#x108;" horiz-adv-x="1298" 
d="M750 510h411q-13 -107 -52 -196t-95.5 -150.5t-127.5 -104t-148.5 -62.5t-159.5 -20q-87 0 -170.5 24t-160 76t-134 126t-91.5 182t-34 236v206q0 306 172 484q78 81 186 124.5t232 43.5q123 0 231 -44.5t186 -127.5q137 -143 164 -361h-409q-18 66 -59.5 111t-112.5 45
q-39 0 -70 -12t-50.5 -33.5t-33.5 -47t-20.5 -56.5t-9.5 -56.5t-3 -52.5v-242q0 -23 2.5 -48.5t14 -63.5t30 -67t55 -50t85.5 -21q127 0 172 158zM805 1520l-234 159l-231 -157l-145 133l245 289h269l239 -304z" />
    <glyph glyph-name="ccircumflex" unicode="&#x109;" horiz-adv-x="1019" 
d="M578 385l344 -106q-35 -96 -105 -164t-160 -100.5t-194 -32.5q-91 0 -176 32t-153 90.5t-109 151t-41 203.5v90q0 97 28 178t74.5 136t109 93t129.5 55t138 17q94 0 179 -32.5t156 -103t107 -171.5l-327 -98q-27 88 -115 88q-53 0 -86 -39t-33 -103v-141q0 -62 35 -96.5
t84 -34.5q42 0 73.5 22.5t41.5 65.5zM690 1059l-233 160l-232 -158l-145 133l246 289h268l240 -303z" />
    <glyph glyph-name="Cdotaccent" unicode="&#x10a;" horiz-adv-x="1298" 
d="M750 510h411q-13 -107 -52 -196t-95.5 -150.5t-127.5 -104t-148.5 -62.5t-159.5 -20q-87 0 -170.5 24t-160 76t-134 126t-91.5 182t-34 236v206q0 306 172 484q78 81 186 124.5t232 43.5q123 0 231 -44.5t186 -127.5q137 -143 164 -361h-409q-18 66 -59.5 111t-112.5 45
q-39 0 -70 -12t-50.5 -33.5t-33.5 -47t-20.5 -56.5t-9.5 -56.5t-3 -52.5v-242q0 -23 2.5 -48.5t14 -63.5t30 -67t55 -50t85.5 -21q127 0 172 158zM571 1931q70 0 126.5 -54t56.5 -128t-56.5 -129t-126.5 -55t-126 55t-56 129t56 128t126 54z" />
    <glyph glyph-name="cdotaccent" unicode="&#x10b;" horiz-adv-x="1019" 
d="M578 385l344 -106q-35 -96 -105 -164t-160 -100.5t-194 -32.5q-91 0 -176 32t-153 90.5t-109 151t-41 203.5v90q0 97 28 178t74.5 136t109 93t129.5 55t138 17q94 0 179 -32.5t156 -103t107 -171.5l-327 -98q-27 88 -115 88q-53 0 -86 -39t-33 -103v-141q0 -62 35 -96.5
t84 -34.5q42 0 73.5 22.5t41.5 65.5zM455 1489q70 0 126 -54t56 -128t-56 -129.5t-126 -55.5t-126.5 55.5t-56.5 129.5t56.5 128t126.5 54z" />
    <glyph glyph-name="Ccaron" unicode="&#x10c;" horiz-adv-x="1298" 
d="M750 510h411q-13 -107 -52 -196t-95.5 -150.5t-127.5 -104t-148.5 -62.5t-159.5 -20q-87 0 -170.5 24t-160 76t-134 126t-91.5 182t-34 236v206q0 306 172 484q78 81 186 124.5t232 43.5q123 0 231 -44.5t186 -127.5q137 -143 164 -361h-409q-18 66 -59.5 111t-112.5 45
q-39 0 -70 -12t-50.5 -33.5t-33.5 -47t-20.5 -56.5t-9.5 -56.5t-3 -52.5v-242q0 -23 2.5 -48.5t14 -63.5t30 -67t55 -50t85.5 -21q127 0 172 158zM555 1808l233 160l144 -121l-240 -303h-268l-246 289l146 133z" />
    <glyph glyph-name="ccaron" unicode="&#x10d;" horiz-adv-x="1019" 
d="M578 385l344 -106q-35 -96 -105 -164t-160 -100.5t-194 -32.5q-91 0 -176 32t-153 90.5t-109 151t-41 203.5v90q0 97 28 178t74.5 136t109 93t129.5 55t138 17q94 0 179 -32.5t156 -103t107 -171.5l-327 -98q-27 88 -115 88q-53 0 -86 -39t-33 -103v-141q0 -62 35 -96.5
t84 -34.5q42 0 73.5 22.5t41.5 65.5zM446 1376l234 160l143 -121l-239 -303h-269l-245 289l145 133z" />
    <glyph glyph-name="Dcaron" unicode="&#x10e;" horiz-adv-x="1308" 
d="M997 1288q170 -173 170 -463v-207q0 -124 -33 -228t-88.5 -175t-130.5 -120.5t-157.5 -72t-171.5 -22.5h-586v1454h586q253 0 411 -166zM768 618v207q0 32 -4.5 62.5t-17.5 65.5t-33.5 61t-56 43.5t-81.5 17.5h-178v-698h178q47 0 83.5 18.5t56.5 45t32.5 61t16.5 62.5
t4 54zM530 1800l234 160l143 -121l-239 -303h-269l-245 289l145 133z" />
    <glyph glyph-name="dcaron" unicode="&#x10f;" horiz-adv-x="1445" 
d="M1008 1454v-1454h-365v74q-33 -45 -105 -66.5t-141 -21.5q-79 0 -154 32t-134.5 90.5t-95.5 151t-36 203.5v90q0 119 37 213.5t98 150.5t134 84.5t151 28.5q71 0 132.5 -27.5t84.5 -70.5v522h394zM623 573q0 63 -32 102.5t-89 39.5q-53 0 -86 -39t-33 -103v-141
q0 -61 35 -95t84 -34q51 0 86 34t35 95v141zM1100 1454h311l-164 -448h-147v448z" />
    <glyph glyph-name="Dcroat" unicode="&#x110;" horiz-adv-x="1488" 
d="M1128 1290q85 -83 130 -203t45 -260v-206q0 -125 -33 -229t-88.5 -175.5t-130.5 -121t-158 -72.5t-172 -23h-588v543h-149v370h149v543h588q121 0 226 -42.5t181 -123.5zM901 621v206q0 32 -4.5 62.5t-17.5 65t-33.5 60.5t-56.5 43t-82 17h-177v-162h164v-370h-164v-166
h177q47 0 83.5 18.5t56.5 45.5t33 62.5t17 63.5t4 54z" />
    <glyph glyph-name="dcroat" unicode="&#x111;" horiz-adv-x="1300" 
d="M1200 1366v-287h-174v-1077h-395v74q-35 -45 -95 -65.5t-124 -20.5q-80 0 -155 32t-135 91t-96 151.5t-36 204.5v90q0 121 37 216t98.5 150.5t134.5 84t152 28.5q70 0 131.5 -27.5t87.5 -70.5v139h-101v287h101v86h395v-86h174zM639 436v144q0 64 -32 102.5t-89 38.5
q-54 0 -88.5 -38t-34.5 -103v-144q0 -63 35 -96t88 -33q50 0 85.5 33.5t35.5 95.5z" />
    <glyph glyph-name="Emacron" unicode="&#x112;" horiz-adv-x="1153" 
d="M977 1100h-580v-207h437v-330h-437v-207h580v-356h-977v1454h977v-354zM90 1794h795v-250h-795v250z" />
    <glyph glyph-name="emacron" unicode="&#x113;" horiz-adv-x="1085" 
d="M928 510v-119h-615q0 -42 49 -77t119 -35q38 0 63 2.5t62.5 17t69.5 41.5q22 -23 121 -113t104 -96q-163 -149 -455 -149q-90 0 -175 32t-153.5 90.5t-110.5 151t-42 203.5v90q0 97 28 178t74.5 136t109 93t130.5 55t139 17q72 0 137.5 -14.5t130 -52t111 -94.5
t75 -148.5t28.5 -208.5zM440 750q-65 0 -96 -36.5t-31 -92.5h265q0 55 -36 92t-102 37zM68 1397h794v-250h-794v250z" />
    <glyph glyph-name="ebreve" unicode="&#x115;" horiz-adv-x="1085" 
d="M928 510v-119h-615q0 -42 49 -77t119 -35q38 0 63 2.5t62.5 17t69.5 41.5q22 -23 121 -113t104 -96q-163 -149 -455 -149q-90 0 -175 32t-153.5 90.5t-110.5 151t-42 203.5v90q0 97 28 178t74.5 136t109 93t130.5 55t139 17q72 0 137.5 -14.5t130 -52t111 -94.5
t75 -148.5t28.5 -208.5zM440 750q-65 0 -96 -36.5t-31 -92.5h265q0 55 -36 92t-102 37zM467 1178q-99 0 -208.5 52.5t-190.5 139.5l178 166q49 -56 111.5 -87.5t109.5 -31.5q115 0 225 119l176 -168q-88 -92 -191.5 -141t-209.5 -49z" />
    <glyph glyph-name="Edotaccent" unicode="&#x116;" horiz-adv-x="1153" 
d="M977 1100h-580v-207h437v-330h-437v-207h580v-356h-977v1454h977v-354zM483 1923q70 0 126.5 -54t56.5 -128t-56.5 -129.5t-126.5 -55.5t-126 55.5t-56 129.5t56 128t126 54z" />
    <glyph glyph-name="edotaccent" unicode="&#x117;" horiz-adv-x="1085" 
d="M928 510v-119h-615q0 -42 49 -77t119 -35q38 0 63 2.5t62.5 17t69.5 41.5q22 -23 121 -113t104 -96q-163 -149 -455 -149q-90 0 -175 32t-153.5 90.5t-110.5 151t-42 203.5v90q0 97 28 178t74.5 136t109 93t130.5 55t139 17q72 0 137.5 -14.5t130 -52t111 -94.5
t75 -148.5t28.5 -208.5zM440 750q-65 0 -96 -36.5t-31 -92.5h265q0 55 -36 92t-102 37zM465 1509q70 0 126 -54t56 -128t-56 -129t-126 -55t-126 55t-56 129t56 128t126 54z" />
    <glyph glyph-name="Eogonek" unicode="&#x118;" horiz-adv-x="1161" 
d="M979 1104h-580v-211h437v-326h-437v-207h580v-358h-47q-34 0 -59.5 -26.5t-22.5 -59.5q0 -37 25 -63.5t61 -26.5h33v-244h-4q-167 -4 -258 72q-125 105 -113 264q2 22 11 50t18 34h-623v1454h979v-352z" />
    <glyph glyph-name="eogonek" unicode="&#x119;" 
d="M940 516v-119h-610q0 -42 49 -77t119 -35q37 0 62.5 3t62 17t67.5 41q22 -21 122 -112t106 -97q-97 -85 -232 -121q-38 -14 -54.5 -40t-12.5 -51t20 -44q28 -25 64.5 -25t62.5 25l8 10l166 -176q-91 -94 -211 -108q-96 -9 -179 32.5t-128 116.5q-68 107 -21 238
q-81 10 -154.5 46t-133 94t-94.5 144.5t-35 188.5v88q0 97 28 177.5t74.5 135t109 92.5t129.5 55t138 17q72 0 136.5 -14.5t128 -52t109.5 -94.5t74.5 -148t28.5 -207zM330 625h264q0 55 -36 93t-101 38q-64 0 -95.5 -38t-31.5 -93z" />
    <glyph glyph-name="Ecaron" unicode="&#x11a;" horiz-adv-x="1153" 
d="M977 1100h-580v-207h437v-330h-437v-207h580v-356h-977v1454h977v-354zM483 1796l234 160l143 -121l-239 -303h-269l-246 289l146 133z" />
    <glyph glyph-name="ecaron" unicode="&#x11b;" horiz-adv-x="1085" 
d="M928 510v-119h-615q0 -42 49 -77t119 -35q38 0 63 2.5t62.5 17t69.5 41.5q22 -23 121 -113t104 -96q-163 -149 -455 -149q-90 0 -175 32t-153.5 90.5t-110.5 151t-42 203.5v90q0 97 28 178t74.5 136t109 93t130.5 55t139 17q72 0 137.5 -14.5t130 -52t111 -94.5
t75 -148.5t28.5 -208.5zM440 750q-65 0 -96 -36.5t-31 -92.5h265q0 55 -36 92t-102 37zM461 1380l233 160l144 -121l-240 -303h-268l-246 289l145 133z" />
    <glyph glyph-name="Gcircumflex" unicode="&#x11c;" horiz-adv-x="1298" 
d="M1157 807v-240q0 -121 -35 -222t-93 -168t-134.5 -113t-157.5 -66.5t-164 -20.5q-87 0 -170 24t-159.5 75.5t-134 125t-91.5 181t-34 235.5v209q0 304 172 482q78 81 186 124.5t231 43.5t230.5 -44.5t187.5 -127.5q137 -143 164 -361h-410q-18 67 -59.5 113.5
t-112.5 46.5q-46 0 -81 -18t-54 -44.5t-30.5 -63.5t-15 -67.5t-3.5 -64.5v-248q0 -19 2 -38.5t7.5 -50.5t18.5 -57t32 -50t51 -38t73 -14q85 0 128.5 50t43.5 122h-149v285h561zM805 1516l-234 159l-231 -157l-145 133l245 288h269l239 -303z" />
    <glyph glyph-name="gcircumflex" unicode="&#x11d;" horiz-adv-x="1177" 
d="M1022 1008v-1008q0 -148 -80.5 -258.5t-206 -164.5t-274.5 -54q-272 0 -453 151q5 5 47.5 58t91.5 115t56 71q81 -68 215 -68q209 0 209 160v60q-23 -42 -85.5 -69.5t-133.5 -27.5q-62 0 -121 17.5t-114 55.5t-96.5 92.5t-66 136t-24.5 178.5v100q0 111 36.5 202
t96.5 147.5t134.5 87t154.5 30.5q65 0 125 -21t94 -67v76h395zM514 287q57 0 88 39.5t31 103.5v141q0 63 -34.5 97t-84.5 34q-51 0 -86 -34t-35 -97v-141q0 -64 34 -103.5t87 -39.5zM743 1090l-233 159l-231 -157l-146 133l246 288h268l240 -303z" />
    <glyph glyph-name="Gbreve" unicode="&#x11e;" horiz-adv-x="1298" 
d="M1157 807v-240q0 -121 -35 -222t-93 -168t-134.5 -113t-157.5 -66.5t-164 -20.5q-87 0 -170 24t-159.5 75.5t-134 125t-91.5 181t-34 235.5v209q0 304 172 482q78 81 186 124.5t231 43.5t230.5 -44.5t187.5 -127.5q137 -143 164 -361h-410q-18 67 -59.5 113.5
t-112.5 46.5q-46 0 -81 -18t-54 -44.5t-30.5 -63.5t-15 -67.5t-3.5 -64.5v-248q0 -19 2 -38.5t7.5 -50.5t18.5 -57t32 -50t51 -38t73 -14q85 0 128.5 50t43.5 122h-149v285h561zM565 1559q-99 0 -208.5 52.5t-190.5 139.5l178 166q49 -56 111.5 -87.5t109.5 -31.5
q116 0 226 119l176 -168q-87 -92 -191.5 -141t-210.5 -49z" />
    <glyph glyph-name="gbreve" unicode="&#x11f;" horiz-adv-x="1177" 
d="M1022 1008v-1008q0 -148 -80.5 -258.5t-206 -164.5t-274.5 -54q-272 0 -453 151q5 5 47.5 58t91.5 115t56 71q81 -68 215 -68q209 0 209 160v60q-23 -42 -85.5 -69.5t-133.5 -27.5q-62 0 -121 17.5t-114 55.5t-96.5 92.5t-66 136t-24.5 178.5v100q0 111 36.5 202
t96.5 147.5t134.5 87t154.5 30.5q65 0 125 -21t94 -67v76h395zM514 287q57 0 88 39.5t31 103.5v141q0 63 -34.5 97t-84.5 34q-51 0 -86 -34t-35 -97v-141q0 -64 34 -103.5t87 -39.5zM528 1137q-99 0 -208.5 52.5t-190.5 139.5l178 166q49 -56 111.5 -87.5t109.5 -31.5
q116 0 226 119l176 -168q-87 -92 -191.5 -141t-210.5 -49z" />
    <glyph glyph-name="Gdotaccent" unicode="&#x120;" horiz-adv-x="1298" 
d="M1157 807v-240q0 -121 -35 -222t-93 -168t-134.5 -113t-157.5 -66.5t-164 -20.5q-87 0 -170 24t-159.5 75.5t-134 125t-91.5 181t-34 235.5v209q0 304 172 482q78 81 186 124.5t231 43.5t230.5 -44.5t187.5 -127.5q137 -143 164 -361h-410q-18 67 -59.5 113.5
t-112.5 46.5q-46 0 -81 -18t-54 -44.5t-30.5 -63.5t-15 -67.5t-3.5 -64.5v-248q0 -19 2 -38.5t7.5 -50.5t18.5 -57t32 -50t51 -38t73 -14q85 0 128.5 50t43.5 122h-149v285h561zM571 1919q70 0 126.5 -54t56.5 -128t-56.5 -129.5t-126.5 -55.5t-126 55.5t-56 129.5t56 128
t126 54z" />
    <glyph glyph-name="gdotaccent" unicode="&#x121;" horiz-adv-x="1177" 
d="M1022 1008v-1008q0 -148 -80.5 -258.5t-206 -164.5t-274.5 -54q-272 0 -453 151q5 5 47.5 58t91.5 115t56 71q81 -68 215 -68q209 0 209 160v60q-23 -42 -85.5 -69.5t-133.5 -27.5q-62 0 -121 17.5t-114 55.5t-96.5 92.5t-66 136t-24.5 178.5v100q0 111 36.5 202
t96.5 147.5t134.5 87t154.5 30.5q65 0 125 -21t94 -67v76h395zM514 287q57 0 88 39.5t31 103.5v141q0 63 -34.5 97t-84.5 34q-51 0 -86 -34t-35 -97v-141q0 -64 34 -103.5t87 -39.5zM504 1501q70 0 126 -54t56 -128t-56 -129t-126 -55t-126 55t-56 129t56 128t126 54z" />
    <glyph glyph-name="Gcedilla" unicode="&#x122;" horiz-adv-x="1298" 
d="M1157 807v-240q0 -121 -35 -222t-93 -168t-134.5 -113t-157.5 -66.5t-164 -20.5q-87 0 -170 24t-159.5 75.5t-134 125t-91.5 181t-34 235.5v209q0 304 172 482q78 81 186 124.5t231 43.5t230.5 -44.5t187.5 -127.5q137 -143 164 -361h-410q-18 67 -59.5 113.5
t-112.5 46.5q-46 0 -81 -18t-54 -44.5t-30.5 -63.5t-15 -67.5t-3.5 -64.5v-248q0 -19 2 -38.5t7.5 -50.5t18.5 -57t32 -50t51 -38t73 -14q85 0 128.5 50t43.5 122h-149v285h561zM778 -289q0 -51 -33 -100l-178 -240h-164v340q0 77 55.5 132t133.5 55q76 0 131 -55t55 -132z
" />
    <glyph glyph-name="uni0123" unicode="&#x123;" horiz-adv-x="1177" 
d="M1022 1008v-1008q0 -148 -80.5 -258.5t-206 -164.5t-274.5 -54q-272 0 -453 151q5 5 47.5 58t91.5 115t56 71q81 -68 215 -68q209 0 209 160v60q-23 -42 -85.5 -69.5t-133.5 -27.5q-62 0 -121 17.5t-114 55.5t-96.5 92.5t-66 136t-24.5 178.5v100q0 111 36.5 202
t96.5 147.5t134.5 87t154.5 30.5q65 0 125 -21t94 -67v76h395zM514 287q57 0 88 39.5t31 103.5v141q0 63 -34.5 97t-84.5 34q-51 0 -86 -34t-35 -97v-141q0 -64 34 -103.5t87 -39.5zM672 1135h-312l164 448h148v-448z" />
    <glyph glyph-name="Hcircumflex" unicode="&#x124;" horiz-adv-x="1351" 
d="M725 1454h399v-1454h-399v553h-326v-553h-399v1454h399v-547h326v547zM801 1520l-234 159l-231 -157l-146 133l246 289h269l239 -304z" />
    <glyph glyph-name="hcircumflex" unicode="&#x125;" horiz-adv-x="1187" 
d="M393 578v-578h-393v1454h393v-518q23 42 88 70t137 28q87 0 159 -24t131 -75t91.5 -140.5t32.5 -210.5q0 -576 -2 -584h-403v578q0 64 -34 102.5t-87 38.5q-56 0 -84.5 -38.5t-28.5 -102.5zM434 1483l-233 159l-232 -157l-145 133l246 289h268l240 -303z" />
    <glyph glyph-name="Hbar" unicode="&#x126;" horiz-adv-x="1468" 
d="M1386 1321v-283h-143v-1040h-399v553h-328v-553h-399v1040h-144v283h144v135h399v-135h328v135h399v-135h143zM844 907v131h-328v-131h328z" />
    <glyph glyph-name="hbar" unicode="&#x127;" horiz-adv-x="1269" 
d="M692 1042q195 0 310.5 -120.5t115.5 -364.5v-559h-411v584q0 64 -33 103.5t-86 39.5q-56 0 -84.5 -39.5t-28.5 -103.5v-584h-401v1112h-99v236h99v110h401v-110h254v-236h-254v-166q21 42 84 70t133 28z" />
    <glyph glyph-name="Itilde" unicode="&#x128;" horiz-adv-x="585" 
d="M358 1565q-43 0 -76 11t-51 24.5t-48 24.5t-66 11q-73 0 -127 -69q1 0 -29 60.5t-60 121.5l-30 61q37 59 98.5 91t126.5 32q42 0 79.5 -17.5t65 -35.5t44.5 -18q86 0 110 63l135 -244q-50 -116 -172 -116zM0 1454h397v-1454h-397v1454z" />
    <glyph glyph-name="itilde" unicode="&#x129;" horiz-adv-x="534" 
d="M338 1133q-43 0 -76 11t-51.5 24.5t-48.5 24.5t-66 11q-73 0 -127 -69q1 0 -29 60.5t-60 121.5l-30 61q37 59 99 91t127 32q33 0 64 -11t50 -24.5t39.5 -24.5t34.5 -11q87 0 111 63l135 -244q-50 -116 -172 -116zM0 1008h362v-1008h-362v1008z" />
    <glyph glyph-name="Imacron" unicode="&#x12a;" horiz-adv-x="585" 
d="M0 1454h397v-1454h-397v1454zM-184 1794h794v-250h-794v250z" />
    <glyph glyph-name="imacron" unicode="&#x12b;" horiz-adv-x="534" 
d="M-109 1413h570v-209h-570v209zM0 1008h362v-1008h-362v1008z" />
    <glyph glyph-name="Iogonek" unicode="&#x12e;" horiz-adv-x="522" 
d="M358 -190h35l2 -267h-6q-180 -4 -280 76q-86 70 -113 148t-2 210q6 24 6 27v1450h395v-1450h-2v-2h-37q-39 -2 -66.5 -30.5t-27.5 -67.5q2 -39 29.5 -67t66.5 -27z" />
    <glyph glyph-name="iogonek" unicode="&#x12f;" horiz-adv-x="512" 
d="M2 6v1002h395v-1002v-4h-37q-40 0 -69 -28t-29 -68q0 -39 29 -66.5t69 -27.5h37v-269h-6q-83 0 -166 19t-131 61q-84 67 -110 159t6 187zM2 1456h395v-305h-395v305z" />
    <glyph glyph-name="Idotaccent" unicode="&#x130;" horiz-adv-x="585" 
d="M0 1454h397v-1454h-397v1454zM201 1921q70 0 126 -54t56 -128t-56 -129.5t-126 -55.5t-126.5 55.5t-56.5 129.5t56.5 128t126.5 54z" />
    <glyph glyph-name="dotlessi" unicode="&#x131;" horiz-adv-x="534" 
d="M0 1008h362v-1008h-362v1008z" />
    <glyph glyph-name="Jcircumflex" unicode="&#x134;" horiz-adv-x="1146" 
d="M969 1454v-854q0 -130 -34 -236t-91 -176.5t-135 -118t-162.5 -68.5t-177.5 -21q-114 0 -222 41.5t-192 123.5l287 287q57 -65 127 -65q48 0 84.5 16t55.5 39t30.5 55.5t14.5 57.5t3 53v866h412zM993 1505l-233 160l-232 -158l-145 133l246 289h268l240 -303z" />
    <glyph glyph-name="jcircumflex" unicode="&#x135;" horiz-adv-x="665" 
d="M88 1008h397v-1012q0 -148 -77 -261.5t-202 -169t-272 -48.5v331q69 -4 111.5 40.5t42.5 117.5v1002zM524 1100l-233 160l-232 -158l-145 133l246 289h268l240 -303z" />
    <glyph glyph-name="uni0136" unicode="&#x136;" horiz-adv-x="1347" 
d="M399 438v-438h-399v1454h399v-424l318 424h512l-490 -608l549 -846h-475l-338 532zM803 -297q0 -51 -33 -100l-178 -240h-164v340q0 77 55 131.5t133 54.5q77 0 132 -55t55 -131z" />
    <glyph glyph-name="uni0137" unicode="&#x137;" horiz-adv-x="1138" 
d="M1063 0h-453l-192 317l-25 -30v-287h-393v1454h393v-690l154 244h473l-385 -451zM715 -309q0 -52 -33 -101l-178 -239h-164v340q0 77 55 131.5t133 54.5q77 0 132 -55t55 -131z" />
    <glyph glyph-name="Lacute" unicode="&#x139;" horiz-adv-x="1185" 
d="M397 1454v-1092h647v-362h-1044v1454h397zM45 1569l176 432l361 -209l-250 -223h-287z" />
    <glyph glyph-name="lacute" unicode="&#x13a;" horiz-adv-x="569" 
d="M0 1454h395v-1454h-395v1454zM45 1501l176 432l361 -209l-250 -223h-287z" />
    <glyph glyph-name="uni013B" unicode="&#x13b;" horiz-adv-x="1185" 
d="M397 1454v-1092h647v-362h-1044v1454h397zM705 -319q0 -52 -33 -101l-178 -239h-164v340q0 77 55 131.5t133 54.5q77 0 132 -55t55 -131z" />
    <glyph glyph-name="uni013C" unicode="&#x13c;" horiz-adv-x="569" 
d="M0 1454h395v-1454h-395v1454zM401 -309q0 -54 -32 -101l-179 -239h-163v340q0 77 55 131.5t133 54.5q77 0 131.5 -54.5t54.5 -131.5z" />
    <glyph glyph-name="Lcaron" unicode="&#x13d;" horiz-adv-x="1185" 
d="M397 1454v-1092h647v-362h-1044v1454h397zM551 1454h311l-164 -448h-147v448z" />
    <glyph glyph-name="lcaron" unicode="&#x13e;" horiz-adv-x="940" 
d="M0 1454h395v-1454h-395v1454zM512 1454h311l-164 -448h-147v448z" />
    <glyph glyph-name="Ldot" unicode="&#x13f;" horiz-adv-x="1185" 
d="M397 1454v-1092h647v-362h-1044v1454h397zM864 1077q73 0 132 -58t59 -136t-58.5 -134.5t-132.5 -56.5t-134 56.5t-60 134.5t60 136t134 58z" />
    <glyph glyph-name="ldot" unicode="&#x140;" horiz-adv-x="954" 
d="M0 1454h395v-1454h-395v1454zM682 930q73 0 131.5 -58.5t58.5 -136.5t-58 -134t-132 -56t-134.5 56.5t-60.5 133.5q0 78 60.5 136.5t134.5 58.5z" />
    <glyph glyph-name="Lslash" unicode="&#x141;" horiz-adv-x="1337" 
d="M575 358h650v-358h-1057v596l-176 -90l-62 121l238 123v702h407v-498l185 95l63 -121l-248 -125v-445z" />
    <glyph glyph-name="lslash" unicode="&#x142;" horiz-adv-x="702" 
d="M637 846l-205 -123v-723h-375v549l-102 -60l-86 160l188 107v696h375v-520l119 80z" />
    <glyph glyph-name="Nacute" unicode="&#x143;" horiz-adv-x="1404" 
d="M1206 1454v-1454h-422l-387 690v-690h-397v1454h422l387 -692v692h397zM350 1534l176 432l361 -209l-250 -223h-287z" />
    <glyph glyph-name="nacute" unicode="&#x144;" horiz-adv-x="1177" 
d="M385 584v-584h-385v1008h365v-60q23 42 92 70.5t141 28.5q84 0 155.5 -25t129.5 -78t91.5 -144.5t33.5 -213.5v-586h-396v584q0 65 -33 105t-85 40q-55 0 -82 -39.5t-27 -105.5zM295 1143l176 432l360 -209l-249 -223h-287z" />
    <glyph glyph-name="uni0145" unicode="&#x145;" horiz-adv-x="1404" 
d="M1206 1454v-1454h-422l-387 690v-690h-397v1454h422l387 -692v692h397zM809 -301q0 -51 -33 -100l-178 -240h-164v340q0 77 55.5 131.5t133.5 54.5q77 0 131.5 -54.5t54.5 -131.5z" />
    <glyph glyph-name="uni0146" unicode="&#x146;" horiz-adv-x="1177" 
d="M385 584v-584h-385v1008h365v-60q23 42 92 70.5t141 28.5q84 0 155.5 -25t129.5 -78t91.5 -144.5t33.5 -213.5v-586h-396v584q0 65 -33 105t-85 40q-55 0 -82 -39.5t-27 -105.5zM696 -322q0 -53 -32 -100l-179 -240h-163v340q0 77 55 132t133 55q76 0 131 -55t55 -132z
" />
    <glyph glyph-name="Ncaron" unicode="&#x147;" horiz-adv-x="1404" 
d="M1206 1454v-1454h-422l-387 690v-690h-397v1454h422l387 -692v692h397zM578 1812l233 160l143 -121l-239 -303h-269l-245 289l145 133z" />
    <glyph glyph-name="ncaron" unicode="&#x148;" horiz-adv-x="1177" 
d="M385 584v-584h-385v1008h365v-60q23 42 92 70.5t141 28.5q84 0 155.5 -25t129.5 -78t91.5 -144.5t33.5 -213.5v-586h-396v584q0 65 -33 105t-85 40q-55 0 -82 -39.5t-27 -105.5zM465 1413l233 160l144 -121l-240 -303h-268l-246 289l145 133z" />
    <glyph glyph-name="Omacron" unicode="&#x14c;" horiz-adv-x="1318" 
d="M989 1309q170 -182 170 -480v-208q0 -129 -33 -237t-89.5 -182t-132.5 -125.5t-160.5 -75.5t-174.5 -24q-87 0 -170.5 24t-160 76t-133.5 126t-91 182t-34 236v208q0 306 172 484q78 81 186 124.5t231 43.5t232 -44.5t188 -127.5zM383 840v-236q0 -19 2 -39.5t8 -51.5
t19 -57.5t32 -51t51.5 -38.5t73.5 -14q48 0 84 19.5t55 47t30.5 64.5t14.5 65t3 56v236q0 34 -3.5 65t-15.5 68t-31.5 64t-55 45t-81.5 18q-57 0 -96.5 -25.5t-57.5 -69t-25 -82.5t-7 -83zM180 1812h795v-249h-795v249z" />
    <glyph glyph-name="omacron" unicode="&#x14d;" horiz-adv-x="1097" 
d="M467 1030q71 0 138 -15.5t130 -51t110.5 -88t76 -132t28.5 -176.5v-123q0 -91 -27 -167.5t-73.5 -130.5t-108 -92t-131 -56t-143.5 -18q-73 0 -142 18t-131 56.5t-108 92.5t-73 130.5t-27 166.5v123q0 97 28 176.5t75 132t110 88t130 51t138 15.5zM467 713q-53 0 -87 -39
t-34 -103v-143q0 -63 35 -97t86 -34t86 34t35 97v143q0 63 -32 102.5t-89 39.5zM72 1421h794v-250h-794v250z" />
    <glyph glyph-name="Obreve" unicode="&#x14e;" horiz-adv-x="1318" 
d="M989 1309q170 -182 170 -480v-208q0 -129 -33 -237t-89.5 -182t-132.5 -125.5t-160.5 -75.5t-174.5 -24q-87 0 -170.5 24t-160 76t-133.5 126t-91 182t-34 236v208q0 306 172 484q78 81 186 124.5t231 43.5t232 -44.5t188 -127.5zM383 840v-236q0 -19 2 -39.5t8 -51.5
t19 -57.5t32 -51t51.5 -38.5t73.5 -14q48 0 84 19.5t55 47t30.5 64.5t14.5 65t3 56v236q0 34 -3.5 65t-15.5 68t-31.5 64t-55 45t-81.5 18q-57 0 -96.5 -25.5t-57.5 -69t-25 -82.5t-7 -83zM563 1554q-99 0 -208.5 53t-190.5 140l178 166q49 -56 111.5 -87.5t109.5 -31.5
q115 0 225 119l177 -168q-88 -92 -192 -141.5t-210 -49.5z" />
    <glyph glyph-name="Ohungarumlaut" unicode="&#x150;" horiz-adv-x="1318" 
d="M989 1309q170 -182 170 -480v-208q0 -129 -33 -237t-89.5 -182t-132.5 -125.5t-160.5 -75.5t-174.5 -24q-87 0 -170.5 24t-160 76t-133.5 126t-91 182t-34 236v208q0 306 172 484q78 81 186 124.5t231 43.5t232 -44.5t188 -127.5zM383 840v-236q0 -19 2 -39.5t8 -51.5
t19 -57.5t32 -51t51.5 -38.5t73.5 -14q48 0 84 19.5t55 47t30.5 64.5t14.5 65t3 56v236q0 34 -3.5 65t-15.5 68t-31.5 64t-55 45t-81.5 18q-57 0 -96.5 -25.5t-57.5 -69t-25 -82.5t-7 -83zM846 1993l164 -131l-246 -326l-182 152zM463 2001l164 -131l-246 -326l-182 152z
" />
    <glyph glyph-name="ohungarumlaut" unicode="&#x151;" horiz-adv-x="1097" 
d="M467 1030q71 0 138 -15.5t130 -51t110.5 -88t76 -132t28.5 -176.5v-123q0 -91 -27 -167.5t-73.5 -130.5t-108 -92t-131 -56t-143.5 -18q-73 0 -142 18t-131 56.5t-108 92.5t-73 130.5t-27 166.5v123q0 97 28 176.5t75 132t110 88t130 51t138 15.5zM467 713q-53 0 -87 -39
t-34 -103v-143q0 -63 35 -97t86 -34t86 34t35 97v143q0 63 -32 102.5t-89 39.5zM745 1540l164 -131l-245 -326l-183 152zM362 1548l164 -131l-245 -325l-183 151z" />
    <glyph glyph-name="OE" unicode="&#x152;" horiz-adv-x="1802" 
d="M1608 1098h-574v-205h430v-332h-430v-205h574v-356h-973h-57q-86 0 -169 24t-159 75.5t-133 125.5t-91 182t-34 236v156q0 310 168 487q80 80 188.5 124t229.5 44h57h24h949v-356zM557 375h119v698h-119q-57 0 -96.5 -25.5t-57.5 -69t-25 -83t-7 -84.5v-186
q0 -23 3 -48.5t14.5 -63.5t30 -67t54.5 -50t84 -21z" />
    <glyph glyph-name="oe" unicode="&#x153;" horiz-adv-x="1726" 
d="M1554 510v-119h-614q0 -41 50 -76.5t120 -35.5q58 0 103.5 11.5t91.5 49.5q17 -17 72 -67.5t102 -94t51 -49.5q-33 -29 -66 -50.5t-85.5 -45.5t-124.5 -37.5t-158 -13.5q-88 0 -189.5 38t-140.5 95q-37 -58 -133.5 -95.5t-192.5 -37.5q-69 0 -135.5 20t-125.5 60t-104 96
t-71.5 134t-26.5 167v90q0 121 43 216.5t113.5 151.5t153.5 84.5t172 28.5q85 0 178 -35.5t129 -93.5q33 58 125.5 93.5t181.5 35.5q73 0 138.5 -14.5t129.5 -52t110 -94.5t74.5 -149.5t28.5 -209.5zM578 426v145q0 65 -30.5 103.5t-88.5 38.5q-53 0 -86 -39t-33 -103v-145
q0 -61 35 -95t84 -34q52 0 85.5 33.5t33.5 95.5zM940 623h268q0 54 -37 91.5t-104 37.5q-63 0 -95 -38t-32 -91z" />
    <glyph glyph-name="Racute" unicode="&#x154;" horiz-adv-x="1257" 
d="M1126 0h-432l-194 442h-101v-442h-399v1454h516q123 0 221.5 -29.5t164 -78.5t109 -116t62.5 -139.5t19 -152.5q0 -121 -58.5 -231.5t-171.5 -182.5zM399 1106v-332h115q195 0 195 166q0 49 -19 83.5t-50 51.5t-62 24t-64 7h-115zM311 1532l176 432l361 -209l-250 -223
h-287z" />
    <glyph glyph-name="racute" unicode="&#x155;" horiz-adv-x="888" 
d="M653 655q-48 39 -127 39q-60 0 -100.5 -37.5t-40.5 -105.5v-551h-385v1008h367v-93q18 47 88 79t141 32q118 0 215 -63zM143 1094l176 432l361 -209l-250 -223h-287z" />
    <glyph glyph-name="uni0156" unicode="&#x156;" horiz-adv-x="1257" 
d="M1126 0h-432l-194 442h-101v-442h-399v1454h516q123 0 221.5 -29.5t164 -78.5t109 -116t62.5 -139.5t19 -152.5q0 -121 -58.5 -231.5t-171.5 -182.5zM399 1106v-332h115q195 0 195 166q0 49 -19 83.5t-50 51.5t-62 24t-64 7h-115zM748 -301q0 -51 -33 -100l-178 -240
h-164v340q0 77 55 131.5t133 54.5q77 0 132 -55t55 -131z" />
    <glyph glyph-name="uni0157" unicode="&#x157;" horiz-adv-x="888" 
d="M653 655q-48 39 -127 39q-60 0 -100.5 -37.5t-40.5 -105.5v-551h-385v1008h367v-93q18 47 88 79t141 32q118 0 215 -63zM410 -342q0 -51 -33 -100l-178 -240h-164v340q0 77 55 131.5t133 54.5q77 0 132 -55t55 -131z" />
    <glyph glyph-name="Rcaron" unicode="&#x158;" horiz-adv-x="1257" 
d="M1126 0h-432l-194 442h-101v-442h-399v1454h516q123 0 221.5 -29.5t164 -78.5t109 -116t62.5 -139.5t19 -152.5q0 -121 -58.5 -231.5t-171.5 -182.5zM399 1106v-332h115q195 0 195 166q0 49 -19 83.5t-50 51.5t-62 24t-64 7h-115zM487 1810l234 160l143 -121l-239 -303
h-269l-245 289l145 133z" />
    <glyph glyph-name="rcaron" unicode="&#x159;" horiz-adv-x="888" 
d="M653 655q-48 39 -127 39q-60 0 -100.5 -37.5t-40.5 -105.5v-551h-385v1008h367v-93q18 47 88 79t141 32q118 0 215 -63zM381 1382l233 160l144 -121l-240 -303h-268l-246 289l146 133z" />
    <glyph glyph-name="Sacute" unicode="&#x15a;" horiz-adv-x="1198" 
d="M569 918q116 -24 159 -38q316 -109 300 -466q-9 -202 -160 -322q-148 -117 -387 -117q-141 0 -301 53.5t-248 153.5l-16 21l262 260l23 -21q39 -45 123.5 -71.5t148.5 -26.5q61 0 104.5 21t43.5 71q0 23 -4.5 36.5t-20.5 30.5t-53 31t-97 27q-76 16 -139.5 38.5
t-124.5 60.5t-103 87.5t-67.5 121.5t-25.5 159q0 132 74.5 236t191.5 157.5t252 53.5q167 0 298 -48.5t208 -132.5l18 -20l-256 -244l-18 19q-93 77 -242 77q-41 0 -74.5 -7.5t-58.5 -29.5t-25 -57q0 -38 48 -63.5t167 -50.5zM342 1532l176 432l361 -209l-250 -223h-287z
" />
    <glyph glyph-name="sacute" unicode="&#x15b;" horiz-adv-x="1044" 
d="M160 358l12 -8q12 -9 16.5 -12t18.5 -12.5t22.5 -14.5t24.5 -13.5t27.5 -13t28.5 -11t31.5 -9.5t32 -5.5t34.5 -2.5h41q36 0 56.5 13t20.5 30q0 30 -27 41.5t-153 38.5q-91 19 -157.5 55.5t-100 80.5t-48.5 84t-15 79v41q0 142 124 222.5t322 80.5q139 0 241.5 -38.5
t161.5 -92.5l-176 -219q-6 6 -17.5 15t-51.5 28t-84 26q-66 11 -119 1t-53 -42q0 -16 10 -25.5t35 -16.5t53.5 -12t79 -15.5t98.5 -24.5q130 -38 196 -115t66 -172v-40q0 -129 -129 -216.5t-329 -87.5q-155 0 -267.5 30t-228.5 126zM233 1120l177 432l360 -209l-250 -223
h-287z" />
    <glyph glyph-name="Scircumflex" unicode="&#x15c;" horiz-adv-x="1198" 
d="M569 918q116 -24 159 -38q316 -109 300 -466q-9 -202 -160 -322q-148 -117 -387 -117q-141 0 -301 53.5t-248 153.5l-16 21l262 260l23 -21q39 -45 123.5 -71.5t148.5 -26.5q61 0 104.5 21t43.5 71q0 23 -4.5 36.5t-20.5 30.5t-53 31t-97 27q-76 16 -139.5 38.5
t-124.5 60.5t-103 87.5t-67.5 121.5t-25.5 159q0 132 74.5 236t191.5 157.5t252 53.5q167 0 298 -48.5t208 -132.5l18 -20l-256 -244l-18 19q-93 77 -242 77q-41 0 -74.5 -7.5t-58.5 -29.5t-25 -57q0 -38 48 -63.5t167 -50.5zM791 1524l-234 159l-231 -157l-146 133l246 289
h268l240 -303z" />
    <glyph glyph-name="scircumflex" unicode="&#x15d;" horiz-adv-x="1044" 
d="M160 358l12 -8q12 -9 16.5 -12t18.5 -12.5t22.5 -14.5t24.5 -13.5t27.5 -13t28.5 -11t31.5 -9.5t32 -5.5t34.5 -2.5h41q36 0 56.5 13t20.5 30q0 30 -27 41.5t-153 38.5q-91 19 -157.5 55.5t-100 80.5t-48.5 84t-15 79v41q0 142 124 222.5t322 80.5q139 0 241.5 -38.5
t161.5 -92.5l-176 -219q-6 6 -17.5 15t-51.5 28t-84 26q-66 11 -119 1t-53 -42q0 -16 10 -25.5t35 -16.5t53.5 -12t79 -15.5t98.5 -24.5q130 -38 196 -115t66 -172v-40q0 -129 -129 -216.5t-329 -87.5q-155 0 -267.5 30t-228.5 126zM696 1110l-233 160l-232 -158l-145 133
l246 289h268l240 -303z" />
    <glyph glyph-name="Scedilla" unicode="&#x15e;" horiz-adv-x="1161" 
d="M555 920q114 -25 132 -30q347 -102 327 -474q-6 -201 -160 -320q-117 -90 -274 -110l2 -13q54 -18 93 -53.5t55.5 -77t22 -87.5t-7.5 -83q-36 -108 -124 -152.5t-199 -19.5l-137 39l57 203q122 -39 145 -43q28 -7 43 1t19 21q1 5 2.5 14t-9 21.5t-32.5 18.5l-150 39
l43 168q-134 10 -269 61.5t-212 140.5l-18 19l262 262l24 -23q39 -44 123.5 -71t147.5 -27q59 0 103 21.5t44 72.5q0 23 -4.5 36.5t-20.5 30t-52.5 30t-96.5 26.5q-459 95 -459 465q0 132 74 236t191 157.5t252 53.5q167 0 296.5 -48t206.5 -133l19 -18l-256 -244l-19 19
q-93 77 -241 77q-64 0 -110 -21.5t-46 -70.5q0 -40 47 -65.5t166 -48.5z" />
    <glyph glyph-name="scedilla" unicode="&#x15f;" horiz-adv-x="1044" 
d="M639 618q66 -18 114 -63.5t68.5 -102t25 -121t-15.5 -120.5q-26 -88 -106 -143t-184 -74l8 -27q52 -18 90 -53.5t54.5 -76.5t22 -87t-6.5 -84q-36 -104 -123.5 -148t-198.5 -20q-13 5 -46 14.5t-60 15.5l-27 7l53 201q123 -37 148 -39q31 -7 44 -0.5t15 20.5q1 5 3 13.5
t-8.5 20.5t-33.5 18l-147 38l45 179q-114 5 -215 38.5t-199 114.5l205 223l9 -6q127 -85 271 -98q55 -6 77 27q18 27 -7 49q-16 14 -45 18q-43 7 -75.5 13t-82 20t-86 31t-77.5 44.5t-67 61t-43.5 82t-17.5 105.5q0 84 37 147t99.5 98.5t135 52.5t154.5 17q127 0 236.5 -40
t163.5 -91l-174 -215q-66 36 -160 67q-64 20 -116 11t-52 -41q0 -21 12.5 -32.5t40.5 -18t59.5 -10.5t83.5 -13.5t99 -22.5z" />
    <glyph glyph-name="Scaron" unicode="&#x160;" horiz-adv-x="1198" 
d="M569 918q116 -24 159 -38q316 -109 300 -466q-9 -202 -160 -322q-148 -117 -387 -117q-141 0 -301 53.5t-248 153.5l-16 21l262 260l23 -21q39 -45 123.5 -71.5t148.5 -26.5q61 0 104.5 21t43.5 71q0 23 -4.5 36.5t-20.5 30.5t-53 31t-97 27q-76 16 -139.5 38.5
t-124.5 60.5t-103 87.5t-67.5 121.5t-25.5 159q0 132 74.5 236t191.5 157.5t252 53.5q167 0 298 -48.5t208 -132.5l18 -20l-256 -244l-18 19q-93 77 -242 77q-41 0 -74.5 -7.5t-58.5 -29.5t-25 -57q0 -38 48 -63.5t167 -50.5zM530 1802l234 160l143 -121l-239 -303h-269
l-245 289l145 133z" />
    <glyph glyph-name="scaron" unicode="&#x161;" horiz-adv-x="1044" 
d="M160 358l12 -8q12 -9 16.5 -12t18.5 -12.5t22.5 -14.5t24.5 -13.5t27.5 -13t28.5 -11t31.5 -9.5t32 -5.5t34.5 -2.5h41q36 0 56.5 13t20.5 30q0 30 -27 41.5t-153 38.5q-91 19 -157.5 55.5t-100 80.5t-48.5 84t-15 79v41q0 142 124 222.5t322 80.5q139 0 241.5 -38.5
t161.5 -92.5l-176 -219q-6 6 -17.5 15t-51.5 28t-84 26q-66 11 -119 1t-53 -42q0 -16 10 -25.5t35 -16.5t53.5 -12t79 -15.5t98.5 -24.5q130 -38 196 -115t66 -172v-40q0 -129 -129 -216.5t-329 -87.5q-155 0 -267.5 30t-228.5 126zM449 1397l233 159l143 -120l-239 -303
h-269l-245 288l145 133z" />
    <glyph glyph-name="uni0162" unicode="&#x162;" horiz-adv-x="1269" 
d="M1169 1452v-360h-385v-1092h-399v1092h-385v360h1169zM674 -66q46 -12 82 -38t56.5 -57.5t33 -68.5t11 -72t-8.5 -67q-36 -106 -124 -150t-198 -20l-135 37l55 203q125 -35 148 -39q45 -13 61 19q8 39 -43 55l-147 39l59 225h119z" />
    <glyph glyph-name="uni0163" unicode="&#x163;" horiz-adv-x="722" 
d="M573 737h-124v-299q0 -73 28.5 -103.5t89.5 -27.5v-311h-118q-181 0 -280 80t-99 233v428h-101v271h101v307h379v-307h124v-271zM389 -121q46 -12 82 -38t56.5 -57.5t33 -68.5t11 -72t-8.5 -67q-36 -106 -123.5 -150t-197.5 -20l-136 37l56 203q124 -35 147 -39
q46 -14 62 18q8 40 -43 56l-148 38l60 226h118z" />
    <glyph glyph-name="Tcaron" unicode="&#x164;" horiz-adv-x="1269" 
d="M1169 1452v-360h-385v-1092h-399v1092h-385v360h1169zM573 1798l234 160l143 -121l-239 -303h-269l-245 289l145 133z" />
    <glyph glyph-name="tcaron" unicode="&#x165;" horiz-adv-x="989" 
d="M573 737h-124v-299q0 -73 28.5 -103.5t89.5 -27.5v-311h-118q-181 0 -280 80t-99 233v428h-101v271h101v307h379v-307h124v-271zM557 1573h311l-163 -449h-148v449z" />
    <glyph glyph-name="Utilde" unicode="&#x168;" horiz-adv-x="1320" 
d="M762 1454h399v-844q0 -127 -33 -232.5t-88.5 -178t-130.5 -123t-157.5 -73.5t-171.5 -23q-86 0 -167.5 23.5t-157 74t-132 123t-90 178t-33.5 231.5v844h397v-879q0 -23 2.5 -48t13.5 -62.5t29 -65.5t54 -48.5t84 -20.5q47 0 82.5 19t53.5 45.5t29.5 63t14 63t2.5 54.5
v879zM788 1548q-60 0 -106.5 14.5t-73 33t-70.5 37.5t-96 26q-104 13 -170 -76q1 0 -36.5 15.5t-75.5 31.5l-37 15q13 113 93 198.5t194 85.5q60 0 114 -15t87.5 -34t76 -37.5t80.5 -23.5q52 -7 83.5 17.5t53.5 78.5l176 -74q-13 -109 -97.5 -201t-195.5 -92z" />
    <glyph glyph-name="utilde" unicode="&#x169;" horiz-adv-x="1212" 
d="M645 424v584h399v-1008h-380v61q-22 -41 -92.5 -65.5t-145.5 -24.5q-64 0 -123 14.5t-115 48.5t-97 85t-66 130t-25 177v582h410v-584q0 -64 33.5 -103.5t86.5 -39.5q56 0 85.5 39.5t29.5 103.5zM727 1122q-60 0 -106.5 14.5t-73 33t-70.5 37.5t-96 26q-104 13 -170 -76
q1 0 -36.5 15.5t-75.5 31.5l-38 15q13 113 93 198.5t194 85.5q60 0 114 -15t87.5 -34t76.5 -37.5t81 -23.5q52 -7 83.5 17.5t53.5 78.5l176 -74q-13 -109 -97.5 -201t-195.5 -92z" />
    <glyph glyph-name="Umacron" unicode="&#x16a;" horiz-adv-x="1320" 
d="M762 1454h399v-844q0 -127 -33 -232.5t-88.5 -178t-130.5 -123t-157.5 -73.5t-171.5 -23q-86 0 -167.5 23.5t-157 74t-132 123t-90 178t-33.5 231.5v844h397v-879q0 -23 2.5 -48t13.5 -62.5t29 -65.5t54 -48.5t84 -20.5q47 0 82.5 19t53.5 45.5t29.5 63t14 63t2.5 54.5
v879zM199 1794h794v-250h-794v250z" />
    <glyph glyph-name="umacron" unicode="&#x16b;" horiz-adv-x="1212" 
d="M645 424v584h399v-1008h-380v61q-22 -41 -92.5 -65.5t-145.5 -24.5q-64 0 -123 14.5t-115 48.5t-97 85t-66 130t-25 177v582h410v-584q0 -64 33.5 -103.5t86.5 -39.5q56 0 85.5 39.5t29.5 103.5zM137 1436h795v-250h-795v250z" />
    <glyph glyph-name="Ubreve" unicode="&#x16c;" horiz-adv-x="1320" 
d="M762 1454h399v-844q0 -127 -33 -232.5t-88.5 -178t-130.5 -123t-157.5 -73.5t-171.5 -23q-86 0 -167.5 23.5t-157 74t-132 123t-90 178t-33.5 231.5v844h397v-879q0 -23 2.5 -48t13.5 -62.5t29 -65.5t54 -48.5t84 -20.5q47 0 82.5 19t53.5 45.5t29.5 63t14 63t2.5 54.5
v879zM586 1565q-99 0 -209 52.5t-191 139.5l179 166q49 -56 111.5 -87.5t109.5 -31.5q115 0 225 119l176 -168q-88 -92 -191.5 -141t-209.5 -49z" />
    <glyph glyph-name="ubreve" unicode="&#x16d;" horiz-adv-x="1212" 
d="M645 424v584h399v-1008h-380v61q-22 -41 -92.5 -65.5t-145.5 -24.5q-64 0 -123 14.5t-115 48.5t-97 85t-66 130t-25 177v582h410v-584q0 -64 33.5 -103.5t86.5 -39.5q56 0 85.5 39.5t29.5 103.5zM530 1157q-99 0 -208.5 53t-190.5 140l178 166q49 -56 111.5 -87.5
t109.5 -31.5q116 0 226 119l176 -168q-88 -92 -192 -141.5t-210 -49.5z" />
    <glyph glyph-name="Uring" unicode="&#x16e;" horiz-adv-x="1320" 
d="M762 1454h399v-844q0 -127 -33 -232.5t-88.5 -178t-130.5 -123t-157.5 -73.5t-171.5 -23q-86 0 -167.5 23.5t-157 74t-132 123t-90 178t-33.5 231.5v844h397v-879q0 -23 2.5 -48t13.5 -62.5t29 -65.5t54 -48.5t84 -20.5q47 0 82.5 19t53.5 45.5t29.5 63t14 63t2.5 54.5
v879zM580 1991q87 0 156 -67t69 -157q0 -91 -69.5 -158t-155.5 -67t-155 67t-69 158t69 157.5t155 66.5zM512 1769q0 -28 21 -48.5t49 -20.5t47.5 20.5t19.5 48.5t-19.5 48t-47.5 20t-49 -20t-21 -48z" />
    <glyph glyph-name="uring" unicode="&#x16f;" horiz-adv-x="1212" 
d="M645 424v584h399v-1008h-380v61q-22 -41 -92.5 -65.5t-145.5 -24.5q-64 0 -123 14.5t-115 48.5t-97 85t-66 130t-25 177v582h410v-584q0 -64 33.5 -103.5t86.5 -39.5q56 0 85.5 39.5t29.5 103.5zM524 1546q87 0 156.5 -66.5t69.5 -156.5q0 -91 -69.5 -158t-156.5 -67
q-86 0 -154.5 67t-68.5 158t68.5 157t154.5 66zM457 1325q0 -28 20.5 -49t48.5 -21t48 21t20 49t-20 48t-48 20t-48.5 -20t-20.5 -48z" />
    <glyph glyph-name="Uhungarumlaut" unicode="&#x170;" horiz-adv-x="1320" 
d="M762 1454h399v-844q0 -127 -33 -232.5t-88.5 -178t-130.5 -123t-157.5 -73.5t-171.5 -23q-86 0 -167.5 23.5t-157 74t-132 123t-90 178t-33.5 231.5v844h397v-879q0 -23 2.5 -48t13.5 -62.5t29 -65.5t54 -48.5t84 -20.5q47 0 82.5 19t53.5 45.5t29.5 63t14 63t2.5 54.5
v879zM856 1989l164 -131l-246 -326l-182 151zM473 1997l164 -131l-246 -326l-182 152z" />
    <glyph glyph-name="uhungarumlaut" unicode="&#x171;" horiz-adv-x="1212" 
d="M645 424v584h399v-1008h-380v61q-22 -41 -92.5 -65.5t-145.5 -24.5q-64 0 -123 14.5t-115 48.5t-97 85t-66 130t-25 177v582h410v-584q0 -64 33.5 -103.5t86.5 -39.5q56 0 85.5 39.5t29.5 103.5zM782 1554l164 -131l-246 -325l-182 151zM399 1563l164 -131l-246 -326
l-182 151z" />
    <glyph glyph-name="Uogonek" unicode="&#x172;" horiz-adv-x="1341" 
d="M760 1454h399v-844q0 -133 -36 -242.5t-98.5 -184t-141.5 -122t-172 -67.5h-2q-35 -12 -52 -45t-4 -66q9 -35 42 -51.5t69 -5.5l33 10l73 -231l-4 -4q-148 -47 -260 -4q-92 36 -147.5 110.5t-61.5 161.5q-3 72 23 131q-87 24 -160.5 73t-132.5 122t-93 180t-34 235v844
h395v-879q0 -24 2.5 -49t13.5 -62t29.5 -65t54 -48.5t83.5 -20.5q47 0 82.5 19t53.5 46t29.5 63.5t14 63t2.5 53.5v879z" />
    <glyph glyph-name="uogonek" unicode="&#x173;" horiz-adv-x="1095" 
d="M897 6q-36 -6 -59 -33t-23 -63q0 -38 28 -66t68 -28h37v-265q-76 -2 -149.5 18.5t-126.5 63.5q-82 65 -112.5 150.5t-8.5 177.5q14 47 37 80v117q0 -7 -2 -18.5t-17.5 -40.5t-41 -51.5t-79.5 -41t-126 -18.5q-81 0 -141.5 25t-95 63.5t-55.5 95t-27.5 108t-6.5 113.5v613
h358v-568q0 -143 113 -143q53 0 80.5 32.5t27.5 106.5v572h373v-1000h-51z" />
    <glyph glyph-name="Wcircumflex" unicode="&#x174;" horiz-adv-x="1851" 
d="M735 0h-405l-359 1454h408l160 -688l139 651h387l143 -651l160 688h406l-375 -1454h-387l-138 600zM1114 1532l-233 160l-232 -158l-145 133l246 289h268l239 -303z" />
    <glyph glyph-name="wcircumflex" unicode="&#x175;" horiz-adv-x="1638" 
d="M655 0h-440l-258 1008h401l125 -502l119 502h330l115 -502l118 502h385l-278 -1008h-406l-104 340zM1001 1071l-233 160l-231 -158l-146 133l246 289h268l240 -303z" />
    <glyph glyph-name="Ycircumflex" unicode="&#x176;" horiz-adv-x="1341" 
d="M1251 1454l-465 -924v-530h-405v530l-449 924h443l217 -481l215 481h444zM823 1544l-233 160l-232 -158l-145 133l246 289h268l240 -303z" />
    <glyph glyph-name="ycircumflex" unicode="&#x177;" horiz-adv-x="1142" 
d="M1047 1008l-422 -1192q-39 -104 -110.5 -173t-156.5 -95t-176 -20.5t-176 42.5l80 280q122 -46 185 13.5t34 152.5l-348 992h410l135 -568l135 568h410zM737 1094l-233 159l-232 -157l-145 133l246 289h268l240 -304z" />
    <glyph glyph-name="Ydieresis" unicode="&#x178;" horiz-adv-x="1320" 
d="M1251 1454l-465 -924v-530h-405v530l-449 924h443l217 -481l215 481h444zM799 1874q59 0 106 -47t47 -109t-46.5 -106.5t-106.5 -44.5t-108 44.5t-48 106.5t48 109t108 47zM358 1874q59 0 106.5 -47t47.5 -109t-47 -106.5t-107 -44.5t-107.5 44.5t-47.5 106.5t48 109
t107 47z" />
    <glyph glyph-name="Zacute" unicode="&#x179;" horiz-adv-x="1284" 
d="M1145 1094l-647 -734h647v-360h-1145v360l662 734h-662v360h1145v-360zM332 1532l176 432l360 -209l-250 -223h-286z" />
    <glyph glyph-name="zacute" unicode="&#x17a;" horiz-adv-x="1028" 
d="M868 1008v-303l-356 -379h371v-326h-883v291l385 393h-369v324h852zM209 1090l176 432l360 -209l-249 -223h-287z" />
    <glyph glyph-name="Zdotaccent" unicode="&#x17b;" horiz-adv-x="1284" 
d="M1145 1094l-647 -734h647v-360h-1145v360l662 734h-662v360h1145v-360zM559 1923q70 0 126 -54t56 -128t-56 -129.5t-126 -55.5t-126 55.5t-56 129.5t56 128t126 54z" />
    <glyph glyph-name="zdotaccent" unicode="&#x17c;" horiz-adv-x="1028" 
d="M868 1008v-303l-356 -379h371v-326h-883v291l385 393h-369v324h852zM451 1518q70 0 126 -54.5t56 -128.5t-56 -129t-126 -55t-126.5 55t-56.5 129t56.5 128.5t126.5 54.5z" />
    <glyph glyph-name="Zcaron" unicode="&#x17d;" horiz-adv-x="1284" 
d="M1145 1094l-647 -734h647v-360h-1145v360l662 734h-662v360h1145v-360zM547 1808l233 160l144 -121l-240 -303h-268l-246 289l145 133z" />
    <glyph glyph-name="zcaron" unicode="&#x17e;" horiz-adv-x="1028" 
d="M868 1008v-303l-356 -379h371v-326h-883v291l385 393h-369v324h852zM432 1380l234 160l143 -121l-240 -303h-268l-246 289l146 133z" />
    <glyph glyph-name="florin" unicode="&#x192;" horiz-adv-x="901" 
d="M657 1262q-49 0 -78 -24t-42 -93l-13 -76l178 2l-43 -192h-172l-114 -607q-26 -134 -103.5 -209t-191.5 -75h-2q-35 0 -51 4l-52 6l31 201h41q49 2 76.5 25.5t40.5 92.5l10 50l96 512l-157 -2l39 192h155l25 121q28 153 126 228.5t236 49.5l82 -14l-29 -201l-51 7
q-12 2 -37 2z" />
    <glyph glyph-name="Ohorn" unicode="&#x1a0;" horiz-adv-x="1329" 
d="M989 1309q170 -182 170 -480v-208q0 -129 -33 -237t-89.5 -182t-132.5 -125.5t-160.5 -75.5t-174.5 -24q-87 0 -170.5 24t-160 76t-133.5 126t-91 182t-34 236v208q0 306 172 484q78 81 186 124.5t231 43.5t232 -44.5t188 -127.5zM383 840v-236q0 -19 2 -39.5t8 -51.5
t19 -57.5t32 -51t51.5 -38.5t73.5 -14q48 0 84 19.5t55 47t30.5 64.5t14.5 65t3 56v236q0 34 -3.5 65t-15.5 68t-31.5 64t-55 45t-81.5 18q-57 0 -96.5 -25.5t-57.5 -69t-25 -82.5t-7 -83zM494 1995h311l-164 -449h-147v449z" />
    <glyph glyph-name="uni01DD" unicode="&#x1dd;" horiz-adv-x="1087" 
d="M-35 500v118h615q0 42 -49 77.5t-119 35.5q-38 0 -63 -2.5t-62.5 -17t-69.5 -41.5q-22 23 -121 113t-104 96q32 29 66.5 51.5t88.5 47t130.5 37.5t168.5 13q90 0 175 -32t154 -90.5t111 -151t42 -203.5v-90q0 -97 -28 -178t-75 -136t-109.5 -93t-130.5 -55t-139 -17
q-72 0 -137.5 14.5t-129.5 52t-110.5 94.5t-75 148.5t-28.5 208.5zM453 260q65 0 96 36.5t31 92.5h-265q0 -55 36 -92t102 -37z" />
    <glyph glyph-name="Aringacute" unicode="&#x1fa;" horiz-adv-x="1345" 
d="M848 0l-47 176h-408l-55 -176h-397l454 1454h396l454 -1454h-397zM473 492h248l-129 450zM614 1903q87 0 156.5 -67t69.5 -157q0 -91 -69.5 -158t-156.5 -67q-86 0 -154.5 67t-68.5 158t68.5 157.5t154.5 66.5zM547 1681q0 -28 20.5 -48.5t48.5 -20.5t48 20.5t20 48.5
t-20 48t-48 20t-48.5 -20t-20.5 -48zM461 1962l176 432l360 -209l-249 -223h-287z" />
    <glyph glyph-name="aringacute" unicode="&#x1fb;" horiz-adv-x="1095" 
d="M932 0h-357v80q-2 -4 -5.5 -10.5t-22 -23t-43 -29t-71.5 -23t-105 -10.5q-95 0 -174.5 32.5t-130 99t-50.5 156.5v23q0 330 508 330h84q1 5 2 13t-2 28.5t-11.5 36.5t-32 29t-58.5 13h-68q-109 0 -194 -75l-172 221q151 139 409 139h49q32 0 64.5 -3t78 -13t85.5 -26.5
t81 -46.5t70 -69.5t47.5 -99t18.5 -131.5v-336v-305zM563 412h-76q-172 0 -172 -93q0 -41 34.5 -59t78.5 -18q64 0 99.5 38.5t35.5 86.5v45zM473 1479q87 0 156 -67t69 -157q0 -91 -69.5 -158t-155.5 -67t-154.5 67t-68.5 158t68.5 157.5t154.5 66.5zM406 1257
q0 -28 20.5 -48.5t48.5 -20.5t48 20.5t20 48.5t-20 48t-48 20t-48.5 -20t-20.5 -48zM317 1565l177 432l360 -209l-250 -223h-287z" />
    <glyph glyph-name="AEacute" unicode="&#x1fc;" horiz-adv-x="1636" 
d="M1087 354h420v-354h-671l-37 174h-434l-66 -174h-397l557 1454h983v-354h-506l43 -211h434v-326h-369zM465 492h248l-95 448zM616 1567l177 432l360 -209l-250 -223h-287z" />
    <glyph glyph-name="aeacute" unicode="&#x1fd;" horiz-adv-x="1720" 
d="M940 389q-2 -8 -6 -14q5 -40 52.5 -70.5t115.5 -30.5q56 0 101 12t91 50q24 -24 124 -115.5t104 -95.5q-65 -57 -173.5 -103.5t-222.5 -46.5q-91 0 -207.5 43t-152.5 101q-39 -63 -140 -103.5t-247 -40.5q-181 0 -290 76t-109 213v25q0 332 509 332h82q-2 1 0.5 12.5
t-3 29.5t-14.5 35.5t-33.5 30t-59.5 12.5h-33q-59 0 -121 -21.5t-100 -55.5l-174 223q148 139 413 139h46q58 0 147.5 -31t126.5 -75q38 43 131 74.5t168 31.5q73 0 138.5 -14.5t129.5 -52t110 -94.5t74.5 -149.5t28.5 -209.5v-117h-606zM567 360v46h-75q-170 0 -170 -93
q0 -40 34 -58.5t80 -18.5q61 0 96 38t35 86zM1059 748q-49 0 -79.5 -22.5t-41.5 -59.5q0 -5 1 -14.5t1 -16.5v-19h258q0 57 -36.5 94.5t-102.5 37.5zM631 1145l176 432l360 -209l-249 -223h-287z" />
    <glyph glyph-name="Oslashacute" unicode="&#x1fe;" horiz-adv-x="1318" 
d="M412 1565l176 432l360 -209l-250 -223h-286zM1034 1477l135 -107l-114 -149q104 -157 104 -392v-208q0 -129 -33 -236.5t-89 -181.5t-131.5 -125t-160 -74.5t-174.5 -23.5q-209 0 -368 129l-101 -132l-137 105l119 158q-100 156 -100 381v208q0 304 172 482
q77 81 184 123.5t231 42.5q213 0 367 -123zM387 840v-207l313 411q-49 56 -129 56q-46 0 -81 -18.5t-54 -45.5t-30.5 -64.5t-15 -68t-3.5 -63.5zM758 604v227l-320 -415q49 -64 133 -64q48 0 84 19.5t55 47t30.5 64.5t14.5 65t3 56z" />
    <glyph glyph-name="oslashacute" unicode="&#x1ff;" horiz-adv-x="1097" 
d="M307 1108l176 432l361 -209l-250 -223h-287zM985 881l-88 -86q61 -113 61 -277q0 -536 -487 -536q-199 0 -321 104l-105 -96l-92 98l108 105q-79 128 -79 323q0 234 131.5 373t353.5 139q214 0 346 -123l80 76zM307 489q0 -25 4 -61l283 268q-43 52 -119 52
q-168 0 -168 -259zM643 498q0 9 -1 28t-1 27l-279 -262q39 -45 113 -45q87 0 127.5 61t40.5 191z" />
    <glyph glyph-name="Odblgrave" unicode="&#x20c;" horiz-adv-x="1318" 
d="M989 1309q170 -182 170 -480v-208q0 -129 -33 -237t-89.5 -182t-132.5 -125.5t-160.5 -75.5t-174.5 -24q-87 0 -170.5 24t-160 76t-133.5 126t-91 182t-34 236v208q0 306 172 484q78 81 186 124.5t231 43.5t232 -44.5t188 -127.5zM383 840v-236q0 -19 2 -39.5t8 -51.5
t19 -57.5t32 -51t51.5 -38.5t73.5 -14q48 0 84 19.5t55 47t30.5 64.5t14.5 65t3 56v236q0 34 -3.5 65t-15.5 68t-31.5 64t-55 45t-81.5 18q-57 0 -96.5 -25.5t-57.5 -69t-25 -82.5t-7 -83zM774 1524l-264 305l182 151l246 -325zM391 1516l-264 305l182 151l246 -325z" />
    <glyph glyph-name="uni0218" unicode="&#x218;" horiz-adv-x="1198" 
d="M569 918q116 -24 159 -38q316 -109 300 -466q-9 -202 -160 -322q-148 -117 -387 -117q-141 0 -301 53.5t-248 153.5l-16 21l262 260l23 -21q39 -45 123.5 -71.5t148.5 -26.5q61 0 104.5 21t43.5 71q0 23 -4.5 36.5t-20.5 30.5t-53 31t-97 27q-76 16 -139.5 38.5
t-124.5 60.5t-103 87.5t-67.5 121.5t-25.5 159q0 132 74.5 236t191.5 157.5t252 53.5q167 0 298 -48.5t208 -132.5l18 -20l-256 -244l-18 19q-93 77 -242 77q-41 0 -74.5 -7.5t-58.5 -29.5t-25 -57q0 -38 48 -63.5t167 -50.5zM745 -301q0 -53 -32 -100l-178 -240h-164v340
q0 77 55 131.5t133 54.5q77 0 131.5 -54.5t54.5 -131.5z" />
    <glyph glyph-name="uni0219" unicode="&#x219;" horiz-adv-x="1044" 
d="M160 358l12 -8q12 -9 16.5 -12t18.5 -12.5t22.5 -14.5t24.5 -13.5t27.5 -13t28.5 -11t31.5 -9.5t32 -5.5t34.5 -2.5h41q36 0 56.5 13t20.5 30q0 30 -27 41.5t-153 38.5q-91 19 -157.5 55.5t-100 80.5t-48.5 84t-15 79v41q0 142 124 222.5t322 80.5q139 0 241.5 -38.5
t161.5 -92.5l-176 -219q-6 6 -17.5 15t-51.5 28t-84 26q-66 11 -119 1t-53 -42q0 -16 10 -25.5t35 -16.5t53.5 -12t79 -15.5t98.5 -24.5q130 -38 196 -115t66 -172v-40q0 -129 -129 -216.5t-329 -87.5q-155 0 -267.5 30t-228.5 126zM643 -299q0 -51 -33 -100l-178 -240h-164
v340q0 77 55.5 131.5t133.5 54.5q77 0 131.5 -54.5t54.5 -131.5z" />
    <glyph glyph-name="uni021A" unicode="&#x21a;" horiz-adv-x="1269" 
d="M1169 1452v-360h-385v-1092h-399v1092h-385v360h1169zM752 -266q0 -42 -27 -84l-152 -203h-137v287q0 65 46.5 112.5t111.5 47.5q64 0 111 -47.5t47 -112.5z" />
    <glyph glyph-name="uni021B" unicode="&#x21b;" horiz-adv-x="722" 
d="M573 737h-124v-299q0 -73 28.5 -103.5t89.5 -27.5v-311h-118q-181 0 -280 80t-99 233v428h-101v271h101v307h379v-307h124v-271zM473 -276q0 -42 -27 -84l-151 -203h-137v287q0 65 46 112t111 47q64 0 111 -47t47 -112z" />
    <glyph glyph-name="circumflex" unicode="&#x2c6;" horiz-adv-x="667" 
d="M567 1126l-233 160l-232 -158l-145 134l246 288h268l240 -303z" />
    <glyph glyph-name="caron" unicode="&#x2c7;" horiz-adv-x="778" 
d="M367 1391l233 159l143 -120l-239 -304h-268l-246 289l145 133z" />
    <glyph glyph-name="breve" unicode="&#x2d8;" horiz-adv-x="802" 
d="M397 1225q-99 0 -208.5 52.5t-190.5 139.5l178 166q49 -56 111.5 -87.5t109.5 -31.5q116 0 226 119l176 -168q-87 -92 -191.5 -141t-210.5 -49z" />
    <glyph glyph-name="dotaccent" unicode="&#x2d9;" horiz-adv-x="364" 
d="M180 1516q70 0 126 -54.5t56 -128.5t-56 -129t-126 -55t-126 55t-56 129t56 128.5t126 54.5z" />
    <glyph glyph-name="ring" unicode="&#x2da;" horiz-adv-x="452" 
d="M221 1499q87 0 156 -66.5t69 -156.5q0 -91 -69.5 -158t-155.5 -67t-154.5 67t-68.5 158t68.5 157t154.5 66zM154 1278q0 -28 20.5 -49t48.5 -21t48 21t20 49t-20 48t-48 20t-48.5 -20t-20.5 -48z" />
    <glyph glyph-name="ogonek" unicode="&#x2db;" horiz-adv-x="817" 
d="M578 -311h43v-318h-9q-208 0 -323 99q-98 78 -137 193.5t-9 227.5q25 94 81.5 151.5t142.5 92.5q66 29 116 27t129 -35q5 0 9 -4v-207h-43q-49 0 -83 -33.5t-34 -81.5q0 -46 34 -79t83 -33z" />
    <glyph glyph-name="tilde" unicode="&#x2dc;" horiz-adv-x="894" 
d="M623 1067q-60 0 -106.5 14.5t-73.5 33t-71 37.5t-96 26q-104 13 -170 -76q1 0 -36.5 15t-75.5 31l-37 15q13 113 93.5 199t193.5 86q60 0 114 -15t87.5 -34t76 -38t80.5 -24q51 -7 83 18t54 79l176 -74q-13 -109 -97 -201t-195 -92z" />
    <glyph glyph-name="hungarumlaut" unicode="&#x2dd;" horiz-adv-x="708" 
d="M602 1470l164 -131l-246 -325l-182 151zM219 1479l164 -131l-246 -326l-182 152z" />
    <glyph glyph-name="hungarumlautcmb" unicode="&#x30b;" horiz-adv-x="718" 
d="M338 1268l264 305l164 -131l-246 -326zM-45 1276l264 305l164 -131l-246 -326z" />
    <glyph glyph-name="dblgravecmb" unicode="&#x30f;" horiz-adv-x="702" 
d="M602 1124l-264 306l182 151l246 -326zM219 1116l-264 305l182 152l246 -326z" />
    <glyph glyph-name="breveinvertedcmb" unicode="&#x311;" horiz-adv-x="788" 
d="M397 1581q106 0 210.5 -49t191.5 -141l-176 -168q-109 118 -226 118q-47 0 -109.5 -31t-111.5 -87l-178 166q81 87 190.5 139.5t208.5 52.5z" />
    <glyph glyph-name="horncmb" unicode="&#x31b;" horiz-adv-x="376" 
d="M0 1454h311l-164 -448h-147v448z" />
    <glyph glyph-name="uni0326" unicode="&#x326;" horiz-adv-x="264" 
d="M315 -270q0 -44 -26 -84l-152 -203h-137v287q0 65 46 112t112 47q64 0 110.5 -47t46.5 -112z" />
    <glyph glyph-name="uni1E02" unicode="&#x1e02;" horiz-adv-x="1249" 
d="M891 762q57 -18 101.5 -54.5t70 -81.5t38.5 -92.5t13 -93.5q0 -67 -17.5 -128t-59 -118.5t-103.5 -100t-158 -68t-215 -25.5h-561v1454h508q118 0 212 -24.5t154.5 -64.5t100.5 -96t57 -115.5t17 -125.5q0 -58 -13 -108t-50 -96t-95 -62zM492 1153h-130v-274h130
q37 0 65.5 5t57 18t44 42t15.5 72q0 137 -182 137zM532 309q30 0 54 2.5t52 11.5t47 24.5t31.5 44t12.5 67.5q0 46 -19 78.5t-51 47.5t-62.5 21t-64.5 6h-170v-303h170zM483 1915q70 0 126.5 -54t56.5 -128t-56.5 -129.5t-126.5 -55.5t-126 55.5t-56 129.5t56 128t126 54z
" />
    <glyph glyph-name="uni1E03" unicode="&#x1e03;" horiz-adv-x="1153" 
d="M0 1454h393v-522q23 43 84.5 70.5t132.5 27.5q78 0 151 -28.5t134 -84.5t98 -150.5t37 -213.5v-90q0 -111 -36 -203.5t-95.5 -151t-134.5 -90.5t-154 -32q-69 0 -140.5 21.5t-104.5 66.5v-74h-365v1454zM385 573v-141q0 -61 35 -95t86 -34q49 0 84 34t35 95v141
q0 64 -33 103t-86 39q-57 0 -89 -39.5t-32 -102.5zM748 1536q70 0 126 -54t56 -128t-56 -129.5t-126 -55.5t-126.5 55.5t-56.5 129.5t56.5 128t126.5 54z" />
    <glyph glyph-name="uni1E0A" unicode="&#x1e0a;" horiz-adv-x="1308" 
d="M997 1288q170 -173 170 -463v-207q0 -124 -33 -228t-88.5 -175t-130.5 -120.5t-157.5 -72t-171.5 -22.5h-586v1454h586q253 0 411 -166zM768 618v207q0 32 -4.5 62.5t-17.5 65.5t-33.5 61t-56 43.5t-81.5 17.5h-178v-698h178q47 0 83.5 18.5t56.5 45t32.5 61t16.5 62.5
t4 54zM530 1915q70 0 126.5 -54t56.5 -128t-56.5 -129.5t-126.5 -55.5t-126 55.5t-56 129.5t56 128t126 54z" />
    <glyph glyph-name="uni1E0B" unicode="&#x1e0b;" horiz-adv-x="1163" 
d="M1008 1454v-1454h-365v74q-33 -45 -105 -66.5t-141 -21.5q-79 0 -154 32t-134.5 90.5t-95.5 151t-36 203.5v90q0 119 37 213.5t98 150.5t134 84.5t151 28.5q71 0 132.5 -27.5t84.5 -70.5v522h394zM623 573q0 63 -32 102.5t-89 39.5q-53 0 -86 -39t-33 -103v-141
q0 -61 35 -95t84 -34q51 0 86 34t35 95v141zM322 1561q70 0 126 -54.5t56 -128.5t-56 -129t-126 -55t-126.5 55t-56.5 129t56.5 128.5t126.5 54.5z" />
    <glyph glyph-name="uni1E1E" unicode="&#x1e1e;" horiz-adv-x="1136" 
d="M977 1092h-578v-222h435v-329h-435v-541h-399v1452h977v-360zM502 1917q70 0 126 -54t56 -128t-56 -129.5t-126 -55.5t-126.5 55.5t-56.5 129.5t56.5 128t126.5 54z" />
    <glyph glyph-name="uni1E1F" unicode="&#x1e1f;" horiz-adv-x="757" 
d="M467 1014v-6h137v-263h-137v-745h-397v745h-103v263h103v6q0 227 104 333t324 111h106v-311q-137 9 -137 -133zM342 1901q70 0 126 -54.5t56 -128.5t-56 -129t-126 -55t-126 55t-56 129t56 128.5t126 54.5z" />
    <glyph glyph-name="uni1E40" unicode="&#x1e40;" horiz-adv-x="1576" 
d="M995 1454h432v-1454h-397v629l-207 -504h-229l-195 463v-588h-399v1454h430l279 -637zM737 1886q70 0 126.5 -54t56.5 -128t-56.5 -129t-126.5 -55t-126 55t-56 129t56 128t126 54z" />
    <glyph glyph-name="uni1E41" unicode="&#x1e41;" horiz-adv-x="1800" 
d="M1192 1042q61 0 120 -15t116.5 -49t101 -84t70 -126.5t26.5 -169.5v-598h-395v604q0 53 -30 87t-79 34q-52 0 -85 -36t-33 -97q0 -23 0.5 -169t1 -284t0.5 -139h-396v582q0 67 -27.5 105t-76.5 38q-56 0 -89.5 -39.5t-33.5 -103.5v-582h-383v1008h365v-62q23 42 89 69
t142 27q77 0 151 -35t127 -112q102 147 318 147zM823 1520q70 0 126.5 -54.5t56.5 -128.5t-56.5 -129t-126.5 -55t-126 55t-56 129t56 128.5t126 54.5z" />
    <glyph glyph-name="uni1E56" unicode="&#x1e56;" horiz-adv-x="1228" 
d="M522 1454q123 0 222 -29.5t163 -78.5t107 -116t61.5 -139.5t18.5 -152.5q0 -77 -18.5 -148.5t-62 -139t-107.5 -117t-163 -79.5t-221 -30h-123v-424h-399v1454h522zM522 766q193 0 193 176q0 42 -12.5 73.5t-32 50t-46.5 29.5t-51 15t-51 4h-123v-348h123zM518 1915
q70 0 126 -54t56 -128t-56 -129.5t-126 -55.5t-126 55.5t-56 129.5t56 128t126 54z" />
    <glyph glyph-name="uni1E57" unicode="&#x1e57;" horiz-adv-x="1159" 
d="M389 -418h-389v1426h365v-74q29 42 92 64t147 22q80 0 153.5 -29t132.5 -84t94.5 -143.5t35.5 -198.5v-104q0 -119 -36.5 -212t-97.5 -148t-133 -83t-149 -28q-70 0 -131 27t-84 69v-504zM381 580v-142q0 -62 31.5 -100.5t87.5 -38.5q53 0 85.5 38t32.5 101v142
q0 60 -34 93.5t-84 33.5t-84.5 -33.5t-34.5 -93.5zM504 1503q70 0 126 -54t56 -128t-56 -129t-126 -55t-126 55t-56 129t56 128t126 54z" />
    <glyph glyph-name="uni1E60" unicode="&#x1e60;" horiz-adv-x="1198" 
d="M569 918q116 -24 159 -38q316 -109 300 -466q-9 -202 -160 -322q-148 -117 -387 -117q-141 0 -301 53.5t-248 153.5l-16 21l262 260l23 -21q39 -45 123.5 -71.5t148.5 -26.5q61 0 104.5 21t43.5 71q0 23 -4.5 36.5t-20.5 30.5t-53 31t-97 27q-76 16 -139.5 38.5
t-124.5 60.5t-103 87.5t-67.5 121.5t-25.5 159q0 132 74.5 236t191.5 157.5t252 53.5q167 0 298 -48.5t208 -132.5l18 -20l-256 -244l-18 19q-93 77 -242 77q-41 0 -74.5 -7.5t-58.5 -29.5t-25 -57q0 -38 48 -63.5t167 -50.5zM543 1937q70 0 126 -54t56 -128t-56 -129
t-126 -55t-126.5 55t-56.5 129t56.5 128t126.5 54z" />
    <glyph glyph-name="uni1E61" unicode="&#x1e61;" horiz-adv-x="1044" 
d="M160 358l12 -8q12 -9 16.5 -12t18.5 -12.5t22.5 -14.5t24.5 -13.5t27.5 -13t28.5 -11t31.5 -9.5t32 -5.5t34.5 -2.5h41q36 0 56.5 13t20.5 30q0 30 -27 41.5t-153 38.5q-91 19 -157.5 55.5t-100 80.5t-48.5 84t-15 79v41q0 142 124 222.5t322 80.5q139 0 241.5 -38.5
t161.5 -92.5l-176 -219q-6 6 -17.5 15t-51.5 28t-84 26q-66 11 -119 1t-53 -42q0 -16 10 -25.5t35 -16.5t53.5 -12t79 -15.5t98.5 -24.5q130 -38 196 -115t66 -172v-40q0 -129 -129 -216.5t-329 -87.5q-155 0 -267.5 30t-228.5 126zM459 1507q70 0 126 -54t56 -128t-56 -129
t-126 -55t-126.5 55t-56.5 129t56.5 128t126.5 54z" />
    <glyph glyph-name="uni1E6A" unicode="&#x1e6a;" horiz-adv-x="1269" 
d="M1169 1452v-360h-385v-1092h-399v1092h-385v360h1169zM588 1935q70 0 126 -54t56 -128t-56 -129t-126 -55t-126 55t-56 129t56 128t126 54z" />
    <glyph glyph-name="uni1E6B" unicode="&#x1e6b;" horiz-adv-x="722" 
d="M573 737h-124v-299q0 -73 28.5 -103.5t89.5 -27.5v-311h-118q-181 0 -280 80t-99 233v428h-101v271h101v307h379v-307h124v-271zM264 1753q70 0 126 -54t56 -128t-56 -129.5t-126 -55.5t-126 55.5t-56 129.5t56 128t126 54z" />
    <glyph glyph-name="Wgrave" unicode="&#x1e80;" horiz-adv-x="1851" 
d="M735 0h-405l-359 1454h408l160 -688l139 651h387l143 -651l160 688h406l-375 -1454h-387l-138 600zM836 1972l176 -432h-287l-250 223z" />
    <glyph glyph-name="wgrave" unicode="&#x1e81;" horiz-adv-x="1638" 
d="M655 0h-440l-258 1008h401l125 -502l119 502h330l115 -502l118 502h385l-278 -1008h-406l-104 340zM748 1518l176 -433h-287l-250 224z" />
    <glyph glyph-name="Wacute" unicode="&#x1e82;" horiz-adv-x="1851" 
d="M735 0h-405l-359 1454h408l160 -688l139 651h387l143 -651l160 688h406l-375 -1454h-387l-138 600zM725 1526l176 432l361 -209l-250 -223h-287z" />
    <glyph glyph-name="wacute" unicode="&#x1e83;" horiz-adv-x="1638" 
d="M655 0h-440l-258 1008h401l125 -502l119 502h330l115 -502l118 502h385l-278 -1008h-406l-104 340zM590 1104l176 432l360 -209l-249 -223h-287z" />
    <glyph glyph-name="Wdieresis" unicode="&#x1e84;" horiz-adv-x="1851" 
d="M735 0h-405l-359 1454h408l160 -688l139 651h387l143 -651l160 688h406l-375 -1454h-387l-138 600zM1075 1866q59 0 106.5 -47t47.5 -109t-47 -106.5t-107 -44.5t-107.5 44.5t-47.5 106.5t48 109t107 47zM635 1866q59 0 106 -47t47 -109t-46.5 -106.5t-106.5 -44.5
t-108 44.5t-48 106.5t48 109t108 47z" />
    <glyph glyph-name="wdieresis" unicode="&#x1e85;" horiz-adv-x="1638" 
d="M655 0h-440l-258 1008h401l125 -502l119 502h330l115 -502l118 502h385l-278 -1008h-406l-104 340zM991 1440q59 0 106.5 -47t47.5 -109t-47 -106.5t-107 -44.5t-107.5 44.5t-47.5 106.5t48 109t107 47zM551 1440q59 0 106.5 -47t47.5 -109t-47 -106.5t-107 -44.5
t-108 44.5t-48 106.5t48 109t108 47z" />
    <glyph glyph-name="Etilde" unicode="&#x1ebc;" horiz-adv-x="1153" 
d="M977 1100h-580v-207h437v-330h-437v-207h580v-356h-977v1454h977v-354zM682 1563q-60 0 -106.5 14.5t-73 33t-70.5 37t-96 25.5q-104 13 -170 -76q1 0 -36.5 15.5t-75.5 31.5l-38 15q13 113 93.5 199t193.5 86q76 0 139.5 -24t119 -52.5t100.5 -34.5q52 -7 83.5 17.5
t53.5 78.5l176 -74q-13 -109 -97.5 -200.5t-195.5 -91.5z" />
    <glyph glyph-name="etilde" unicode="&#x1ebd;" horiz-adv-x="1071" 
d="M928 510v-119h-615q0 -42 49 -77t119 -35q38 0 63 2.5t62.5 17t69.5 41.5q22 -23 121 -113t104 -96q-163 -149 -455 -149q-90 0 -175 32t-153.5 90.5t-110.5 151t-42 203.5v90q0 97 28 178t74.5 136t109 93t130.5 55t139 17q72 0 137.5 -14.5t130 -52t111 -94.5
t75 -148.5t28.5 -208.5zM440 750q-65 0 -96 -36.5t-31 -92.5h265q0 55 -36 92t-102 37zM645 1139q-60 0 -106.5 14.5t-73 33t-70.5 37t-96 25.5q-105 13 -170 -75q1 0 -36.5 15t-74.5 31l-38 15q13 113 93 199t193 86q76 0 139.5 -24t119 -52.5t100.5 -34.5q52 -7 83.5 17.5
t53.5 78.5l176 -73q-13 -109 -97.5 -201t-195.5 -92z" />
    <glyph glyph-name="Ygrave" unicode="&#x1ef2;" horiz-adv-x="1341" 
d="M1251 1454l-465 -924v-530h-405v530l-449 924h443l217 -481l215 481h444zM600 1978l176 -432h-287l-249 223z" />
    <glyph glyph-name="ygrave" unicode="&#x1ef3;" horiz-adv-x="1142" 
d="M1047 1008l-422 -1192q-39 -104 -110.5 -173t-156.5 -95t-176 -20.5t-176 42.5l80 280q122 -46 185 13.5t34 152.5l-348 992h410l135 -568l135 568h410zM575 1563l177 -433h-287l-250 224z" />
    <glyph glyph-name="Ytilde" unicode="&#x1ef8;" horiz-adv-x="1341" 
d="M1251 1454l-465 -924v-530h-405v530l-449 924h443l217 -481l215 481h444zM791 1544q-60 0 -106.5 14.5t-73.5 33t-71 37.5t-96 26q-104 13 -170 -76q1 0 -36.5 15.5t-75.5 30.5l-37 15q13 113 93.5 199t193.5 86q60 0 114 -15t87.5 -34t76 -37.5t80.5 -23.5
q52 -7 83.5 17.5t53.5 78.5l176 -74q-13 -109 -97 -201t-195 -92z" />
    <glyph glyph-name="ytilde" unicode="&#x1ef9;" horiz-adv-x="1142" 
d="M1047 1008l-422 -1192q-39 -104 -110.5 -173t-156.5 -95t-176 -20.5t-176 42.5l80 280q122 -46 185 13.5t34 152.5l-348 992h410l135 -568l135 568h410zM698 1116q-60 0 -106.5 14.5t-73 33t-70.5 37.5t-96 26q-104 13 -170 -76q1 0 -36.5 15.5t-75.5 30.5l-37 15
q13 113 93 199t193 86q76 0 139.5 -24t119 -52.5t100.5 -34.5q51 -7 83 18t54 79l176 -74q-13 -109 -97.5 -201t-195.5 -92z" />
    <glyph glyph-name="endash" unicode="&#x2013;" horiz-adv-x="1239" 
d="M0 829h1135v-323h-1135v323z" />
    <glyph glyph-name="emdash" unicode="&#x2014;" horiz-adv-x="1832" 
d="M0 831h1729v-323h-1729v323z" />
    <glyph glyph-name="quoteleft" unicode="&#x2018;" horiz-adv-x="491" 
d="M-16 1114q0 53 32 100l179 240h163v-340q0 -77 -55 -131.5t-133 -54.5q-76 0 -131 55t-55 131z" />
    <glyph glyph-name="quoteright" unicode="&#x2019;" horiz-adv-x="411" 
d="M375 1290q0 -51 -33 -100l-178 -240h-164v340q0 77 55 132t133 55q76 0 131.5 -55.5t55.5 -131.5z" />
    <glyph glyph-name="quotesinglbase" unicode="&#x201a;" horiz-adv-x="532" 
d="M-16 -156q0 54 32 101l179 239h163v-340q0 -77 -55 -131.5t-133 -54.5q-76 0 -131 55t-55 131z" />
    <glyph glyph-name="quotedblleft" unicode="&#x201c;" horiz-adv-x="1001" 
d="M-16 1114q0 53 32 100l179 240h163v-340q0 -77 -55 -131.5t-133 -54.5q-76 0 -131 55t-55 131zM463 1114q0 51 33 100l178 240h164v-340q0 -77 -55.5 -131.5t-133.5 -54.5q-77 0 -131.5 55t-54.5 131z" />
    <glyph glyph-name="quotedblright" unicode="&#x201d;" horiz-adv-x="921" 
d="M850 1290q0 -51 -33 -100l-178 -240h-164v340q0 77 55.5 132t133.5 55q76 0 131 -55t55 -132zM375 1290q0 -51 -33 -100l-178 -240h-164v340q0 77 55 132t133 55q76 0 131.5 -55.5t55.5 -131.5z" />
    <glyph glyph-name="quotedblbase" unicode="&#x201e;" horiz-adv-x="1034" 
d="M-16 -156q0 54 32 101l179 239h163v-340q0 -77 -55 -131.5t-133 -54.5q-76 0 -131 55t-55 131zM463 -156q0 52 33 101l178 239h164v-340q0 -77 -55.5 -131.5t-133.5 -54.5q-77 0 -131.5 55t-54.5 131z" />
    <glyph glyph-name="bullet" unicode="&#x2022;" horiz-adv-x="1019" 
d="M264 1022q102 0 183 -79.5t81 -186.5t-81 -185.5t-183 -78.5t-185 79t-83 185q0 107 83 186.5t185 79.5z" />
    <glyph glyph-name="ellipsis" unicode="&#x2026;" horiz-adv-x="1636" 
d="M1262 352q71 0 127.5 -54t56.5 -128t-57 -129t-127 -55t-126.5 55t-56.5 129t56.5 128t126.5 54zM723 352q71 0 127.5 -54t56.5 -128t-57 -129t-127 -55t-126 55t-56 129t56 128t126 54zM176 352q71 0 127.5 -54t56.5 -128t-57 -129t-127 -55t-126 55t-56 129t56 128
t126 54z" />
    <glyph glyph-name="guilsinglleft" unicode="&#x2039;" horiz-adv-x="657" 
d="M573 281l-211 -213l-382 381v194l382 383l211 -213l-268 -266z" />
    <glyph glyph-name="guilsinglright" unicode="&#x203a;" horiz-adv-x="655" 
d="M-20 813l210 213l383 -381v-194l-383 -383l-210 213l268 266z" />
    <glyph glyph-name="Euro" unicode="&#x20ac;" horiz-adv-x="1460" 
d="M815 272q40 0 84 8.5t79.5 20.5t63.5 24t46.5 21.5t19.5 9.5l100 56v-326l-34 -20q-154 -89 -379 -89q-229 0 -392 121t-231 336h-266l61 203h166q-4 58 -4 84h-229l77 203h168q47 257 224 405t442 148q143 -1 287.5 -53t212.5 -115l4 -6l-129 -269q-62 65 -164.5 101
t-190.5 36q-139 0 -235 -64t-141 -183h696l-82 -203h-645q0 -26 4 -84h612l-79 -203h-461q3 -4 10 -16.5t12 -18.5q106 -127 293 -127z" />
    <glyph glyph-name="arrowleft" unicode="&#x2190;" horiz-adv-x="1605" 
d="M672 49l-672 664l672 663l246 -248l-246 -247h704v-336h-704l246 -248z" />
    <glyph glyph-name="arrowup" unicode="&#x2191;" horiz-adv-x="1513" 
d="M688 1432l664 -672l-248 -246l-248 246v-705h-336v705l-248 -246l-247 246z" />
    <glyph glyph-name="arrowright" unicode="&#x2192;" horiz-adv-x="1507" 
d="M1436 713v0l-672 -664l-246 248l246 248h-705v336h705l-246 247l246 248z" />
    <glyph glyph-name="arrowdown" unicode="&#x2193;" horiz-adv-x="1507" 
d="M1352 707l-664 -672l-663 672l247 245l248 -245v704h336v-704l248 245z" />
    <glyph glyph-name="Odotaccent" horiz-adv-x="1318" 
d="M989 1309q170 -182 170 -480v-208q0 -129 -33 -237t-89.5 -182t-132.5 -125.5t-160.5 -75.5t-174.5 -24q-87 0 -170.5 24t-160 76t-133.5 126t-91 182t-34 236v208q0 306 172 484q78 81 186 124.5t231 43.5t232 -44.5t188 -127.5zM383 840v-236q0 -19 2 -39.5t8 -51.5
t19 -57.5t32 -51t51.5 -38.5t73.5 -14q48 0 84 19.5t55 47t30.5 64.5t14.5 65t3 56v236q0 34 -3.5 65t-15.5 68t-31.5 64t-55 45t-81.5 18q-57 0 -96.5 -25.5t-57.5 -69t-25 -82.5t-7 -83zM575 1917q70 0 126.5 -54t56.5 -128t-56.5 -129.5t-126.5 -55.5t-126 55.5
t-56 129.5t56 128t126 54z" />
    </font>
</defs>
</svg>
